<svg width="443" height="356" viewBox="0 0 443 356" fill="none" xmlns="http://www.w3.org/2000/svg">
<g filter="url(#filter0_d_28_34)">
<rect x="8" y="6" width="427" height="340" rx="8" fill="white"/>
<path d="M125.512 188.938H128.488L132.871 201.465L137.254 188.938H140.23L134.066 206H131.676L125.512 188.938ZM123.906 188.938H126.871L127.41 201.148V206H123.906V188.938ZM138.871 188.938H141.848V206H138.332V201.148L138.871 188.938ZM144.18 199.789V199.543C144.18 198.613 144.312 197.758 144.578 196.977C144.844 196.188 145.23 195.504 145.738 194.926C146.246 194.348 146.871 193.898 147.613 193.578C148.355 193.25 149.207 193.086 150.168 193.086C151.129 193.086 151.984 193.25 152.734 193.578C153.484 193.898 154.113 194.348 154.621 194.926C155.137 195.504 155.527 196.188 155.793 196.977C156.059 197.758 156.191 198.613 156.191 199.543V199.789C156.191 200.711 156.059 201.566 155.793 202.355C155.527 203.137 155.137 203.82 154.621 204.406C154.113 204.984 153.488 205.434 152.746 205.754C152.004 206.074 151.152 206.234 150.191 206.234C149.23 206.234 148.375 206.074 147.625 205.754C146.883 205.434 146.254 204.984 145.738 204.406C145.23 203.82 144.844 203.137 144.578 202.355C144.312 201.566 144.18 200.711 144.18 199.789ZM147.555 199.543V199.789C147.555 200.32 147.602 200.816 147.695 201.277C147.789 201.738 147.938 202.145 148.141 202.496C148.352 202.84 148.625 203.109 148.961 203.305C149.297 203.5 149.707 203.598 150.191 203.598C150.66 203.598 151.062 203.5 151.398 203.305C151.734 203.109 152.004 202.84 152.207 202.496C152.41 202.145 152.559 201.738 152.652 201.277C152.754 200.816 152.805 200.32 152.805 199.789V199.543C152.805 199.027 152.754 198.543 152.652 198.09C152.559 197.629 152.406 197.223 152.195 196.871C151.992 196.512 151.723 196.23 151.387 196.027C151.051 195.824 150.645 195.723 150.168 195.723C149.691 195.723 149.285 195.824 148.949 196.027C148.621 196.23 148.352 196.512 148.141 196.871C147.938 197.223 147.789 197.629 147.695 198.09C147.602 198.543 147.555 199.027 147.555 199.543ZM165.754 203.234V188H169.152V206H166.094L165.754 203.234ZM157.738 199.812V199.566C157.738 198.598 157.848 197.719 158.066 196.93C158.285 196.133 158.605 195.449 159.027 194.879C159.449 194.309 159.969 193.867 160.586 193.555C161.203 193.242 161.906 193.086 162.695 193.086C163.438 193.086 164.086 193.242 164.641 193.555C165.203 193.867 165.68 194.312 166.07 194.891C166.469 195.461 166.789 196.137 167.031 196.918C167.273 197.691 167.449 198.539 167.559 199.461V200C167.449 200.883 167.273 201.703 167.031 202.461C166.789 203.219 166.469 203.883 166.07 204.453C165.68 205.016 165.203 205.453 164.641 205.766C164.078 206.078 163.422 206.234 162.672 206.234C161.883 206.234 161.18 206.074 160.562 205.754C159.953 205.434 159.438 204.984 159.016 204.406C158.602 203.828 158.285 203.148 158.066 202.367C157.848 201.586 157.738 200.734 157.738 199.812ZM161.113 199.566V199.812C161.113 200.336 161.152 200.824 161.23 201.277C161.316 201.73 161.453 202.133 161.641 202.484C161.836 202.828 162.086 203.098 162.391 203.293C162.703 203.48 163.082 203.574 163.527 203.574C164.105 203.574 164.582 203.445 164.957 203.188C165.332 202.922 165.617 202.559 165.812 202.098C166.016 201.637 166.133 201.105 166.164 200.504V198.969C166.141 198.477 166.07 198.035 165.953 197.645C165.844 197.246 165.68 196.906 165.461 196.625C165.25 196.344 164.984 196.125 164.664 195.969C164.352 195.812 163.98 195.734 163.551 195.734C163.113 195.734 162.738 195.836 162.426 196.039C162.113 196.234 161.859 196.504 161.664 196.848C161.477 197.191 161.336 197.598 161.242 198.066C161.156 198.527 161.113 199.027 161.113 199.566ZM177.625 206.234C176.641 206.234 175.758 206.078 174.977 205.766C174.195 205.445 173.531 205.004 172.984 204.441C172.445 203.879 172.031 203.227 171.742 202.484C171.453 201.734 171.309 200.938 171.309 200.094V199.625C171.309 198.664 171.445 197.785 171.719 196.988C171.992 196.191 172.383 195.5 172.891 194.914C173.406 194.328 174.031 193.879 174.766 193.566C175.5 193.246 176.328 193.086 177.25 193.086C178.148 193.086 178.945 193.234 179.641 193.531C180.336 193.828 180.918 194.25 181.387 194.797C181.863 195.344 182.223 196 182.465 196.766C182.707 197.523 182.828 198.367 182.828 199.297V200.703H172.75V198.453H179.512V198.195C179.512 197.727 179.426 197.309 179.254 196.941C179.09 196.566 178.84 196.27 178.504 196.051C178.168 195.832 177.738 195.723 177.215 195.723C176.77 195.723 176.387 195.82 176.066 196.016C175.746 196.211 175.484 196.484 175.281 196.836C175.086 197.188 174.938 197.602 174.836 198.078C174.742 198.547 174.695 199.062 174.695 199.625V200.094C174.695 200.602 174.766 201.07 174.906 201.5C175.055 201.93 175.262 202.301 175.527 202.613C175.801 202.926 176.129 203.168 176.512 203.34C176.902 203.512 177.344 203.598 177.836 203.598C178.445 203.598 179.012 203.48 179.535 203.246C180.066 203.004 180.523 202.641 180.906 202.156L182.547 203.938C182.281 204.32 181.918 204.688 181.457 205.039C181.004 205.391 180.457 205.68 179.816 205.906C179.176 206.125 178.445 206.234 177.625 206.234ZM188.125 196.086V206H184.75V193.32H187.926L188.125 196.086ZM191.945 193.238L191.887 196.367C191.723 196.344 191.523 196.324 191.289 196.309C191.062 196.285 190.855 196.273 190.668 196.273C190.191 196.273 189.777 196.336 189.426 196.461C189.082 196.578 188.793 196.754 188.559 196.988C188.332 197.223 188.16 197.508 188.043 197.844C187.934 198.18 187.871 198.562 187.855 198.992L187.176 198.781C187.176 197.961 187.258 197.207 187.422 196.52C187.586 195.824 187.824 195.219 188.137 194.703C188.457 194.188 188.848 193.789 189.309 193.508C189.77 193.227 190.297 193.086 190.891 193.086C191.078 193.086 191.27 193.102 191.465 193.133C191.66 193.156 191.82 193.191 191.945 193.238ZM196.844 196.027V206H193.469V193.32H196.633L196.844 196.027ZM196.352 199.215H195.438C195.438 198.277 195.559 197.434 195.801 196.684C196.043 195.926 196.383 195.281 196.82 194.75C197.258 194.211 197.777 193.801 198.379 193.52C198.988 193.23 199.668 193.086 200.418 193.086C201.012 193.086 201.555 193.172 202.047 193.344C202.539 193.516 202.961 193.789 203.312 194.164C203.672 194.539 203.945 195.035 204.133 195.652C204.328 196.27 204.426 197.023 204.426 197.914V206H201.027V197.902C201.027 197.34 200.949 196.902 200.793 196.59C200.637 196.277 200.406 196.059 200.102 195.934C199.805 195.801 199.438 195.734 199 195.734C198.547 195.734 198.152 195.824 197.816 196.004C197.488 196.184 197.215 196.434 196.996 196.754C196.785 197.066 196.625 197.434 196.516 197.855C196.406 198.277 196.352 198.73 196.352 199.215ZM216.59 202.719L219.227 193.32H221.371L220.68 197.012L218.043 206H216.25L216.59 202.719ZM215.254 193.32L217.141 202.707L217.316 206H215.207L211.996 193.32H215.254ZM223.785 202.555L225.625 193.32H228.895L225.684 206H223.586L223.785 202.555ZM221.664 193.32L224.289 202.648L224.652 206H222.848L220.211 197.023L219.543 193.32H221.664ZM230.055 199.789V199.543C230.055 198.613 230.188 197.758 230.453 196.977C230.719 196.188 231.105 195.504 231.613 194.926C232.121 194.348 232.746 193.898 233.488 193.578C234.23 193.25 235.082 193.086 236.043 193.086C237.004 193.086 237.859 193.25 238.609 193.578C239.359 193.898 239.988 194.348 240.496 194.926C241.012 195.504 241.402 196.188 241.668 196.977C241.934 197.758 242.066 198.613 242.066 199.543V199.789C242.066 200.711 241.934 201.566 241.668 202.355C241.402 203.137 241.012 203.82 240.496 204.406C239.988 204.984 239.363 205.434 238.621 205.754C237.879 206.074 237.027 206.234 236.066 206.234C235.105 206.234 234.25 206.074 233.5 205.754C232.758 205.434 232.129 204.984 231.613 204.406C231.105 203.82 230.719 203.137 230.453 202.355C230.188 201.566 230.055 200.711 230.055 199.789ZM233.43 199.543V199.789C233.43 200.32 233.477 200.816 233.57 201.277C233.664 201.738 233.812 202.145 234.016 202.496C234.227 202.84 234.5 203.109 234.836 203.305C235.172 203.5 235.582 203.598 236.066 203.598C236.535 203.598 236.938 203.5 237.273 203.305C237.609 203.109 237.879 202.84 238.082 202.496C238.285 202.145 238.434 201.738 238.527 201.277C238.629 200.816 238.68 200.32 238.68 199.789V199.543C238.68 199.027 238.629 198.543 238.527 198.09C238.434 197.629 238.281 197.223 238.07 196.871C237.867 196.512 237.598 196.23 237.262 196.027C236.926 195.824 236.52 195.723 236.043 195.723C235.566 195.723 235.16 195.824 234.824 196.027C234.496 196.23 234.227 196.512 234.016 196.871C233.812 197.223 233.664 197.629 233.57 198.09C233.477 198.543 233.43 199.027 233.43 199.543ZM247.516 196.086V206H244.141V193.32H247.316L247.516 196.086ZM251.336 193.238L251.277 196.367C251.113 196.344 250.914 196.324 250.68 196.309C250.453 196.285 250.246 196.273 250.059 196.273C249.582 196.273 249.168 196.336 248.816 196.461C248.473 196.578 248.184 196.754 247.949 196.988C247.723 197.223 247.551 197.508 247.434 197.844C247.324 198.18 247.262 198.562 247.246 198.992L246.566 198.781C246.566 197.961 246.648 197.207 246.812 196.52C246.977 195.824 247.215 195.219 247.527 194.703C247.848 194.188 248.238 193.789 248.699 193.508C249.16 193.227 249.688 193.086 250.281 193.086C250.469 193.086 250.66 193.102 250.855 193.133C251.051 193.156 251.211 193.191 251.336 193.238ZM256.305 187.988V206H252.93V187.988H256.305ZM264.297 193.32L258.789 199.602L255.836 202.59L254.605 200.152L256.949 197.176L260.242 193.32H264.297ZM260.793 206L257.043 200.141L259.375 198.102L264.684 206H260.793ZM270.051 206H266.652V192.195C266.652 191.234 266.84 190.426 267.215 189.77C267.598 189.105 268.133 188.605 268.82 188.27C269.516 187.926 270.34 187.754 271.293 187.754C271.605 187.754 271.906 187.777 272.195 187.824C272.484 187.863 272.766 187.914 273.039 187.977L273.004 190.52C272.855 190.48 272.699 190.453 272.535 190.438C272.371 190.422 272.18 190.414 271.961 190.414C271.555 190.414 271.207 190.484 270.918 190.625C270.637 190.758 270.422 190.957 270.273 191.223C270.125 191.488 270.051 191.812 270.051 192.195V206ZM272.582 193.32V195.711H264.766V193.32H272.582ZM273.812 199.789V199.543C273.812 198.613 273.945 197.758 274.211 196.977C274.477 196.188 274.863 195.504 275.371 194.926C275.879 194.348 276.504 193.898 277.246 193.578C277.988 193.25 278.84 193.086 279.801 193.086C280.762 193.086 281.617 193.25 282.367 193.578C283.117 193.898 283.746 194.348 284.254 194.926C284.77 195.504 285.16 196.188 285.426 196.977C285.691 197.758 285.824 198.613 285.824 199.543V199.789C285.824 200.711 285.691 201.566 285.426 202.355C285.16 203.137 284.77 203.82 284.254 204.406C283.746 204.984 283.121 205.434 282.379 205.754C281.637 206.074 280.785 206.234 279.824 206.234C278.863 206.234 278.008 206.074 277.258 205.754C276.516 205.434 275.887 204.984 275.371 204.406C274.863 203.82 274.477 203.137 274.211 202.355C273.945 201.566 273.812 200.711 273.812 199.789ZM277.188 199.543V199.789C277.188 200.32 277.234 200.816 277.328 201.277C277.422 201.738 277.57 202.145 277.773 202.496C277.984 202.84 278.258 203.109 278.594 203.305C278.93 203.5 279.34 203.598 279.824 203.598C280.293 203.598 280.695 203.5 281.031 203.305C281.367 203.109 281.637 202.84 281.84 202.496C282.043 202.145 282.191 201.738 282.285 201.277C282.387 200.816 282.438 200.32 282.438 199.789V199.543C282.438 199.027 282.387 198.543 282.285 198.09C282.191 197.629 282.039 197.223 281.828 196.871C281.625 196.512 281.355 196.23 281.02 196.027C280.684 195.824 280.277 195.723 279.801 195.723C279.324 195.723 278.918 195.824 278.582 196.027C278.254 196.23 277.984 196.512 277.773 196.871C277.57 197.223 277.422 197.629 277.328 198.09C277.234 198.543 277.188 199.027 277.188 199.543ZM291.273 196.086V206H287.898V193.32H291.074L291.273 196.086ZM295.094 193.238L295.035 196.367C294.871 196.344 294.672 196.324 294.438 196.309C294.211 196.285 294.004 196.273 293.816 196.273C293.34 196.273 292.926 196.336 292.574 196.461C292.23 196.578 291.941 196.754 291.707 196.988C291.48 197.223 291.309 197.508 291.191 197.844C291.082 198.18 291.02 198.562 291.004 198.992L290.324 198.781C290.324 197.961 290.406 197.207 290.57 196.52C290.734 195.824 290.973 195.219 291.285 194.703C291.605 194.188 291.996 193.789 292.457 193.508C292.918 193.227 293.445 193.086 294.039 193.086C294.227 193.086 294.418 193.102 294.613 193.133C294.809 193.156 294.969 193.191 295.094 193.238ZM301.691 203.598C302.105 203.598 302.473 203.52 302.793 203.363C303.113 203.199 303.363 202.973 303.543 202.684C303.73 202.387 303.828 202.039 303.836 201.641H307.012C307.004 202.531 306.766 203.324 306.297 204.02C305.828 204.707 305.199 205.25 304.41 205.648C303.621 206.039 302.738 206.234 301.762 206.234C300.777 206.234 299.918 206.07 299.184 205.742C298.457 205.414 297.852 204.961 297.367 204.383C296.883 203.797 296.52 203.117 296.277 202.344C296.035 201.562 295.914 200.727 295.914 199.836V199.496C295.914 198.598 296.035 197.762 296.277 196.988C296.52 196.207 296.883 195.527 297.367 194.949C297.852 194.363 298.457 193.906 299.184 193.578C299.91 193.25 300.762 193.086 301.738 193.086C302.777 193.086 303.688 193.285 304.469 193.684C305.258 194.082 305.875 194.652 306.32 195.395C306.773 196.129 307.004 197 307.012 198.008H303.836C303.828 197.586 303.738 197.203 303.566 196.859C303.402 196.516 303.16 196.242 302.84 196.039C302.527 195.828 302.141 195.723 301.68 195.723C301.188 195.723 300.785 195.828 300.473 196.039C300.16 196.242 299.918 196.523 299.746 196.883C299.574 197.234 299.453 197.637 299.383 198.09C299.32 198.535 299.289 199.004 299.289 199.496V199.836C299.289 200.328 299.32 200.801 299.383 201.254C299.445 201.707 299.562 202.109 299.734 202.461C299.914 202.812 300.16 203.09 300.473 203.293C300.785 203.496 301.191 203.598 301.691 203.598ZM314.805 206.234C313.82 206.234 312.938 206.078 312.156 205.766C311.375 205.445 310.711 205.004 310.164 204.441C309.625 203.879 309.211 203.227 308.922 202.484C308.633 201.734 308.488 200.938 308.488 200.094V199.625C308.488 198.664 308.625 197.785 308.898 196.988C309.172 196.191 309.562 195.5 310.07 194.914C310.586 194.328 311.211 193.879 311.945 193.566C312.68 193.246 313.508 193.086 314.43 193.086C315.328 193.086 316.125 193.234 316.82 193.531C317.516 193.828 318.098 194.25 318.566 194.797C319.043 195.344 319.402 196 319.645 196.766C319.887 197.523 320.008 198.367 320.008 199.297V200.703H309.93V198.453H316.691V198.195C316.691 197.727 316.605 197.309 316.434 196.941C316.27 196.566 316.02 196.27 315.684 196.051C315.348 195.832 314.918 195.723 314.395 195.723C313.949 195.723 313.566 195.82 313.246 196.016C312.926 196.211 312.664 196.484 312.461 196.836C312.266 197.188 312.117 197.602 312.016 198.078C311.922 198.547 311.875 199.062 311.875 199.625V200.094C311.875 200.602 311.945 201.07 312.086 201.5C312.234 201.93 312.441 202.301 312.707 202.613C312.98 202.926 313.309 203.168 313.691 203.34C314.082 203.512 314.523 203.598 315.016 203.598C315.625 203.598 316.191 203.48 316.715 203.246C317.246 203.004 317.703 202.641 318.086 202.156L319.727 203.938C319.461 204.32 319.098 204.688 318.637 205.039C318.184 205.391 317.637 205.68 316.996 205.906C316.355 206.125 315.625 206.234 314.805 206.234Z" fill="#303031"/>
<path d="M35.8838 236.203H37.5273L41.7197 246.636L45.9033 236.203H47.5557L42.3525 249H41.0693L35.8838 236.203ZM35.3477 236.203H36.7979L37.0352 244.008V249H35.3477V236.203ZM46.6328 236.203H48.083V249H46.3955V244.008L46.6328 236.203ZM56.6348 246.803V239.49H58.2695V249H56.7139L56.6348 246.803ZM56.9424 244.799L57.6191 244.781C57.6191 245.414 57.5518 246 57.417 246.539C57.2881 247.072 57.0771 247.535 56.7842 247.928C56.4912 248.32 56.1074 248.628 55.6328 248.851C55.1582 249.067 54.5811 249.176 53.9014 249.176C53.4385 249.176 53.0137 249.108 52.627 248.974C52.2461 248.839 51.918 248.631 51.6426 248.35C51.3672 248.068 51.1533 247.702 51.001 247.251C50.8545 246.8 50.7812 246.258 50.7812 245.625V239.49H52.4072V245.643C52.4072 246.07 52.4541 246.425 52.5479 246.706C52.6475 246.981 52.7793 247.201 52.9434 247.365C53.1133 247.523 53.3008 247.635 53.5059 247.699C53.7168 247.764 53.9336 247.796 54.1562 247.796C54.8477 247.796 55.3955 247.664 55.7998 247.4C56.2041 247.131 56.4941 246.771 56.6699 246.319C56.8516 245.862 56.9424 245.355 56.9424 244.799ZM62.5146 235.5V249H60.8799V235.5H62.5146ZM69.1064 239.49V240.738H63.9648V239.49H69.1064ZM65.7051 237.179H67.3311V246.645C67.3311 246.967 67.3809 247.21 67.4805 247.374C67.5801 247.538 67.709 247.646 67.8672 247.699C68.0254 247.752 68.1953 247.778 68.377 247.778C68.5117 247.778 68.6523 247.767 68.7988 247.743C68.9512 247.714 69.0654 247.69 69.1416 247.673L69.1504 249C69.0215 249.041 68.8516 249.079 68.6406 249.114C68.4355 249.155 68.1865 249.176 67.8936 249.176C67.4951 249.176 67.1289 249.097 66.7949 248.938C66.4609 248.78 66.1943 248.517 65.9951 248.147C65.8018 247.772 65.7051 247.269 65.7051 246.636V237.179ZM72.7803 239.49V249H71.1455V239.49H72.7803ZM71.0225 236.968C71.0225 236.704 71.1016 236.481 71.2598 236.3C71.4238 236.118 71.6641 236.027 71.9805 236.027C72.291 236.027 72.5283 236.118 72.6924 236.3C72.8623 236.481 72.9473 236.704 72.9473 236.968C72.9473 237.22 72.8623 237.437 72.6924 237.618C72.5283 237.794 72.291 237.882 71.9805 237.882C71.6641 237.882 71.4238 237.794 71.2598 237.618C71.1016 237.437 71.0225 237.22 71.0225 236.968ZM80.9277 246.478C80.9277 246.243 80.875 246.026 80.7695 245.827C80.6699 245.622 80.4619 245.438 80.1455 245.273C79.835 245.104 79.3662 244.957 78.7393 244.834C78.2119 244.723 77.7344 244.591 77.3066 244.438C76.8848 244.286 76.5244 244.102 76.2256 243.885C75.9326 243.668 75.707 243.413 75.5488 243.12C75.3906 242.827 75.3115 242.484 75.3115 242.092C75.3115 241.717 75.3936 241.362 75.5576 241.028C75.7275 240.694 75.9648 240.398 76.2695 240.141C76.5801 239.883 76.9521 239.681 77.3857 239.534C77.8193 239.388 78.3027 239.314 78.8359 239.314C79.5977 239.314 80.248 239.449 80.7871 239.719C81.3262 239.988 81.7393 240.349 82.0264 240.8C82.3135 241.245 82.457 241.74 82.457 242.285H80.8311C80.8311 242.021 80.752 241.767 80.5938 241.521C80.4414 241.269 80.2158 241.061 79.917 240.896C79.624 240.732 79.2637 240.65 78.8359 240.65C78.3848 240.65 78.0186 240.721 77.7373 240.861C77.4619 240.996 77.2598 241.169 77.1309 241.38C77.0078 241.591 76.9463 241.813 76.9463 242.048C76.9463 242.224 76.9756 242.382 77.0342 242.522C77.0986 242.657 77.21 242.783 77.3682 242.9C77.5264 243.012 77.749 243.117 78.0361 243.217C78.3232 243.316 78.6895 243.416 79.1348 243.516C79.9141 243.691 80.5557 243.902 81.0596 244.148C81.5635 244.395 81.9385 244.696 82.1846 245.054C82.4307 245.411 82.5537 245.845 82.5537 246.354C82.5537 246.771 82.4658 247.151 82.29 247.497C82.1201 247.843 81.8711 248.142 81.543 248.394C81.2207 248.64 80.834 248.833 80.3828 248.974C79.9375 249.108 79.4365 249.176 78.8799 249.176C78.042 249.176 77.333 249.026 76.7529 248.728C76.1729 248.429 75.7334 248.042 75.4346 247.567C75.1357 247.093 74.9863 246.592 74.9863 246.064H76.6211C76.6445 246.51 76.7734 246.864 77.0078 247.128C77.2422 247.386 77.5293 247.57 77.8691 247.682C78.209 247.787 78.5459 247.84 78.8799 247.84C79.3252 247.84 79.6973 247.781 79.9961 247.664C80.3008 247.547 80.5322 247.386 80.6904 247.181C80.8486 246.976 80.9277 246.741 80.9277 246.478ZM88.6709 239.49V240.738H83.5293V239.49H88.6709ZM85.2695 237.179H86.8955V246.645C86.8955 246.967 86.9453 247.21 87.0449 247.374C87.1445 247.538 87.2734 247.646 87.4316 247.699C87.5898 247.752 87.7598 247.778 87.9414 247.778C88.0762 247.778 88.2168 247.767 88.3633 247.743C88.5156 247.714 88.6299 247.69 88.7061 247.673L88.7148 249C88.5859 249.041 88.416 249.079 88.2051 249.114C88 249.155 87.751 249.176 87.458 249.176C87.0596 249.176 86.6934 249.097 86.3594 248.938C86.0254 248.78 85.7588 248.517 85.5596 248.147C85.3662 247.772 85.2695 247.269 85.2695 246.636V237.179ZM96.1855 247.374V242.479C96.1855 242.104 96.1094 241.778 95.957 241.503C95.8105 241.222 95.5879 241.005 95.2891 240.853C94.9902 240.7 94.6211 240.624 94.1816 240.624C93.7715 240.624 93.4111 240.694 93.1006 240.835C92.7959 240.976 92.5557 241.16 92.3799 241.389C92.21 241.617 92.125 241.863 92.125 242.127H90.499C90.499 241.787 90.5869 241.45 90.7627 241.116C90.9385 240.782 91.1904 240.48 91.5186 240.211C91.8525 239.936 92.251 239.719 92.7139 239.561C93.1826 239.396 93.7041 239.314 94.2783 239.314C94.9697 239.314 95.5791 239.432 96.1064 239.666C96.6396 239.9 97.0557 240.255 97.3545 240.729C97.6592 241.198 97.8115 241.787 97.8115 242.496V246.926C97.8115 247.242 97.8379 247.579 97.8906 247.937C97.9492 248.294 98.0342 248.602 98.1455 248.859V249H96.4492C96.3672 248.812 96.3027 248.563 96.2559 248.253C96.209 247.937 96.1855 247.644 96.1855 247.374ZM96.4668 243.234L96.4844 244.377H94.8408C94.3779 244.377 93.9648 244.415 93.6016 244.491C93.2383 244.562 92.9336 244.67 92.6875 244.816C92.4414 244.963 92.2539 245.147 92.125 245.37C91.9961 245.587 91.9316 245.842 91.9316 246.135C91.9316 246.434 91.999 246.706 92.1338 246.952C92.2686 247.198 92.4707 247.395 92.7402 247.541C93.0156 247.682 93.3525 247.752 93.751 247.752C94.249 247.752 94.6885 247.646 95.0693 247.436C95.4502 247.225 95.752 246.967 95.9746 246.662C96.2031 246.357 96.3262 246.062 96.3438 245.774L97.0381 246.557C96.9971 246.803 96.8857 247.075 96.7041 247.374C96.5225 247.673 96.2793 247.96 95.9746 248.235C95.6758 248.505 95.3184 248.73 94.9023 248.912C94.4922 249.088 94.0293 249.176 93.5137 249.176C92.8691 249.176 92.3037 249.05 91.8174 248.798C91.3369 248.546 90.9619 248.209 90.6924 247.787C90.4287 247.359 90.2969 246.882 90.2969 246.354C90.2969 245.845 90.3965 245.396 90.5957 245.01C90.7949 244.617 91.082 244.292 91.457 244.034C91.832 243.771 92.2832 243.571 92.8105 243.437C93.3379 243.302 93.9268 243.234 94.5771 243.234H96.4668ZM102.004 235.5V249H100.369V235.5H102.004ZM107.813 239.49L103.665 243.929L101.345 246.337L101.213 244.605L102.874 242.619L105.827 239.49H107.813ZM106.328 249L102.936 244.465L103.779 243.015L108.244 249H106.328ZM113.263 249.176C112.601 249.176 112 249.064 111.461 248.842C110.928 248.613 110.468 248.294 110.081 247.884C109.7 247.474 109.407 246.987 109.202 246.425C108.997 245.862 108.895 245.247 108.895 244.579V244.21C108.895 243.437 109.009 242.748 109.237 242.145C109.466 241.535 109.776 241.02 110.169 240.598C110.562 240.176 111.007 239.856 111.505 239.64C112.003 239.423 112.519 239.314 113.052 239.314C113.731 239.314 114.317 239.432 114.81 239.666C115.308 239.9 115.715 240.229 116.031 240.65C116.348 241.066 116.582 241.559 116.734 242.127C116.887 242.689 116.963 243.305 116.963 243.973V244.702H109.861V243.375H115.337V243.252C115.313 242.83 115.226 242.42 115.073 242.021C114.927 241.623 114.692 241.295 114.37 241.037C114.048 240.779 113.608 240.65 113.052 240.65C112.683 240.65 112.343 240.729 112.032 240.888C111.722 241.04 111.455 241.269 111.232 241.573C111.01 241.878 110.837 242.25 110.714 242.689C110.591 243.129 110.529 243.636 110.529 244.21V244.579C110.529 245.03 110.591 245.455 110.714 245.854C110.843 246.246 111.027 246.592 111.268 246.891C111.514 247.189 111.81 247.424 112.155 247.594C112.507 247.764 112.905 247.849 113.351 247.849C113.925 247.849 114.411 247.731 114.81 247.497C115.208 247.263 115.557 246.949 115.855 246.557L116.84 247.339C116.635 247.649 116.374 247.945 116.058 248.227C115.741 248.508 115.352 248.736 114.889 248.912C114.432 249.088 113.89 249.176 113.263 249.176ZM120.487 235.5V249H118.861V235.5H120.487ZM120.101 243.885L119.424 243.858C119.43 243.208 119.526 242.607 119.714 242.057C119.901 241.5 120.165 241.017 120.505 240.606C120.845 240.196 121.249 239.88 121.718 239.657C122.192 239.429 122.717 239.314 123.291 239.314C123.76 239.314 124.182 239.379 124.557 239.508C124.932 239.631 125.251 239.83 125.515 240.105C125.784 240.381 125.989 240.738 126.13 241.178C126.271 241.611 126.341 242.142 126.341 242.769V249H124.706V242.751C124.706 242.253 124.633 241.854 124.486 241.556C124.34 241.251 124.126 241.031 123.845 240.896C123.563 240.756 123.218 240.686 122.808 240.686C122.403 240.686 122.034 240.771 121.7 240.94C121.372 241.11 121.088 241.345 120.848 241.644C120.613 241.942 120.429 242.285 120.294 242.672C120.165 243.053 120.101 243.457 120.101 243.885ZM128.345 244.351V244.148C128.345 243.463 128.444 242.827 128.644 242.241C128.843 241.649 129.13 241.137 129.505 240.703C129.88 240.264 130.334 239.924 130.867 239.684C131.4 239.438 131.998 239.314 132.66 239.314C133.328 239.314 133.929 239.438 134.462 239.684C135.001 239.924 135.458 240.264 135.833 240.703C136.214 241.137 136.504 241.649 136.703 242.241C136.902 242.827 137.002 243.463 137.002 244.148V244.351C137.002 245.036 136.902 245.672 136.703 246.258C136.504 246.844 136.214 247.356 135.833 247.796C135.458 248.229 135.004 248.569 134.471 248.815C133.943 249.056 133.346 249.176 132.678 249.176C132.01 249.176 131.409 249.056 130.876 248.815C130.343 248.569 129.886 248.229 129.505 247.796C129.13 247.356 128.843 246.844 128.644 246.258C128.444 245.672 128.345 245.036 128.345 244.351ZM129.971 244.148V244.351C129.971 244.825 130.026 245.273 130.138 245.695C130.249 246.111 130.416 246.48 130.639 246.803C130.867 247.125 131.151 247.38 131.491 247.567C131.831 247.749 132.227 247.84 132.678 247.84C133.123 247.84 133.513 247.749 133.847 247.567C134.187 247.38 134.468 247.125 134.69 246.803C134.913 246.48 135.08 246.111 135.191 245.695C135.309 245.273 135.367 244.825 135.367 244.351V244.148C135.367 243.68 135.309 243.237 135.191 242.821C135.08 242.399 134.91 242.027 134.682 241.705C134.459 241.377 134.178 241.119 133.838 240.932C133.504 240.744 133.111 240.65 132.66 240.65C132.215 240.65 131.822 240.744 131.482 240.932C131.148 241.119 130.867 241.377 130.639 241.705C130.416 242.027 130.249 242.399 130.138 242.821C130.026 243.237 129.971 243.68 129.971 244.148ZM140.808 235.5V249H139.173V235.5H140.808ZM149.412 247.154V235.5H151.047V249H149.553L149.412 247.154ZM143.014 244.351V244.166C143.014 243.439 143.102 242.78 143.277 242.188C143.459 241.591 143.714 241.078 144.042 240.65C144.376 240.223 144.771 239.895 145.229 239.666C145.691 239.432 146.207 239.314 146.775 239.314C147.373 239.314 147.895 239.42 148.34 239.631C148.791 239.836 149.172 240.138 149.482 240.536C149.799 240.929 150.048 241.403 150.229 241.96C150.411 242.517 150.537 243.146 150.607 243.85V244.658C150.543 245.355 150.417 245.982 150.229 246.539C150.048 247.096 149.799 247.57 149.482 247.963C149.172 248.355 148.791 248.657 148.34 248.868C147.889 249.073 147.361 249.176 146.758 249.176C146.201 249.176 145.691 249.056 145.229 248.815C144.771 248.575 144.376 248.238 144.042 247.805C143.714 247.371 143.459 246.861 143.277 246.275C143.102 245.684 143.014 245.042 143.014 244.351ZM144.648 244.166V244.351C144.648 244.825 144.695 245.271 144.789 245.687C144.889 246.103 145.041 246.469 145.246 246.785C145.451 247.102 145.712 247.351 146.028 247.532C146.345 247.708 146.723 247.796 147.162 247.796C147.701 247.796 148.144 247.682 148.489 247.453C148.841 247.225 149.122 246.923 149.333 246.548C149.544 246.173 149.708 245.766 149.825 245.326V243.208C149.755 242.886 149.652 242.575 149.518 242.276C149.389 241.972 149.219 241.702 149.008 241.468C148.803 241.228 148.548 241.037 148.243 240.896C147.944 240.756 147.59 240.686 147.18 240.686C146.734 240.686 146.351 240.779 146.028 240.967C145.712 241.148 145.451 241.4 145.246 241.723C145.041 242.039 144.889 242.408 144.789 242.83C144.695 243.246 144.648 243.691 144.648 244.166ZM157.524 249.176C156.862 249.176 156.262 249.064 155.723 248.842C155.189 248.613 154.729 248.294 154.343 247.884C153.962 247.474 153.669 246.987 153.464 246.425C153.259 245.862 153.156 245.247 153.156 244.579V244.21C153.156 243.437 153.271 242.748 153.499 242.145C153.728 241.535 154.038 241.02 154.431 240.598C154.823 240.176 155.269 239.856 155.767 239.64C156.265 239.423 156.78 239.314 157.313 239.314C157.993 239.314 158.579 239.432 159.071 239.666C159.569 239.9 159.977 240.229 160.293 240.65C160.609 241.066 160.844 241.559 160.996 242.127C161.148 242.689 161.225 243.305 161.225 243.973V244.702H154.123V243.375H159.599V243.252C159.575 242.83 159.487 242.42 159.335 242.021C159.188 241.623 158.954 241.295 158.632 241.037C158.31 240.779 157.87 240.65 157.313 240.65C156.944 240.65 156.604 240.729 156.294 240.888C155.983 241.04 155.717 241.269 155.494 241.573C155.271 241.878 155.099 242.25 154.976 242.689C154.853 243.129 154.791 243.636 154.791 244.21V244.579C154.791 245.03 154.853 245.455 154.976 245.854C155.104 246.246 155.289 246.592 155.529 246.891C155.775 247.189 156.071 247.424 156.417 247.594C156.769 247.764 157.167 247.849 157.612 247.849C158.187 247.849 158.673 247.731 159.071 247.497C159.47 247.263 159.818 246.949 160.117 246.557L161.102 247.339C160.896 247.649 160.636 247.945 160.319 248.227C160.003 248.508 159.613 248.736 159.15 248.912C158.693 249.088 158.151 249.176 157.524 249.176ZM164.749 240.984V249H163.123V239.49H164.705L164.749 240.984ZM167.72 239.438L167.711 240.949C167.576 240.92 167.447 240.902 167.324 240.896C167.207 240.885 167.072 240.879 166.92 240.879C166.545 240.879 166.214 240.938 165.927 241.055C165.64 241.172 165.396 241.336 165.197 241.547C164.998 241.758 164.84 242.01 164.723 242.303C164.611 242.59 164.538 242.906 164.503 243.252L164.046 243.516C164.046 242.941 164.102 242.402 164.213 241.898C164.33 241.395 164.509 240.949 164.749 240.562C164.989 240.17 165.294 239.865 165.663 239.648C166.038 239.426 166.483 239.314 166.999 239.314C167.116 239.314 167.251 239.329 167.403 239.358C167.556 239.382 167.661 239.408 167.72 239.438ZM179.849 239.49H181.325V248.798C181.325 249.636 181.155 250.351 180.815 250.942C180.476 251.534 180.001 251.982 179.392 252.287C178.788 252.598 178.091 252.753 177.3 252.753C176.972 252.753 176.585 252.7 176.14 252.595C175.7 252.495 175.267 252.322 174.839 252.076C174.417 251.836 174.062 251.511 173.775 251.101L174.628 250.134C175.026 250.614 175.442 250.948 175.876 251.136C176.315 251.323 176.749 251.417 177.177 251.417C177.692 251.417 178.138 251.32 178.513 251.127C178.888 250.934 179.178 250.646 179.383 250.266C179.594 249.891 179.699 249.428 179.699 248.877V241.582L179.849 239.49ZM173.301 244.351V244.166C173.301 243.439 173.386 242.78 173.556 242.188C173.731 241.591 173.98 241.078 174.303 240.65C174.631 240.223 175.026 239.895 175.489 239.666C175.952 239.432 176.474 239.314 177.054 239.314C177.651 239.314 178.173 239.42 178.618 239.631C179.069 239.836 179.45 240.138 179.761 240.536C180.077 240.929 180.326 241.403 180.508 241.96C180.689 242.517 180.815 243.146 180.886 243.85V244.658C180.821 245.355 180.695 245.982 180.508 246.539C180.326 247.096 180.077 247.57 179.761 247.963C179.45 248.355 179.069 248.657 178.618 248.868C178.167 249.073 177.64 249.176 177.036 249.176C176.468 249.176 175.952 249.056 175.489 248.815C175.032 248.575 174.64 248.238 174.312 247.805C173.983 247.371 173.731 246.861 173.556 246.275C173.386 245.684 173.301 245.042 173.301 244.351ZM174.927 244.166V244.351C174.927 244.825 174.974 245.271 175.067 245.687C175.167 246.103 175.316 246.469 175.516 246.785C175.721 247.102 175.981 247.351 176.298 247.532C176.614 247.708 176.992 247.796 177.432 247.796C177.971 247.796 178.416 247.682 178.768 247.453C179.119 247.225 179.397 246.923 179.603 246.548C179.813 246.173 179.978 245.766 180.095 245.326V243.208C180.03 242.886 179.931 242.575 179.796 242.276C179.667 241.972 179.497 241.702 179.286 241.468C179.081 241.228 178.826 241.037 178.521 240.896C178.217 240.756 177.859 240.686 177.449 240.686C177.004 240.686 176.62 240.779 176.298 240.967C175.981 241.148 175.721 241.4 175.516 241.723C175.316 242.039 175.167 242.408 175.067 242.83C174.974 243.246 174.927 243.691 174.927 244.166ZM183.364 244.351V244.148C183.364 243.463 183.464 242.827 183.663 242.241C183.862 241.649 184.149 241.137 184.524 240.703C184.899 240.264 185.354 239.924 185.887 239.684C186.42 239.438 187.018 239.314 187.68 239.314C188.348 239.314 188.948 239.438 189.481 239.684C190.021 239.924 190.478 240.264 190.853 240.703C191.233 241.137 191.523 241.649 191.723 242.241C191.922 242.827 192.021 243.463 192.021 244.148V244.351C192.021 245.036 191.922 245.672 191.723 246.258C191.523 246.844 191.233 247.356 190.853 247.796C190.478 248.229 190.023 248.569 189.49 248.815C188.963 249.056 188.365 249.176 187.697 249.176C187.029 249.176 186.429 249.056 185.896 248.815C185.362 248.569 184.905 248.229 184.524 247.796C184.149 247.356 183.862 246.844 183.663 246.258C183.464 245.672 183.364 245.036 183.364 244.351ZM184.99 244.148V244.351C184.99 244.825 185.046 245.273 185.157 245.695C185.269 246.111 185.436 246.48 185.658 246.803C185.887 247.125 186.171 247.38 186.511 247.567C186.851 247.749 187.246 247.84 187.697 247.84C188.143 247.84 188.532 247.749 188.866 247.567C189.206 247.38 189.487 247.125 189.71 246.803C189.933 246.48 190.1 246.111 190.211 245.695C190.328 245.273 190.387 244.825 190.387 244.351V244.148C190.387 243.68 190.328 243.237 190.211 242.821C190.1 242.399 189.93 242.027 189.701 241.705C189.479 241.377 189.197 241.119 188.857 240.932C188.523 240.744 188.131 240.65 187.68 240.65C187.234 240.65 186.842 240.744 186.502 240.932C186.168 241.119 185.887 241.377 185.658 241.705C185.436 242.027 185.269 242.399 185.157 242.821C185.046 243.237 184.99 243.68 184.99 244.148ZM196.812 247.532L199.413 239.49H201.074L197.655 249H196.565L196.812 247.532ZM194.641 239.49L197.321 247.576L197.506 249H196.416L192.971 239.49H194.641ZM206.462 249.176C205.8 249.176 205.199 249.064 204.66 248.842C204.127 248.613 203.667 248.294 203.28 247.884C202.899 247.474 202.606 246.987 202.401 246.425C202.196 245.862 202.094 245.247 202.094 244.579V244.21C202.094 243.437 202.208 242.748 202.437 242.145C202.665 241.535 202.976 241.02 203.368 240.598C203.761 240.176 204.206 239.856 204.704 239.64C205.202 239.423 205.718 239.314 206.251 239.314C206.931 239.314 207.517 239.432 208.009 239.666C208.507 239.9 208.914 240.229 209.23 240.65C209.547 241.066 209.781 241.559 209.934 242.127C210.086 242.689 210.162 243.305 210.162 243.973V244.702H203.061V243.375H208.536V243.252C208.513 242.83 208.425 242.42 208.272 242.021C208.126 241.623 207.892 241.295 207.569 241.037C207.247 240.779 206.808 240.65 206.251 240.65C205.882 240.65 205.542 240.729 205.231 240.888C204.921 241.04 204.654 241.269 204.432 241.573C204.209 241.878 204.036 242.25 203.913 242.689C203.79 243.129 203.729 243.636 203.729 244.21V244.579C203.729 245.03 203.79 245.455 203.913 245.854C204.042 246.246 204.227 246.592 204.467 246.891C204.713 247.189 205.009 247.424 205.354 247.594C205.706 247.764 206.104 247.849 206.55 247.849C207.124 247.849 207.61 247.731 208.009 247.497C208.407 247.263 208.756 246.949 209.055 246.557L210.039 247.339C209.834 247.649 209.573 247.945 209.257 248.227C208.94 248.508 208.551 248.736 208.088 248.912C207.631 249.088 207.089 249.176 206.462 249.176ZM213.687 240.984V249H212.061V239.49H213.643L213.687 240.984ZM216.657 239.438L216.648 240.949C216.514 240.92 216.385 240.902 216.262 240.896C216.145 240.885 216.01 240.879 215.857 240.879C215.482 240.879 215.151 240.938 214.864 241.055C214.577 241.172 214.334 241.336 214.135 241.547C213.936 241.758 213.777 242.01 213.66 242.303C213.549 242.59 213.476 242.906 213.44 243.252L212.983 243.516C212.983 242.941 213.039 242.402 213.15 241.898C213.268 241.395 213.446 240.949 213.687 240.562C213.927 240.17 214.231 239.865 214.601 239.648C214.976 239.426 215.421 239.314 215.937 239.314C216.054 239.314 216.188 239.329 216.341 239.358C216.493 239.382 216.599 239.408 216.657 239.438ZM219.786 241.521V249H218.16V239.49H219.698L219.786 241.521ZM219.399 243.885L218.723 243.858C218.729 243.208 218.825 242.607 219.013 242.057C219.2 241.5 219.464 241.017 219.804 240.606C220.144 240.196 220.548 239.88 221.017 239.657C221.491 239.429 222.016 239.314 222.59 239.314C223.059 239.314 223.48 239.379 223.855 239.508C224.23 239.631 224.55 239.83 224.813 240.105C225.083 240.381 225.288 240.738 225.429 241.178C225.569 241.611 225.64 242.142 225.64 242.769V249H224.005V242.751C224.005 242.253 223.932 241.854 223.785 241.556C223.639 241.251 223.425 241.031 223.144 240.896C222.862 240.756 222.517 240.686 222.106 240.686C221.702 240.686 221.333 240.771 220.999 240.94C220.671 241.11 220.387 241.345 220.146 241.644C219.912 241.942 219.728 242.285 219.593 242.672C219.464 243.053 219.399 243.457 219.399 243.885ZM233.717 247.374V242.479C233.717 242.104 233.641 241.778 233.488 241.503C233.342 241.222 233.119 241.005 232.82 240.853C232.521 240.7 232.152 240.624 231.713 240.624C231.303 240.624 230.942 240.694 230.632 240.835C230.327 240.976 230.087 241.16 229.911 241.389C229.741 241.617 229.656 241.863 229.656 242.127H228.03C228.03 241.787 228.118 241.45 228.294 241.116C228.47 240.782 228.722 240.48 229.05 240.211C229.384 239.936 229.782 239.719 230.245 239.561C230.714 239.396 231.235 239.314 231.81 239.314C232.501 239.314 233.11 239.432 233.638 239.666C234.171 239.9 234.587 240.255 234.886 240.729C235.19 241.198 235.343 241.787 235.343 242.496V246.926C235.343 247.242 235.369 247.579 235.422 247.937C235.48 248.294 235.565 248.602 235.677 248.859V249H233.98C233.898 248.812 233.834 248.563 233.787 248.253C233.74 247.937 233.717 247.644 233.717 247.374ZM233.998 243.234L234.016 244.377H232.372C231.909 244.377 231.496 244.415 231.133 244.491C230.77 244.562 230.465 244.67 230.219 244.816C229.973 244.963 229.785 245.147 229.656 245.37C229.527 245.587 229.463 245.842 229.463 246.135C229.463 246.434 229.53 246.706 229.665 246.952C229.8 247.198 230.002 247.395 230.271 247.541C230.547 247.682 230.884 247.752 231.282 247.752C231.78 247.752 232.22 247.646 232.601 247.436C232.981 247.225 233.283 246.967 233.506 246.662C233.734 246.357 233.857 246.062 233.875 245.774L234.569 246.557C234.528 246.803 234.417 247.075 234.235 247.374C234.054 247.673 233.811 247.96 233.506 248.235C233.207 248.505 232.85 248.73 232.434 248.912C232.023 249.088 231.561 249.176 231.045 249.176C230.4 249.176 229.835 249.05 229.349 248.798C228.868 248.546 228.493 248.209 228.224 247.787C227.96 247.359 227.828 246.882 227.828 246.354C227.828 245.845 227.928 245.396 228.127 245.01C228.326 244.617 228.613 244.292 228.988 244.034C229.363 243.771 229.814 243.571 230.342 243.437C230.869 243.302 231.458 243.234 232.108 243.234H233.998ZM239.526 241.521V249H237.9V239.49H239.438L239.526 241.521ZM239.14 243.885L238.463 243.858C238.469 243.208 238.565 242.607 238.753 242.057C238.94 241.5 239.204 241.017 239.544 240.606C239.884 240.196 240.288 239.88 240.757 239.657C241.231 239.429 241.756 239.314 242.33 239.314C242.799 239.314 243.221 239.379 243.596 239.508C243.971 239.631 244.29 239.83 244.554 240.105C244.823 240.381 245.028 240.738 245.169 241.178C245.31 241.611 245.38 242.142 245.38 242.769V249H243.745V242.751C243.745 242.253 243.672 241.854 243.525 241.556C243.379 241.251 243.165 241.031 242.884 240.896C242.603 240.756 242.257 240.686 241.847 240.686C241.442 240.686 241.073 240.771 240.739 240.94C240.411 241.11 240.127 241.345 239.887 241.644C239.652 241.942 239.468 242.285 239.333 242.672C239.204 243.053 239.14 243.457 239.14 243.885ZM251.655 247.84C252.042 247.84 252.399 247.761 252.728 247.603C253.056 247.444 253.325 247.228 253.536 246.952C253.747 246.671 253.867 246.352 253.896 245.994H255.443C255.414 246.557 255.224 247.081 254.872 247.567C254.526 248.048 254.072 248.438 253.51 248.736C252.947 249.029 252.329 249.176 251.655 249.176C250.94 249.176 250.316 249.05 249.783 248.798C249.256 248.546 248.816 248.2 248.465 247.761C248.119 247.321 247.858 246.817 247.683 246.249C247.513 245.675 247.428 245.068 247.428 244.43V244.061C247.428 243.422 247.513 242.818 247.683 242.25C247.858 241.676 248.119 241.169 248.465 240.729C248.816 240.29 249.256 239.944 249.783 239.692C250.316 239.44 250.94 239.314 251.655 239.314C252.399 239.314 253.05 239.467 253.606 239.771C254.163 240.07 254.6 240.48 254.916 241.002C255.238 241.518 255.414 242.104 255.443 242.76H253.896C253.867 242.367 253.756 242.013 253.562 241.696C253.375 241.38 253.117 241.128 252.789 240.94C252.467 240.747 252.089 240.65 251.655 240.65C251.157 240.65 250.738 240.75 250.398 240.949C250.064 241.143 249.798 241.406 249.599 241.74C249.405 242.068 249.265 242.435 249.177 242.839C249.095 243.237 249.054 243.645 249.054 244.061V244.43C249.054 244.846 249.095 245.256 249.177 245.66C249.259 246.064 249.396 246.431 249.59 246.759C249.789 247.087 250.056 247.351 250.39 247.55C250.729 247.743 251.151 247.84 251.655 247.84ZM261.218 249.176C260.556 249.176 259.955 249.064 259.416 248.842C258.883 248.613 258.423 248.294 258.036 247.884C257.655 247.474 257.362 246.987 257.157 246.425C256.952 245.862 256.85 245.247 256.85 244.579V244.21C256.85 243.437 256.964 242.748 257.192 242.145C257.421 241.535 257.731 241.02 258.124 240.598C258.517 240.176 258.962 239.856 259.46 239.64C259.958 239.423 260.474 239.314 261.007 239.314C261.687 239.314 262.272 239.432 262.765 239.666C263.263 239.9 263.67 240.229 263.986 240.65C264.303 241.066 264.537 241.559 264.689 242.127C264.842 242.689 264.918 243.305 264.918 243.973V244.702H257.816V243.375H263.292V243.252C263.269 242.83 263.181 242.42 263.028 242.021C262.882 241.623 262.647 241.295 262.325 241.037C262.003 240.779 261.563 240.65 261.007 240.65C260.638 240.65 260.298 240.729 259.987 240.888C259.677 241.04 259.41 241.269 259.188 241.573C258.965 241.878 258.792 242.25 258.669 242.689C258.546 243.129 258.484 243.636 258.484 244.21V244.579C258.484 245.03 258.546 245.455 258.669 245.854C258.798 246.246 258.982 246.592 259.223 246.891C259.469 247.189 259.765 247.424 260.11 247.594C260.462 247.764 260.86 247.849 261.306 247.849C261.88 247.849 262.366 247.731 262.765 247.497C263.163 247.263 263.512 246.949 263.811 246.557L264.795 247.339C264.59 247.649 264.329 247.945 264.013 248.227C263.696 248.508 263.307 248.736 262.844 248.912C262.387 249.088 261.845 249.176 261.218 249.176ZM276.889 247.374V242.479C276.889 242.104 276.812 241.778 276.66 241.503C276.514 241.222 276.291 241.005 275.992 240.853C275.693 240.7 275.324 240.624 274.885 240.624C274.475 240.624 274.114 240.694 273.804 240.835C273.499 240.976 273.259 241.16 273.083 241.389C272.913 241.617 272.828 241.863 272.828 242.127H271.202C271.202 241.787 271.29 241.45 271.466 241.116C271.642 240.782 271.894 240.48 272.222 240.211C272.556 239.936 272.954 239.719 273.417 239.561C273.886 239.396 274.407 239.314 274.981 239.314C275.673 239.314 276.282 239.432 276.81 239.666C277.343 239.9 277.759 240.255 278.058 240.729C278.362 241.198 278.515 241.787 278.515 242.496V246.926C278.515 247.242 278.541 247.579 278.594 247.937C278.652 248.294 278.737 248.602 278.849 248.859V249H277.152C277.07 248.812 277.006 248.563 276.959 248.253C276.912 247.937 276.889 247.644 276.889 247.374ZM277.17 243.234L277.188 244.377H275.544C275.081 244.377 274.668 244.415 274.305 244.491C273.941 244.562 273.637 244.67 273.391 244.816C273.145 244.963 272.957 245.147 272.828 245.37C272.699 245.587 272.635 245.842 272.635 246.135C272.635 246.434 272.702 246.706 272.837 246.952C272.972 247.198 273.174 247.395 273.443 247.541C273.719 247.682 274.056 247.752 274.454 247.752C274.952 247.752 275.392 247.646 275.772 247.436C276.153 247.225 276.455 246.967 276.678 246.662C276.906 246.357 277.029 246.062 277.047 245.774L277.741 246.557C277.7 246.803 277.589 247.075 277.407 247.374C277.226 247.673 276.982 247.96 276.678 248.235C276.379 248.505 276.021 248.73 275.605 248.912C275.195 249.088 274.732 249.176 274.217 249.176C273.572 249.176 273.007 249.05 272.521 248.798C272.04 248.546 271.665 248.209 271.396 247.787C271.132 247.359 271 246.882 271 246.354C271 245.845 271.1 245.396 271.299 245.01C271.498 244.617 271.785 244.292 272.16 244.034C272.535 243.771 272.986 243.571 273.514 243.437C274.041 243.302 274.63 243.234 275.28 243.234H277.17ZM282.839 235.5V249H281.204V235.5H282.839ZM287.216 239.49V249H285.581V239.49H287.216ZM285.458 236.968C285.458 236.704 285.537 236.481 285.695 236.3C285.859 236.118 286.1 236.027 286.416 236.027C286.727 236.027 286.964 236.118 287.128 236.3C287.298 236.481 287.383 236.704 287.383 236.968C287.383 237.22 287.298 237.437 287.128 237.618C286.964 237.794 286.727 237.882 286.416 237.882C286.1 237.882 285.859 237.794 285.695 237.618C285.537 237.437 285.458 237.22 285.458 236.968ZM295.987 239.49H297.464V248.798C297.464 249.636 297.294 250.351 296.954 250.942C296.614 251.534 296.14 251.982 295.53 252.287C294.927 252.598 294.229 252.753 293.438 252.753C293.11 252.753 292.724 252.7 292.278 252.595C291.839 252.495 291.405 252.322 290.978 252.076C290.556 251.836 290.201 251.511 289.914 251.101L290.767 250.134C291.165 250.614 291.581 250.948 292.015 251.136C292.454 251.323 292.888 251.417 293.315 251.417C293.831 251.417 294.276 251.32 294.651 251.127C295.026 250.934 295.316 250.646 295.521 250.266C295.732 249.891 295.838 249.428 295.838 248.877V241.582L295.987 239.49ZM289.439 244.351V244.166C289.439 243.439 289.524 242.78 289.694 242.188C289.87 241.591 290.119 241.078 290.441 240.65C290.77 240.223 291.165 239.895 291.628 239.666C292.091 239.432 292.612 239.314 293.192 239.314C293.79 239.314 294.312 239.42 294.757 239.631C295.208 239.836 295.589 240.138 295.899 240.536C296.216 240.929 296.465 241.403 296.646 241.96C296.828 242.517 296.954 243.146 297.024 243.85V244.658C296.96 245.355 296.834 245.982 296.646 246.539C296.465 247.096 296.216 247.57 295.899 247.963C295.589 248.355 295.208 248.657 294.757 248.868C294.306 249.073 293.778 249.176 293.175 249.176C292.606 249.176 292.091 249.056 291.628 248.815C291.171 248.575 290.778 248.238 290.45 247.805C290.122 247.371 289.87 246.861 289.694 246.275C289.524 245.684 289.439 245.042 289.439 244.351ZM291.065 244.166V244.351C291.065 244.825 291.112 245.271 291.206 245.687C291.306 246.103 291.455 246.469 291.654 246.785C291.859 247.102 292.12 247.351 292.437 247.532C292.753 247.708 293.131 247.796 293.57 247.796C294.109 247.796 294.555 247.682 294.906 247.453C295.258 247.225 295.536 246.923 295.741 246.548C295.952 246.173 296.116 245.766 296.233 245.326V243.208C296.169 242.886 296.069 242.575 295.935 242.276C295.806 241.972 295.636 241.702 295.425 241.468C295.22 241.228 294.965 241.037 294.66 240.896C294.355 240.756 293.998 240.686 293.588 240.686C293.143 240.686 292.759 240.779 292.437 240.967C292.12 241.148 291.859 241.4 291.654 241.723C291.455 242.039 291.306 242.408 291.206 242.83C291.112 243.246 291.065 243.691 291.065 244.166ZM301.56 241.521V249H299.934V239.49H301.472L301.56 241.521ZM301.173 243.885L300.496 243.858C300.502 243.208 300.599 242.607 300.786 242.057C300.974 241.5 301.237 241.017 301.577 240.606C301.917 240.196 302.321 239.88 302.79 239.657C303.265 239.429 303.789 239.314 304.363 239.314C304.832 239.314 305.254 239.379 305.629 239.508C306.004 239.631 306.323 239.83 306.587 240.105C306.856 240.381 307.062 240.738 307.202 241.178C307.343 241.611 307.413 242.142 307.413 242.769V249H305.778V242.751C305.778 242.253 305.705 241.854 305.559 241.556C305.412 241.251 305.198 241.031 304.917 240.896C304.636 240.756 304.29 240.686 303.88 240.686C303.476 240.686 303.106 240.771 302.772 240.94C302.444 241.11 302.16 241.345 301.92 241.644C301.686 241.942 301.501 242.285 301.366 242.672C301.237 243.053 301.173 243.457 301.173 243.885ZM315.42 246.478C315.42 246.243 315.367 246.026 315.262 245.827C315.162 245.622 314.954 245.438 314.638 245.273C314.327 245.104 313.858 244.957 313.231 244.834C312.704 244.723 312.227 244.591 311.799 244.438C311.377 244.286 311.017 244.102 310.718 243.885C310.425 243.668 310.199 243.413 310.041 243.12C309.883 242.827 309.804 242.484 309.804 242.092C309.804 241.717 309.886 241.362 310.05 241.028C310.22 240.694 310.457 240.398 310.762 240.141C311.072 239.883 311.444 239.681 311.878 239.534C312.312 239.388 312.795 239.314 313.328 239.314C314.09 239.314 314.74 239.449 315.279 239.719C315.818 239.988 316.231 240.349 316.519 240.8C316.806 241.245 316.949 241.74 316.949 242.285H315.323C315.323 242.021 315.244 241.767 315.086 241.521C314.934 241.269 314.708 241.061 314.409 240.896C314.116 240.732 313.756 240.65 313.328 240.65C312.877 240.65 312.511 240.721 312.229 240.861C311.954 240.996 311.752 241.169 311.623 241.38C311.5 241.591 311.438 241.813 311.438 242.048C311.438 242.224 311.468 242.382 311.526 242.522C311.591 242.657 311.702 242.783 311.86 242.9C312.019 243.012 312.241 243.117 312.528 243.217C312.815 243.316 313.182 243.416 313.627 243.516C314.406 243.691 315.048 243.902 315.552 244.148C316.056 244.395 316.431 244.696 316.677 245.054C316.923 245.411 317.046 245.845 317.046 246.354C317.046 246.771 316.958 247.151 316.782 247.497C316.612 247.843 316.363 248.142 316.035 248.394C315.713 248.64 315.326 248.833 314.875 248.974C314.43 249.108 313.929 249.176 313.372 249.176C312.534 249.176 311.825 249.026 311.245 248.728C310.665 248.429 310.226 248.042 309.927 247.567C309.628 247.093 309.479 246.592 309.479 246.064H311.113C311.137 246.51 311.266 246.864 311.5 247.128C311.734 247.386 312.021 247.57 312.361 247.682C312.701 247.787 313.038 247.84 313.372 247.84C313.817 247.84 314.189 247.781 314.488 247.664C314.793 247.547 315.024 247.386 315.183 247.181C315.341 246.976 315.42 246.741 315.42 246.478ZM327.593 249.176C326.931 249.176 326.33 249.064 325.791 248.842C325.258 248.613 324.798 248.294 324.411 247.884C324.03 247.474 323.737 246.987 323.532 246.425C323.327 245.862 323.225 245.247 323.225 244.579V244.21C323.225 243.437 323.339 242.748 323.567 242.145C323.796 241.535 324.106 241.02 324.499 240.598C324.892 240.176 325.337 239.856 325.835 239.64C326.333 239.423 326.849 239.314 327.382 239.314C328.062 239.314 328.647 239.432 329.14 239.666C329.638 239.9 330.045 240.229 330.361 240.65C330.678 241.066 330.912 241.559 331.064 242.127C331.217 242.689 331.293 243.305 331.293 243.973V244.702H324.191V243.375H329.667V243.252C329.644 242.83 329.556 242.42 329.403 242.021C329.257 241.623 329.022 241.295 328.7 241.037C328.378 240.779 327.938 240.65 327.382 240.65C327.013 240.65 326.673 240.729 326.362 240.888C326.052 241.04 325.785 241.269 325.562 241.573C325.34 241.878 325.167 242.25 325.044 242.689C324.921 243.129 324.859 243.636 324.859 244.21V244.579C324.859 245.03 324.921 245.455 325.044 245.854C325.173 246.246 325.357 246.592 325.598 246.891C325.844 247.189 326.14 247.424 326.485 247.594C326.837 247.764 327.235 247.849 327.681 247.849C328.255 247.849 328.741 247.731 329.14 247.497C329.538 247.263 329.887 246.949 330.186 246.557L331.17 247.339C330.965 247.649 330.704 247.945 330.388 248.227C330.071 248.508 329.682 248.736 329.219 248.912C328.762 249.088 328.22 249.176 327.593 249.176ZM334.809 241.38V249H333.174V239.49H334.721L334.809 241.38ZM334.475 243.885L333.719 243.858C333.725 243.208 333.81 242.607 333.974 242.057C334.138 241.5 334.381 241.017 334.703 240.606C335.025 240.196 335.427 239.88 335.907 239.657C336.388 239.429 336.944 239.314 337.577 239.314C338.022 239.314 338.433 239.379 338.808 239.508C339.183 239.631 339.508 239.827 339.783 240.097C340.059 240.366 340.272 240.712 340.425 241.134C340.577 241.556 340.653 242.065 340.653 242.663V249H339.027V242.742C339.027 242.244 338.942 241.846 338.772 241.547C338.608 241.248 338.374 241.031 338.069 240.896C337.765 240.756 337.407 240.686 336.997 240.686C336.517 240.686 336.115 240.771 335.793 240.94C335.471 241.11 335.213 241.345 335.02 241.644C334.826 241.942 334.686 242.285 334.598 242.672C334.516 243.053 334.475 243.457 334.475 243.885ZM340.636 242.988L339.546 243.322C339.552 242.801 339.637 242.3 339.801 241.819C339.971 241.339 340.214 240.911 340.53 240.536C340.853 240.161 341.248 239.865 341.717 239.648C342.186 239.426 342.722 239.314 343.325 239.314C343.835 239.314 344.286 239.382 344.679 239.517C345.077 239.651 345.411 239.859 345.681 240.141C345.956 240.416 346.164 240.771 346.305 241.204C346.445 241.638 346.516 242.153 346.516 242.751V249H344.881V242.733C344.881 242.2 344.796 241.787 344.626 241.494C344.462 241.195 344.228 240.987 343.923 240.87C343.624 240.747 343.267 240.686 342.851 240.686C342.493 240.686 342.177 240.747 341.901 240.87C341.626 240.993 341.395 241.163 341.207 241.38C341.02 241.591 340.876 241.834 340.776 242.109C340.683 242.385 340.636 242.678 340.636 242.988ZM350.603 241.318V252.656H348.968V239.49H350.462L350.603 241.318ZM357.01 244.166V244.351C357.01 245.042 356.928 245.684 356.764 246.275C356.6 246.861 356.359 247.371 356.043 247.805C355.732 248.238 355.349 248.575 354.892 248.815C354.435 249.056 353.91 249.176 353.318 249.176C352.715 249.176 352.182 249.076 351.719 248.877C351.256 248.678 350.863 248.388 350.541 248.007C350.219 247.626 349.961 247.169 349.768 246.636C349.58 246.103 349.451 245.502 349.381 244.834V243.85C349.451 243.146 349.583 242.517 349.776 241.96C349.97 241.403 350.225 240.929 350.541 240.536C350.863 240.138 351.253 239.836 351.71 239.631C352.167 239.42 352.694 239.314 353.292 239.314C353.89 239.314 354.42 239.432 354.883 239.666C355.346 239.895 355.735 240.223 356.052 240.65C356.368 241.078 356.605 241.591 356.764 242.188C356.928 242.78 357.01 243.439 357.01 244.166ZM355.375 244.351V244.166C355.375 243.691 355.325 243.246 355.226 242.83C355.126 242.408 354.971 242.039 354.76 241.723C354.555 241.4 354.291 241.148 353.969 240.967C353.646 240.779 353.263 240.686 352.817 240.686C352.407 240.686 352.05 240.756 351.745 240.896C351.446 241.037 351.191 241.228 350.98 241.468C350.77 241.702 350.597 241.972 350.462 242.276C350.333 242.575 350.236 242.886 350.172 243.208V245.484C350.289 245.895 350.453 246.281 350.664 246.645C350.875 247.002 351.156 247.292 351.508 247.515C351.859 247.731 352.302 247.84 352.835 247.84C353.274 247.84 353.652 247.749 353.969 247.567C354.291 247.38 354.555 247.125 354.76 246.803C354.971 246.48 355.126 246.111 355.226 245.695C355.325 245.273 355.375 244.825 355.375 244.351ZM360.851 235.5V249H359.216V235.5H360.851ZM363.03 244.351V244.148C363.03 243.463 363.13 242.827 363.329 242.241C363.528 241.649 363.815 241.137 364.19 240.703C364.565 240.264 365.02 239.924 365.553 239.684C366.086 239.438 366.684 239.314 367.346 239.314C368.014 239.314 368.614 239.438 369.147 239.684C369.687 239.924 370.144 240.264 370.519 240.703C370.899 241.137 371.189 241.649 371.389 242.241C371.588 242.827 371.688 243.463 371.688 244.148V244.351C371.688 245.036 371.588 245.672 371.389 246.258C371.189 246.844 370.899 247.356 370.519 247.796C370.144 248.229 369.689 248.569 369.156 248.815C368.629 249.056 368.031 249.176 367.363 249.176C366.695 249.176 366.095 249.056 365.562 248.815C365.028 248.569 364.571 248.229 364.19 247.796C363.815 247.356 363.528 246.844 363.329 246.258C363.13 245.672 363.03 245.036 363.03 244.351ZM364.656 244.148V244.351C364.656 244.825 364.712 245.273 364.823 245.695C364.935 246.111 365.102 246.48 365.324 246.803C365.553 247.125 365.837 247.38 366.177 247.567C366.517 247.749 366.912 247.84 367.363 247.84C367.809 247.84 368.198 247.749 368.532 247.567C368.872 247.38 369.153 247.125 369.376 246.803C369.599 246.48 369.766 246.111 369.877 245.695C369.994 245.273 370.053 244.825 370.053 244.351V244.148C370.053 243.68 369.994 243.237 369.877 242.821C369.766 242.399 369.596 242.027 369.367 241.705C369.145 241.377 368.863 241.119 368.523 240.932C368.189 240.744 367.797 240.65 367.346 240.65C366.9 240.65 366.508 240.744 366.168 240.932C365.834 241.119 365.553 241.377 365.324 241.705C365.102 242.027 364.935 242.399 364.823 242.821C364.712 243.237 364.656 243.68 364.656 244.148ZM376.258 248.016L378.903 239.49H380.644L376.829 250.468C376.741 250.702 376.624 250.954 376.478 251.224C376.337 251.499 376.155 251.76 375.933 252.006C375.71 252.252 375.44 252.451 375.124 252.604C374.813 252.762 374.441 252.841 374.008 252.841C373.879 252.841 373.715 252.823 373.516 252.788C373.316 252.753 373.176 252.724 373.094 252.7L373.085 251.382C373.132 251.388 373.205 251.394 373.305 251.399C373.41 251.411 373.483 251.417 373.524 251.417C373.894 251.417 374.207 251.367 374.465 251.268C374.723 251.174 374.939 251.013 375.115 250.784C375.297 250.562 375.452 250.254 375.581 249.861L376.258 248.016ZM374.315 239.49L376.785 246.873L377.207 248.587L376.038 249.185L372.54 239.49H374.315ZM385.935 249.176C385.272 249.176 384.672 249.064 384.133 248.842C383.6 248.613 383.14 248.294 382.753 247.884C382.372 247.474 382.079 246.987 381.874 246.425C381.669 245.862 381.566 245.247 381.566 244.579V244.21C381.566 243.437 381.681 242.748 381.909 242.145C382.138 241.535 382.448 241.02 382.841 240.598C383.233 240.176 383.679 239.856 384.177 239.64C384.675 239.423 385.19 239.314 385.724 239.314C386.403 239.314 386.989 239.432 387.481 239.666C387.979 239.9 388.387 240.229 388.703 240.65C389.02 241.066 389.254 241.559 389.406 242.127C389.559 242.689 389.635 243.305 389.635 243.973V244.702H382.533V243.375H388.009V243.252C387.985 242.83 387.897 242.42 387.745 242.021C387.599 241.623 387.364 241.295 387.042 241.037C386.72 240.779 386.28 240.65 385.724 240.65C385.354 240.65 385.015 240.729 384.704 240.888C384.394 241.04 384.127 241.269 383.904 241.573C383.682 241.878 383.509 242.25 383.386 242.689C383.263 243.129 383.201 243.636 383.201 244.21V244.579C383.201 245.03 383.263 245.455 383.386 245.854C383.515 246.246 383.699 246.592 383.939 246.891C384.186 247.189 384.481 247.424 384.827 247.594C385.179 247.764 385.577 247.849 386.022 247.849C386.597 247.849 387.083 247.731 387.481 247.497C387.88 247.263 388.229 246.949 388.527 246.557L389.512 247.339C389.307 247.649 389.046 247.945 388.729 248.227C388.413 248.508 388.023 248.736 387.561 248.912C387.104 249.088 386.562 249.176 385.935 249.176ZM395.479 249.176C394.817 249.176 394.217 249.064 393.678 248.842C393.145 248.613 392.685 248.294 392.298 247.884C391.917 247.474 391.624 246.987 391.419 246.425C391.214 245.862 391.111 245.247 391.111 244.579V244.21C391.111 243.437 391.226 242.748 391.454 242.145C391.683 241.535 391.993 241.02 392.386 240.598C392.778 240.176 393.224 239.856 393.722 239.64C394.22 239.423 394.735 239.314 395.269 239.314C395.948 239.314 396.534 239.432 397.026 239.666C397.524 239.9 397.932 240.229 398.248 240.65C398.564 241.066 398.799 241.559 398.951 242.127C399.104 242.689 399.18 243.305 399.18 243.973V244.702H392.078V243.375H397.554V243.252C397.53 242.83 397.442 242.42 397.29 242.021C397.144 241.623 396.909 241.295 396.587 241.037C396.265 240.779 395.825 240.65 395.269 240.65C394.899 240.65 394.56 240.729 394.249 240.888C393.938 241.04 393.672 241.269 393.449 241.573C393.227 241.878 393.054 242.25 392.931 242.689C392.808 243.129 392.746 243.636 392.746 244.21V244.579C392.746 245.03 392.808 245.455 392.931 245.854C393.06 246.246 393.244 246.592 393.484 246.891C393.73 247.189 394.026 247.424 394.372 247.594C394.724 247.764 395.122 247.849 395.567 247.849C396.142 247.849 396.628 247.731 397.026 247.497C397.425 247.263 397.773 246.949 398.072 246.557L399.057 247.339C398.852 247.649 398.591 247.945 398.274 248.227C397.958 248.508 397.568 248.736 397.105 248.912C396.648 249.088 396.106 249.176 395.479 249.176ZM406.615 246.478C406.615 246.243 406.562 246.026 406.457 245.827C406.357 245.622 406.149 245.438 405.833 245.273C405.522 245.104 405.054 244.957 404.427 244.834C403.899 244.723 403.422 244.591 402.994 244.438C402.572 244.286 402.212 244.102 401.913 243.885C401.62 243.668 401.395 243.413 401.236 243.12C401.078 242.827 400.999 242.484 400.999 242.092C400.999 241.717 401.081 241.362 401.245 241.028C401.415 240.694 401.652 240.398 401.957 240.141C402.268 239.883 402.64 239.681 403.073 239.534C403.507 239.388 403.99 239.314 404.523 239.314C405.285 239.314 405.936 239.449 406.475 239.719C407.014 239.988 407.427 240.349 407.714 240.8C408.001 241.245 408.145 241.74 408.145 242.285H406.519C406.519 242.021 406.439 241.767 406.281 241.521C406.129 241.269 405.903 241.061 405.604 240.896C405.312 240.732 404.951 240.65 404.523 240.65C404.072 240.65 403.706 240.721 403.425 240.861C403.149 240.996 402.947 241.169 402.818 241.38C402.695 241.591 402.634 241.813 402.634 242.048C402.634 242.224 402.663 242.382 402.722 242.522C402.786 242.657 402.897 242.783 403.056 242.9C403.214 243.012 403.437 243.117 403.724 243.217C404.011 243.316 404.377 243.416 404.822 243.516C405.602 243.691 406.243 243.902 406.747 244.148C407.251 244.395 407.626 244.696 407.872 245.054C408.118 245.411 408.241 245.845 408.241 246.354C408.241 246.771 408.153 247.151 407.978 247.497C407.808 247.843 407.559 248.142 407.23 248.394C406.908 248.64 406.521 248.833 406.07 248.974C405.625 249.108 405.124 249.176 404.567 249.176C403.729 249.176 403.021 249.026 402.44 248.728C401.86 248.429 401.421 248.042 401.122 247.567C400.823 247.093 400.674 246.592 400.674 246.064H402.309C402.332 246.51 402.461 246.864 402.695 247.128C402.93 247.386 403.217 247.57 403.557 247.682C403.896 247.787 404.233 247.84 404.567 247.84C405.013 247.84 405.385 247.781 405.684 247.664C405.988 247.547 406.22 247.386 406.378 247.181C406.536 246.976 406.615 246.741 406.615 246.478ZM62.5498 273.312L64.9932 265.49H66.0654L65.8545 267.046L63.3672 275H62.3213L62.5498 273.312ZM60.9062 265.49L62.9893 273.4L63.1387 275H62.04L59.2803 265.49H60.9062ZM68.4033 273.339L70.3896 265.49H72.0068L69.2471 275H68.1572L68.4033 273.339ZM66.3027 265.49L68.6934 273.181L68.9658 275H67.9287L65.3711 267.028L65.1602 265.49H66.3027ZM75.4434 265.49V275H73.8086V265.49H75.4434ZM73.6855 262.968C73.6855 262.704 73.7646 262.481 73.9229 262.3C74.0869 262.118 74.3271 262.027 74.6436 262.027C74.9541 262.027 75.1914 262.118 75.3555 262.3C75.5254 262.481 75.6104 262.704 75.6104 262.968C75.6104 263.22 75.5254 263.437 75.3555 263.618C75.1914 263.794 74.9541 263.882 74.6436 263.882C74.3271 263.882 74.0869 263.794 73.9229 263.618C73.7646 263.437 73.6855 263.22 73.6855 262.968ZM82.0352 265.49V266.738H76.8936V265.49H82.0352ZM78.6338 263.179H80.2598V272.645C80.2598 272.967 80.3096 273.21 80.4092 273.374C80.5088 273.538 80.6377 273.646 80.7959 273.699C80.9541 273.752 81.124 273.778 81.3057 273.778C81.4404 273.778 81.5811 273.767 81.7275 273.743C81.8799 273.714 81.9941 273.69 82.0703 273.673L82.0791 275C81.9502 275.041 81.7803 275.079 81.5693 275.114C81.3643 275.155 81.1152 275.176 80.8223 275.176C80.4238 275.176 80.0576 275.097 79.7236 274.938C79.3896 274.78 79.123 274.517 78.9238 274.147C78.7305 273.772 78.6338 273.269 78.6338 272.636V263.179ZM85.5684 261.5V275H83.9424V261.5H85.5684ZM85.1816 269.885L84.5049 269.858C84.5107 269.208 84.6074 268.607 84.7949 268.057C84.9824 267.5 85.2461 267.017 85.5859 266.606C85.9258 266.196 86.3301 265.88 86.7988 265.657C87.2734 265.429 87.7979 265.314 88.3721 265.314C88.8408 265.314 89.2627 265.379 89.6377 265.508C90.0127 265.631 90.332 265.83 90.5957 266.105C90.8652 266.381 91.0703 266.738 91.2109 267.178C91.3516 267.611 91.4219 268.142 91.4219 268.769V275H89.7871V268.751C89.7871 268.253 89.7139 267.854 89.5674 267.556C89.4209 267.251 89.207 267.031 88.9258 266.896C88.6445 266.756 88.2988 266.686 87.8887 266.686C87.4844 266.686 87.1152 266.771 86.7812 266.94C86.4531 267.11 86.1689 267.345 85.9287 267.644C85.6943 267.942 85.5098 268.285 85.375 268.672C85.2461 269.053 85.1816 269.457 85.1816 269.885ZM102.303 265.49V266.738H97.1611V265.49H102.303ZM98.9014 263.179H100.527V272.645C100.527 272.967 100.577 273.21 100.677 273.374C100.776 273.538 100.905 273.646 101.063 273.699C101.222 273.752 101.392 273.778 101.573 273.778C101.708 273.778 101.849 273.767 101.995 273.743C102.147 273.714 102.262 273.69 102.338 273.673L102.347 275C102.218 275.041 102.048 275.079 101.837 275.114C101.632 275.155 101.383 275.176 101.09 275.176C100.691 275.176 100.325 275.097 99.9912 274.938C99.6572 274.78 99.3906 274.517 99.1914 274.147C98.998 273.772 98.9014 273.269 98.9014 272.636V263.179ZM105.836 261.5V275H104.21V261.5H105.836ZM105.449 269.885L104.772 269.858C104.778 269.208 104.875 268.607 105.062 268.057C105.25 267.5 105.514 267.017 105.854 266.606C106.193 266.196 106.598 265.88 107.066 265.657C107.541 265.429 108.065 265.314 108.64 265.314C109.108 265.314 109.53 265.379 109.905 265.508C110.28 265.631 110.6 265.83 110.863 266.105C111.133 266.381 111.338 266.738 111.479 267.178C111.619 267.611 111.689 268.142 111.689 268.769V275H110.055V268.751C110.055 268.253 109.981 267.854 109.835 267.556C109.688 267.251 109.475 267.031 109.193 266.896C108.912 266.756 108.566 266.686 108.156 266.686C107.752 266.686 107.383 266.771 107.049 266.94C106.721 267.11 106.437 267.345 106.196 267.644C105.962 267.942 105.777 268.285 105.643 268.672C105.514 269.053 105.449 269.457 105.449 269.885ZM118.07 275.176C117.408 275.176 116.808 275.064 116.269 274.842C115.735 274.613 115.275 274.294 114.889 273.884C114.508 273.474 114.215 272.987 114.01 272.425C113.805 271.862 113.702 271.247 113.702 270.579V270.21C113.702 269.437 113.816 268.748 114.045 268.145C114.273 267.535 114.584 267.02 114.977 266.598C115.369 266.176 115.814 265.856 116.312 265.64C116.811 265.423 117.326 265.314 117.859 265.314C118.539 265.314 119.125 265.432 119.617 265.666C120.115 265.9 120.522 266.229 120.839 266.65C121.155 267.066 121.39 267.559 121.542 268.127C121.694 268.689 121.771 269.305 121.771 269.973V270.702H114.669V269.375H120.145V269.252C120.121 268.83 120.033 268.42 119.881 268.021C119.734 267.623 119.5 267.295 119.178 267.037C118.855 266.779 118.416 266.65 117.859 266.65C117.49 266.65 117.15 266.729 116.84 266.888C116.529 267.04 116.263 267.269 116.04 267.573C115.817 267.878 115.645 268.25 115.521 268.689C115.398 269.129 115.337 269.636 115.337 270.21V270.579C115.337 271.03 115.398 271.455 115.521 271.854C115.65 272.246 115.835 272.592 116.075 272.891C116.321 273.189 116.617 273.424 116.963 273.594C117.314 273.764 117.713 273.849 118.158 273.849C118.732 273.849 119.219 273.731 119.617 273.497C120.016 273.263 120.364 272.949 120.663 272.557L121.647 273.339C121.442 273.649 121.182 273.945 120.865 274.227C120.549 274.508 120.159 274.736 119.696 274.912C119.239 275.088 118.697 275.176 118.07 275.176ZM127.703 270.351V270.148C127.703 269.463 127.803 268.827 128.002 268.241C128.201 267.649 128.488 267.137 128.863 266.703C129.238 266.264 129.692 265.924 130.226 265.684C130.759 265.438 131.356 265.314 132.019 265.314C132.687 265.314 133.287 265.438 133.82 265.684C134.359 265.924 134.816 266.264 135.191 266.703C135.572 267.137 135.862 267.649 136.062 268.241C136.261 268.827 136.36 269.463 136.36 270.148V270.351C136.36 271.036 136.261 271.672 136.062 272.258C135.862 272.844 135.572 273.356 135.191 273.796C134.816 274.229 134.362 274.569 133.829 274.815C133.302 275.056 132.704 275.176 132.036 275.176C131.368 275.176 130.768 275.056 130.234 274.815C129.701 274.569 129.244 274.229 128.863 273.796C128.488 273.356 128.201 272.844 128.002 272.258C127.803 271.672 127.703 271.036 127.703 270.351ZM129.329 270.148V270.351C129.329 270.825 129.385 271.273 129.496 271.695C129.607 272.111 129.774 272.48 129.997 272.803C130.226 273.125 130.51 273.38 130.85 273.567C131.189 273.749 131.585 273.84 132.036 273.84C132.481 273.84 132.871 273.749 133.205 273.567C133.545 273.38 133.826 273.125 134.049 272.803C134.271 272.48 134.438 272.111 134.55 271.695C134.667 271.273 134.726 270.825 134.726 270.351V270.148C134.726 269.68 134.667 269.237 134.55 268.821C134.438 268.399 134.269 268.027 134.04 267.705C133.817 267.377 133.536 267.119 133.196 266.932C132.862 266.744 132.47 266.65 132.019 266.65C131.573 266.65 131.181 266.744 130.841 266.932C130.507 267.119 130.226 267.377 129.997 267.705C129.774 268.027 129.607 268.399 129.496 268.821C129.385 269.237 129.329 269.68 129.329 270.148ZM140.025 266.984V275H138.399V265.49H139.981L140.025 266.984ZM142.996 265.438L142.987 266.949C142.853 266.92 142.724 266.902 142.601 266.896C142.483 266.885 142.349 266.879 142.196 266.879C141.821 266.879 141.49 266.938 141.203 267.055C140.916 267.172 140.673 267.336 140.474 267.547C140.274 267.758 140.116 268.01 139.999 268.303C139.888 268.59 139.814 268.906 139.779 269.252L139.322 269.516C139.322 268.941 139.378 268.402 139.489 267.898C139.606 267.395 139.785 266.949 140.025 266.562C140.266 266.17 140.57 265.865 140.939 265.648C141.314 265.426 141.76 265.314 142.275 265.314C142.393 265.314 142.527 265.329 142.68 265.358C142.832 265.382 142.938 265.408 142.996 265.438ZM150.484 265.49H151.961V274.798C151.961 275.636 151.791 276.351 151.451 276.942C151.111 277.534 150.637 277.982 150.027 278.287C149.424 278.598 148.727 278.753 147.936 278.753C147.607 278.753 147.221 278.7 146.775 278.595C146.336 278.495 145.902 278.322 145.475 278.076C145.053 277.836 144.698 277.511 144.411 277.101L145.264 276.134C145.662 276.614 146.078 276.948 146.512 277.136C146.951 277.323 147.385 277.417 147.812 277.417C148.328 277.417 148.773 277.32 149.148 277.127C149.523 276.934 149.813 276.646 150.019 276.266C150.229 275.891 150.335 275.428 150.335 274.877V267.582L150.484 265.49ZM143.937 270.351V270.166C143.937 269.439 144.021 268.78 144.191 268.188C144.367 267.591 144.616 267.078 144.938 266.65C145.267 266.223 145.662 265.895 146.125 265.666C146.588 265.432 147.109 265.314 147.689 265.314C148.287 265.314 148.809 265.42 149.254 265.631C149.705 265.836 150.086 266.138 150.396 266.536C150.713 266.929 150.962 267.403 151.144 267.96C151.325 268.517 151.451 269.146 151.521 269.85V270.658C151.457 271.355 151.331 271.982 151.144 272.539C150.962 273.096 150.713 273.57 150.396 273.963C150.086 274.355 149.705 274.657 149.254 274.868C148.803 275.073 148.275 275.176 147.672 275.176C147.104 275.176 146.588 275.056 146.125 274.815C145.668 274.575 145.275 274.238 144.947 273.805C144.619 273.371 144.367 272.861 144.191 272.275C144.021 271.684 143.937 271.042 143.937 270.351ZM145.562 270.166V270.351C145.562 270.825 145.609 271.271 145.703 271.687C145.803 272.103 145.952 272.469 146.151 272.785C146.356 273.102 146.617 273.351 146.934 273.532C147.25 273.708 147.628 273.796 148.067 273.796C148.606 273.796 149.052 273.682 149.403 273.453C149.755 273.225 150.033 272.923 150.238 272.548C150.449 272.173 150.613 271.766 150.73 271.326V269.208C150.666 268.886 150.566 268.575 150.432 268.276C150.303 267.972 150.133 267.702 149.922 267.468C149.717 267.228 149.462 267.037 149.157 266.896C148.853 266.756 148.495 266.686 148.085 266.686C147.64 266.686 147.256 266.779 146.934 266.967C146.617 267.148 146.356 267.4 146.151 267.723C145.952 268.039 145.803 268.408 145.703 268.83C145.609 269.246 145.562 269.691 145.562 270.166ZM160.038 273.374V268.479C160.038 268.104 159.962 267.778 159.81 267.503C159.663 267.222 159.44 267.005 159.142 266.853C158.843 266.7 158.474 266.624 158.034 266.624C157.624 266.624 157.264 266.694 156.953 266.835C156.648 266.976 156.408 267.16 156.232 267.389C156.062 267.617 155.978 267.863 155.978 268.127H154.352C154.352 267.787 154.439 267.45 154.615 267.116C154.791 266.782 155.043 266.48 155.371 266.211C155.705 265.936 156.104 265.719 156.566 265.561C157.035 265.396 157.557 265.314 158.131 265.314C158.822 265.314 159.432 265.432 159.959 265.666C160.492 265.9 160.908 266.255 161.207 266.729C161.512 267.198 161.664 267.787 161.664 268.496V272.926C161.664 273.242 161.69 273.579 161.743 273.937C161.802 274.294 161.887 274.602 161.998 274.859V275H160.302C160.22 274.812 160.155 274.563 160.108 274.253C160.062 273.937 160.038 273.644 160.038 273.374ZM160.319 269.234L160.337 270.377H158.693C158.23 270.377 157.817 270.415 157.454 270.491C157.091 270.562 156.786 270.67 156.54 270.816C156.294 270.963 156.106 271.147 155.978 271.37C155.849 271.587 155.784 271.842 155.784 272.135C155.784 272.434 155.852 272.706 155.986 272.952C156.121 273.198 156.323 273.395 156.593 273.541C156.868 273.682 157.205 273.752 157.604 273.752C158.102 273.752 158.541 273.646 158.922 273.436C159.303 273.225 159.604 272.967 159.827 272.662C160.056 272.357 160.179 272.062 160.196 271.774L160.891 272.557C160.85 272.803 160.738 273.075 160.557 273.374C160.375 273.673 160.132 273.96 159.827 274.235C159.528 274.505 159.171 274.73 158.755 274.912C158.345 275.088 157.882 275.176 157.366 275.176C156.722 275.176 156.156 275.05 155.67 274.798C155.189 274.546 154.814 274.209 154.545 273.787C154.281 273.359 154.149 272.882 154.149 272.354C154.149 271.845 154.249 271.396 154.448 271.01C154.647 270.617 154.935 270.292 155.31 270.034C155.685 269.771 156.136 269.571 156.663 269.437C157.19 269.302 157.779 269.234 158.43 269.234H160.319ZM165.848 267.521V275H164.222V265.49H165.76L165.848 267.521ZM165.461 269.885L164.784 269.858C164.79 269.208 164.887 268.607 165.074 268.057C165.262 267.5 165.525 267.017 165.865 266.606C166.205 266.196 166.609 265.88 167.078 265.657C167.553 265.429 168.077 265.314 168.651 265.314C169.12 265.314 169.542 265.379 169.917 265.508C170.292 265.631 170.611 265.83 170.875 266.105C171.145 266.381 171.35 266.738 171.49 267.178C171.631 267.611 171.701 268.142 171.701 268.769V275H170.066V268.751C170.066 268.253 169.993 267.854 169.847 267.556C169.7 267.251 169.486 267.031 169.205 266.896C168.924 266.756 168.578 266.686 168.168 266.686C167.764 266.686 167.395 266.771 167.061 266.94C166.732 267.11 166.448 267.345 166.208 267.644C165.974 267.942 165.789 268.285 165.654 268.672C165.525 269.053 165.461 269.457 165.461 269.885ZM175.938 265.49V275H174.303V265.49H175.938ZM174.18 262.968C174.18 262.704 174.259 262.481 174.417 262.3C174.581 262.118 174.821 262.027 175.138 262.027C175.448 262.027 175.686 262.118 175.85 262.3C176.02 262.481 176.104 262.704 176.104 262.968C176.104 263.22 176.02 263.437 175.85 263.618C175.686 263.794 175.448 263.882 175.138 263.882C174.821 263.882 174.581 263.794 174.417 263.618C174.259 263.437 174.18 263.22 174.18 262.968ZM185.632 273.664V275H178.715V273.664H185.632ZM185.377 266.642L179.084 275H178.091V273.805L184.34 265.49H185.377V266.642ZM184.656 265.49V266.835H178.161V265.49H184.656ZM193.085 273.374V268.479C193.085 268.104 193.009 267.778 192.856 267.503C192.71 267.222 192.487 267.005 192.188 266.853C191.89 266.7 191.521 266.624 191.081 266.624C190.671 266.624 190.311 266.694 190 266.835C189.695 266.976 189.455 267.16 189.279 267.389C189.109 267.617 189.024 267.863 189.024 268.127H187.398C187.398 267.787 187.486 267.45 187.662 267.116C187.838 266.782 188.09 266.48 188.418 266.211C188.752 265.936 189.15 265.719 189.613 265.561C190.082 265.396 190.604 265.314 191.178 265.314C191.869 265.314 192.479 265.432 193.006 265.666C193.539 265.9 193.955 266.255 194.254 266.729C194.559 267.198 194.711 267.787 194.711 268.496V272.926C194.711 273.242 194.737 273.579 194.79 273.937C194.849 274.294 194.934 274.602 195.045 274.859V275H193.349C193.267 274.812 193.202 274.563 193.155 274.253C193.108 273.937 193.085 273.644 193.085 273.374ZM193.366 269.234L193.384 270.377H191.74C191.277 270.377 190.864 270.415 190.501 270.491C190.138 270.562 189.833 270.67 189.587 270.816C189.341 270.963 189.153 271.147 189.024 271.37C188.896 271.587 188.831 271.842 188.831 272.135C188.831 272.434 188.898 272.706 189.033 272.952C189.168 273.198 189.37 273.395 189.64 273.541C189.915 273.682 190.252 273.752 190.65 273.752C191.148 273.752 191.588 273.646 191.969 273.436C192.35 273.225 192.651 272.967 192.874 272.662C193.103 272.357 193.226 272.062 193.243 271.774L193.938 272.557C193.896 272.803 193.785 273.075 193.604 273.374C193.422 273.673 193.179 273.96 192.874 274.235C192.575 274.505 192.218 274.73 191.802 274.912C191.392 275.088 190.929 275.176 190.413 275.176C189.769 275.176 189.203 275.05 188.717 274.798C188.236 274.546 187.861 274.209 187.592 273.787C187.328 273.359 187.196 272.882 187.196 272.354C187.196 271.845 187.296 271.396 187.495 271.01C187.694 270.617 187.981 270.292 188.356 270.034C188.731 269.771 189.183 269.571 189.71 269.437C190.237 269.302 190.826 269.234 191.477 269.234H193.366ZM201.25 265.49V266.738H196.108V265.49H201.25ZM197.849 263.179H199.475V272.645C199.475 272.967 199.524 273.21 199.624 273.374C199.724 273.538 199.853 273.646 200.011 273.699C200.169 273.752 200.339 273.778 200.521 273.778C200.655 273.778 200.796 273.767 200.942 273.743C201.095 273.714 201.209 273.69 201.285 273.673L201.294 275C201.165 275.041 200.995 275.079 200.784 275.114C200.579 275.155 200.33 275.176 200.037 275.176C199.639 275.176 199.272 275.097 198.938 274.938C198.604 274.78 198.338 274.517 198.139 274.147C197.945 273.772 197.849 273.269 197.849 272.636V263.179ZM204.924 265.49V275H203.289V265.49H204.924ZM203.166 262.968C203.166 262.704 203.245 262.481 203.403 262.3C203.567 262.118 203.808 262.027 204.124 262.027C204.435 262.027 204.672 262.118 204.836 262.3C205.006 262.481 205.091 262.704 205.091 262.968C205.091 263.22 205.006 263.437 204.836 263.618C204.672 263.794 204.435 263.882 204.124 263.882C203.808 263.882 203.567 263.794 203.403 263.618C203.245 263.437 203.166 263.22 203.166 262.968ZM207.104 270.351V270.148C207.104 269.463 207.203 268.827 207.402 268.241C207.602 267.649 207.889 267.137 208.264 266.703C208.639 266.264 209.093 265.924 209.626 265.684C210.159 265.438 210.757 265.314 211.419 265.314C212.087 265.314 212.688 265.438 213.221 265.684C213.76 265.924 214.217 266.264 214.592 266.703C214.973 267.137 215.263 267.649 215.462 268.241C215.661 268.827 215.761 269.463 215.761 270.148V270.351C215.761 271.036 215.661 271.672 215.462 272.258C215.263 272.844 214.973 273.356 214.592 273.796C214.217 274.229 213.763 274.569 213.229 274.815C212.702 275.056 212.104 275.176 211.437 275.176C210.769 275.176 210.168 275.056 209.635 274.815C209.102 274.569 208.645 274.229 208.264 273.796C207.889 273.356 207.602 272.844 207.402 272.258C207.203 271.672 207.104 271.036 207.104 270.351ZM208.729 270.148V270.351C208.729 270.825 208.785 271.273 208.896 271.695C209.008 272.111 209.175 272.48 209.397 272.803C209.626 273.125 209.91 273.38 210.25 273.567C210.59 273.749 210.985 273.84 211.437 273.84C211.882 273.84 212.271 273.749 212.605 273.567C212.945 273.38 213.227 273.125 213.449 272.803C213.672 272.48 213.839 272.111 213.95 271.695C214.067 271.273 214.126 270.825 214.126 270.351V270.148C214.126 269.68 214.067 269.237 213.95 268.821C213.839 268.399 213.669 268.027 213.44 267.705C213.218 267.377 212.937 267.119 212.597 266.932C212.263 266.744 211.87 266.65 211.419 266.65C210.974 266.65 210.581 266.744 210.241 266.932C209.907 267.119 209.626 267.377 209.397 267.705C209.175 268.027 209.008 268.399 208.896 268.821C208.785 269.237 208.729 269.68 208.729 270.148ZM219.426 267.521V275H217.8V265.49H219.338L219.426 267.521ZM219.039 269.885L218.362 269.858C218.368 269.208 218.465 268.607 218.652 268.057C218.84 267.5 219.104 267.017 219.443 266.606C219.783 266.196 220.188 265.88 220.656 265.657C221.131 265.429 221.655 265.314 222.229 265.314C222.698 265.314 223.12 265.379 223.495 265.508C223.87 265.631 224.189 265.83 224.453 266.105C224.723 266.381 224.928 266.738 225.068 267.178C225.209 267.611 225.279 268.142 225.279 268.769V275H223.645V268.751C223.645 268.253 223.571 267.854 223.425 267.556C223.278 267.251 223.064 267.031 222.783 266.896C222.502 266.756 222.156 266.686 221.746 266.686C221.342 266.686 220.973 266.771 220.639 266.94C220.311 267.11 220.026 267.345 219.786 267.644C219.552 267.942 219.367 268.285 219.232 268.672C219.104 269.053 219.039 269.457 219.039 269.885ZM228.689 261.5V262.625C228.689 262.977 228.628 263.349 228.505 263.741C228.388 264.128 228.215 264.503 227.986 264.866C227.758 265.224 227.482 265.537 227.16 265.807L226.229 265.165C226.504 264.778 226.712 264.383 226.853 263.979C226.999 263.568 227.072 263.126 227.072 262.651V261.5H228.689ZM235.202 272.478C235.202 272.243 235.149 272.026 235.044 271.827C234.944 271.622 234.736 271.438 234.42 271.273C234.109 271.104 233.641 270.957 233.014 270.834C232.486 270.723 232.009 270.591 231.581 270.438C231.159 270.286 230.799 270.102 230.5 269.885C230.207 269.668 229.981 269.413 229.823 269.12C229.665 268.827 229.586 268.484 229.586 268.092C229.586 267.717 229.668 267.362 229.832 267.028C230.002 266.694 230.239 266.398 230.544 266.141C230.854 265.883 231.227 265.681 231.66 265.534C232.094 265.388 232.577 265.314 233.11 265.314C233.872 265.314 234.522 265.449 235.062 265.719C235.601 265.988 236.014 266.349 236.301 266.8C236.588 267.245 236.731 267.74 236.731 268.285H235.105C235.105 268.021 235.026 267.767 234.868 267.521C234.716 267.269 234.49 267.061 234.191 266.896C233.898 266.732 233.538 266.65 233.11 266.65C232.659 266.65 232.293 266.721 232.012 266.861C231.736 266.996 231.534 267.169 231.405 267.38C231.282 267.591 231.221 267.813 231.221 268.048C231.221 268.224 231.25 268.382 231.309 268.522C231.373 268.657 231.484 268.783 231.643 268.9C231.801 269.012 232.023 269.117 232.311 269.217C232.598 269.316 232.964 269.416 233.409 269.516C234.188 269.691 234.83 269.902 235.334 270.148C235.838 270.395 236.213 270.696 236.459 271.054C236.705 271.411 236.828 271.845 236.828 272.354C236.828 272.771 236.74 273.151 236.564 273.497C236.395 273.843 236.146 274.142 235.817 274.394C235.495 274.64 235.108 274.833 234.657 274.974C234.212 275.108 233.711 275.176 233.154 275.176C232.316 275.176 231.607 275.026 231.027 274.728C230.447 274.429 230.008 274.042 229.709 273.567C229.41 273.093 229.261 272.592 229.261 272.064H230.896C230.919 272.51 231.048 272.864 231.282 273.128C231.517 273.386 231.804 273.57 232.144 273.682C232.483 273.787 232.82 273.84 233.154 273.84C233.6 273.84 233.972 273.781 234.271 273.664C234.575 273.547 234.807 273.386 234.965 273.181C235.123 272.976 235.202 272.741 235.202 272.478ZM245.837 273.312L248.28 265.49H249.353L249.142 267.046L246.654 275H245.608L245.837 273.312ZM244.193 265.49L246.276 273.4L246.426 275H245.327L242.567 265.49H244.193ZM251.69 273.339L253.677 265.49H255.294L252.534 275H251.444L251.69 273.339ZM249.59 265.49L251.98 273.181L252.253 275H251.216L248.658 267.028L248.447 265.49H249.59ZM258.73 265.49V275H257.096V265.49H258.73ZM256.973 262.968C256.973 262.704 257.052 262.481 257.21 262.3C257.374 262.118 257.614 262.027 257.931 262.027C258.241 262.027 258.479 262.118 258.643 262.3C258.812 262.481 258.897 262.704 258.897 262.968C258.897 263.22 258.812 263.437 258.643 263.618C258.479 263.794 258.241 263.882 257.931 263.882C257.614 263.882 257.374 263.794 257.21 263.618C257.052 263.437 256.973 263.22 256.973 262.968ZM267.335 273.154V261.5H268.97V275H267.476L267.335 273.154ZM260.937 270.351V270.166C260.937 269.439 261.024 268.78 261.2 268.188C261.382 267.591 261.637 267.078 261.965 266.65C262.299 266.223 262.694 265.895 263.151 265.666C263.614 265.432 264.13 265.314 264.698 265.314C265.296 265.314 265.817 265.42 266.263 265.631C266.714 265.836 267.095 266.138 267.405 266.536C267.722 266.929 267.971 267.403 268.152 267.96C268.334 268.517 268.46 269.146 268.53 269.85V270.658C268.466 271.355 268.34 271.982 268.152 272.539C267.971 273.096 267.722 273.57 267.405 273.963C267.095 274.355 266.714 274.657 266.263 274.868C265.812 275.073 265.284 275.176 264.681 275.176C264.124 275.176 263.614 275.056 263.151 274.815C262.694 274.575 262.299 274.238 261.965 273.805C261.637 273.371 261.382 272.861 261.2 272.275C261.024 271.684 260.937 271.042 260.937 270.351ZM262.571 270.166V270.351C262.571 270.825 262.618 271.271 262.712 271.687C262.812 272.103 262.964 272.469 263.169 272.785C263.374 273.102 263.635 273.351 263.951 273.532C264.268 273.708 264.646 273.796 265.085 273.796C265.624 273.796 266.066 273.682 266.412 273.453C266.764 273.225 267.045 272.923 267.256 272.548C267.467 272.173 267.631 271.766 267.748 271.326V269.208C267.678 268.886 267.575 268.575 267.44 268.276C267.312 267.972 267.142 267.702 266.931 267.468C266.726 267.228 266.471 267.037 266.166 266.896C265.867 266.756 265.513 266.686 265.103 266.686C264.657 266.686 264.273 266.779 263.951 266.967C263.635 267.148 263.374 267.4 263.169 267.723C262.964 268.039 262.812 268.408 262.712 268.83C262.618 269.246 262.571 269.691 262.571 270.166ZM275.447 275.176C274.785 275.176 274.185 275.064 273.646 274.842C273.112 274.613 272.652 274.294 272.266 273.884C271.885 273.474 271.592 272.987 271.387 272.425C271.182 271.862 271.079 271.247 271.079 270.579V270.21C271.079 269.437 271.193 268.748 271.422 268.145C271.65 267.535 271.961 267.02 272.354 266.598C272.746 266.176 273.191 265.856 273.689 265.64C274.188 265.423 274.703 265.314 275.236 265.314C275.916 265.314 276.502 265.432 276.994 265.666C277.492 265.9 277.899 266.229 278.216 266.65C278.532 267.066 278.767 267.559 278.919 268.127C279.071 268.689 279.147 269.305 279.147 269.973V270.702H272.046V269.375H277.521V269.252C277.498 268.83 277.41 268.42 277.258 268.021C277.111 267.623 276.877 267.295 276.555 267.037C276.232 266.779 275.793 266.65 275.236 266.65C274.867 266.65 274.527 266.729 274.217 266.888C273.906 267.04 273.64 267.269 273.417 267.573C273.194 267.878 273.021 268.25 272.898 268.689C272.775 269.129 272.714 269.636 272.714 270.21V270.579C272.714 271.03 272.775 271.455 272.898 271.854C273.027 272.246 273.212 272.592 273.452 272.891C273.698 273.189 273.994 273.424 274.34 273.594C274.691 273.764 275.09 273.849 275.535 273.849C276.109 273.849 276.596 273.731 276.994 273.497C277.393 273.263 277.741 272.949 278.04 272.557L279.024 273.339C278.819 273.649 278.559 273.945 278.242 274.227C277.926 274.508 277.536 274.736 277.073 274.912C276.616 275.088 276.074 275.176 275.447 275.176ZM282.672 266.984V275H281.046V265.49H282.628L282.672 266.984ZM285.643 265.438L285.634 266.949C285.499 266.92 285.37 266.902 285.247 266.896C285.13 266.885 284.995 266.879 284.843 266.879C284.468 266.879 284.137 266.938 283.85 267.055C283.562 267.172 283.319 267.336 283.12 267.547C282.921 267.758 282.763 268.01 282.646 268.303C282.534 268.59 282.461 268.906 282.426 269.252L281.969 269.516C281.969 268.941 282.024 268.402 282.136 267.898C282.253 267.395 282.432 266.949 282.672 266.562C282.912 266.17 283.217 265.865 283.586 265.648C283.961 265.426 284.406 265.314 284.922 265.314C285.039 265.314 285.174 265.329 285.326 265.358C285.479 265.382 285.584 265.408 285.643 265.438ZM295.416 273.84C295.803 273.84 296.16 273.761 296.488 273.603C296.816 273.444 297.086 273.228 297.297 272.952C297.508 272.671 297.628 272.352 297.657 271.994H299.204C299.175 272.557 298.984 273.081 298.633 273.567C298.287 274.048 297.833 274.438 297.271 274.736C296.708 275.029 296.09 275.176 295.416 275.176C294.701 275.176 294.077 275.05 293.544 274.798C293.017 274.546 292.577 274.2 292.226 273.761C291.88 273.321 291.619 272.817 291.443 272.249C291.273 271.675 291.188 271.068 291.188 270.43V270.061C291.188 269.422 291.273 268.818 291.443 268.25C291.619 267.676 291.88 267.169 292.226 266.729C292.577 266.29 293.017 265.944 293.544 265.692C294.077 265.44 294.701 265.314 295.416 265.314C296.16 265.314 296.811 265.467 297.367 265.771C297.924 266.07 298.36 266.48 298.677 267.002C298.999 267.518 299.175 268.104 299.204 268.76H297.657C297.628 268.367 297.517 268.013 297.323 267.696C297.136 267.38 296.878 267.128 296.55 266.94C296.228 266.747 295.85 266.65 295.416 266.65C294.918 266.65 294.499 266.75 294.159 266.949C293.825 267.143 293.559 267.406 293.359 267.74C293.166 268.068 293.025 268.435 292.938 268.839C292.855 269.237 292.814 269.645 292.814 270.061V270.43C292.814 270.846 292.855 271.256 292.938 271.66C293.02 272.064 293.157 272.431 293.351 272.759C293.55 273.087 293.816 273.351 294.15 273.55C294.49 273.743 294.912 273.84 295.416 273.84ZM300.602 270.351V270.148C300.602 269.463 300.701 268.827 300.9 268.241C301.1 267.649 301.387 267.137 301.762 266.703C302.137 266.264 302.591 265.924 303.124 265.684C303.657 265.438 304.255 265.314 304.917 265.314C305.585 265.314 306.186 265.438 306.719 265.684C307.258 265.924 307.715 266.264 308.09 266.703C308.471 267.137 308.761 267.649 308.96 268.241C309.159 268.827 309.259 269.463 309.259 270.148V270.351C309.259 271.036 309.159 271.672 308.96 272.258C308.761 272.844 308.471 273.356 308.09 273.796C307.715 274.229 307.261 274.569 306.728 274.815C306.2 275.056 305.603 275.176 304.935 275.176C304.267 275.176 303.666 275.056 303.133 274.815C302.6 274.569 302.143 274.229 301.762 273.796C301.387 273.356 301.1 272.844 300.9 272.258C300.701 271.672 300.602 271.036 300.602 270.351ZM302.228 270.148V270.351C302.228 270.825 302.283 271.273 302.395 271.695C302.506 272.111 302.673 272.48 302.896 272.803C303.124 273.125 303.408 273.38 303.748 273.567C304.088 273.749 304.483 273.84 304.935 273.84C305.38 273.84 305.77 273.749 306.104 273.567C306.443 273.38 306.725 273.125 306.947 272.803C307.17 272.48 307.337 272.111 307.448 271.695C307.565 271.273 307.624 270.825 307.624 270.351V270.148C307.624 269.68 307.565 269.237 307.448 268.821C307.337 268.399 307.167 268.027 306.938 267.705C306.716 267.377 306.435 267.119 306.095 266.932C305.761 266.744 305.368 266.65 304.917 266.65C304.472 266.65 304.079 266.744 303.739 266.932C303.405 267.119 303.124 267.377 302.896 267.705C302.673 268.027 302.506 268.399 302.395 268.821C302.283 269.237 302.228 269.68 302.228 270.148ZM312.915 267.38V275H311.28V265.49H312.827L312.915 267.38ZM312.581 269.885L311.825 269.858C311.831 269.208 311.916 268.607 312.08 268.057C312.244 267.5 312.487 267.017 312.81 266.606C313.132 266.196 313.533 265.88 314.014 265.657C314.494 265.429 315.051 265.314 315.684 265.314C316.129 265.314 316.539 265.379 316.914 265.508C317.289 265.631 317.614 265.827 317.89 266.097C318.165 266.366 318.379 266.712 318.531 267.134C318.684 267.556 318.76 268.065 318.76 268.663V275H317.134V268.742C317.134 268.244 317.049 267.846 316.879 267.547C316.715 267.248 316.48 267.031 316.176 266.896C315.871 266.756 315.514 266.686 315.104 266.686C314.623 266.686 314.222 266.771 313.899 266.94C313.577 267.11 313.319 267.345 313.126 267.644C312.933 267.942 312.792 268.285 312.704 268.672C312.622 269.053 312.581 269.457 312.581 269.885ZM318.742 268.988L317.652 269.322C317.658 268.801 317.743 268.3 317.907 267.819C318.077 267.339 318.32 266.911 318.637 266.536C318.959 266.161 319.354 265.865 319.823 265.648C320.292 265.426 320.828 265.314 321.432 265.314C321.941 265.314 322.393 265.382 322.785 265.517C323.184 265.651 323.518 265.859 323.787 266.141C324.062 266.416 324.271 266.771 324.411 267.204C324.552 267.638 324.622 268.153 324.622 268.751V275H322.987V268.733C322.987 268.2 322.902 267.787 322.732 267.494C322.568 267.195 322.334 266.987 322.029 266.87C321.73 266.747 321.373 266.686 320.957 266.686C320.6 266.686 320.283 266.747 320.008 266.87C319.732 266.993 319.501 267.163 319.313 267.38C319.126 267.591 318.982 267.834 318.883 268.109C318.789 268.385 318.742 268.678 318.742 268.988ZM328.7 267.38V275H327.065V265.49H328.612L328.7 267.38ZM328.366 269.885L327.61 269.858C327.616 269.208 327.701 268.607 327.865 268.057C328.029 267.5 328.272 267.017 328.595 266.606C328.917 266.196 329.318 265.88 329.799 265.657C330.279 265.429 330.836 265.314 331.469 265.314C331.914 265.314 332.324 265.379 332.699 265.508C333.074 265.631 333.399 265.827 333.675 266.097C333.95 266.366 334.164 266.712 334.316 267.134C334.469 267.556 334.545 268.065 334.545 268.663V275H332.919V268.742C332.919 268.244 332.834 267.846 332.664 267.547C332.5 267.248 332.266 267.031 331.961 266.896C331.656 266.756 331.299 266.686 330.889 266.686C330.408 266.686 330.007 266.771 329.685 266.94C329.362 267.11 329.104 267.345 328.911 267.644C328.718 267.942 328.577 268.285 328.489 268.672C328.407 269.053 328.366 269.457 328.366 269.885ZM334.527 268.988L333.438 269.322C333.443 268.801 333.528 268.3 333.692 267.819C333.862 267.339 334.105 266.911 334.422 266.536C334.744 266.161 335.14 265.865 335.608 265.648C336.077 265.426 336.613 265.314 337.217 265.314C337.727 265.314 338.178 265.382 338.57 265.517C338.969 265.651 339.303 265.859 339.572 266.141C339.848 266.416 340.056 266.771 340.196 267.204C340.337 267.638 340.407 268.153 340.407 268.751V275H338.772V268.733C338.772 268.2 338.688 267.787 338.518 267.494C338.354 267.195 338.119 266.987 337.814 266.87C337.516 266.747 337.158 266.686 336.742 266.686C336.385 266.686 336.068 266.747 335.793 266.87C335.518 266.993 335.286 267.163 335.099 267.38C334.911 267.591 334.768 267.834 334.668 268.109C334.574 268.385 334.527 268.678 334.527 268.988ZM348.687 272.803V265.49H350.321V275H348.766L348.687 272.803ZM348.994 270.799L349.671 270.781C349.671 271.414 349.604 272 349.469 272.539C349.34 273.072 349.129 273.535 348.836 273.928C348.543 274.32 348.159 274.628 347.685 274.851C347.21 275.067 346.633 275.176 345.953 275.176C345.49 275.176 345.065 275.108 344.679 274.974C344.298 274.839 343.97 274.631 343.694 274.35C343.419 274.068 343.205 273.702 343.053 273.251C342.906 272.8 342.833 272.258 342.833 271.625V265.49H344.459V271.643C344.459 272.07 344.506 272.425 344.6 272.706C344.699 272.981 344.831 273.201 344.995 273.365C345.165 273.523 345.353 273.635 345.558 273.699C345.769 273.764 345.985 273.796 346.208 273.796C346.899 273.796 347.447 273.664 347.852 273.4C348.256 273.131 348.546 272.771 348.722 272.319C348.903 271.862 348.994 271.355 348.994 270.799ZM354.426 267.521V275H352.8V265.49H354.338L354.426 267.521ZM354.039 269.885L353.362 269.858C353.368 269.208 353.465 268.607 353.652 268.057C353.84 267.5 354.104 267.017 354.443 266.606C354.783 266.196 355.188 265.88 355.656 265.657C356.131 265.429 356.655 265.314 357.229 265.314C357.698 265.314 358.12 265.379 358.495 265.508C358.87 265.631 359.189 265.83 359.453 266.105C359.723 266.381 359.928 266.738 360.068 267.178C360.209 267.611 360.279 268.142 360.279 268.769V275H358.645V268.751C358.645 268.253 358.571 267.854 358.425 267.556C358.278 267.251 358.064 267.031 357.783 266.896C357.502 266.756 357.156 266.686 356.746 266.686C356.342 266.686 355.973 266.771 355.639 266.94C355.311 267.11 355.026 267.345 354.786 267.644C354.552 267.942 354.367 268.285 354.232 268.672C354.104 269.053 354.039 269.457 354.039 269.885ZM364.516 265.49V275H362.881V265.49H364.516ZM362.758 262.968C362.758 262.704 362.837 262.481 362.995 262.3C363.159 262.118 363.399 262.027 363.716 262.027C364.026 262.027 364.264 262.118 364.428 262.3C364.598 262.481 364.683 262.704 364.683 262.968C364.683 263.22 364.598 263.437 364.428 263.618C364.264 263.794 364.026 263.882 363.716 263.882C363.399 263.882 363.159 263.794 362.995 263.618C362.837 263.437 362.758 263.22 362.758 262.968ZM371.107 265.49V266.738H365.966V265.49H371.107ZM367.706 263.179H369.332V272.645C369.332 272.967 369.382 273.21 369.481 273.374C369.581 273.538 369.71 273.646 369.868 273.699C370.026 273.752 370.196 273.778 370.378 273.778C370.513 273.778 370.653 273.767 370.8 273.743C370.952 273.714 371.066 273.69 371.143 273.673L371.151 275C371.022 275.041 370.853 275.079 370.642 275.114C370.437 275.155 370.188 275.176 369.895 275.176C369.496 275.176 369.13 275.097 368.796 274.938C368.462 274.78 368.195 274.517 367.996 274.147C367.803 273.772 367.706 273.269 367.706 272.636V263.179ZM375.687 274.016L378.332 265.49H380.072L376.258 276.468C376.17 276.702 376.053 276.954 375.906 277.224C375.766 277.499 375.584 277.76 375.361 278.006C375.139 278.252 374.869 278.451 374.553 278.604C374.242 278.762 373.87 278.841 373.437 278.841C373.308 278.841 373.144 278.823 372.944 278.788C372.745 278.753 372.604 278.724 372.522 278.7L372.514 277.382C372.561 277.388 372.634 277.394 372.733 277.399C372.839 277.411 372.912 277.417 372.953 277.417C373.322 277.417 373.636 277.367 373.894 277.268C374.151 277.174 374.368 277.013 374.544 276.784C374.726 276.562 374.881 276.254 375.01 275.861L375.687 274.016ZM373.744 265.49L376.214 272.873L376.636 274.587L375.467 275.185L371.969 265.49H373.744ZM380.617 274.139C380.617 273.863 380.702 273.632 380.872 273.444C381.048 273.251 381.3 273.154 381.628 273.154C381.956 273.154 382.205 273.251 382.375 273.444C382.551 273.632 382.639 273.863 382.639 274.139C382.639 274.408 382.551 274.637 382.375 274.824C382.205 275.012 381.956 275.105 381.628 275.105C381.3 275.105 381.048 275.012 380.872 274.824C380.702 274.637 380.617 274.408 380.617 274.139Z" fill="#303031"/>
<mask id="mask0_28_34" style="mask-type:alpha" maskUnits="userSpaceOnUse" x="178" y="70" width="88" height="88">
<circle cx="222" cy="114" r="44" fill="#F3F0EA"/>
</mask>
<g mask="url(#mask0_28_34)">
<circle cx="222" cy="114" r="44" fill="#F3F0EA"/>
<circle opacity="0.8" cx="202" cy="113" r="32" fill="#303031"/>
<circle opacity="0.8" cx="242" cy="113" r="32" fill="#71A894"/>
</g>
</g>
<defs>
<filter id="filter0_d_28_34" x="0" y="0" width="443" height="356" filterUnits="userSpaceOnUse" color-interpolation-filters="sRGB">
<feFlood flood-opacity="0" result="BackgroundImageFix"/>
<feColorMatrix in="SourceAlpha" type="matrix" values="0 0 0 0 0 0 0 0 0 0 0 0 0 0 0 0 0 0 127 0" result="hardAlpha"/>
<feOffset dy="2"/>
<feGaussianBlur stdDeviation="4"/>
<feColorMatrix type="matrix" values="0 0 0 0 0 0 0 0 0 0 0 0 0 0 0 0 0 0 0.1 0"/>
<feBlend mode="normal" in2="BackgroundImageFix" result="effect1_dropShadow_28_34"/>
<feBlend mode="normal" in="SourceGraphic" in2="effect1_dropShadow_28_34" result="shape"/>
</filter>
</defs>
</svg>
