<svg width="443" height="356" viewBox="0 0 443 356" fill="none" xmlns="http://www.w3.org/2000/svg">
<g filter="url(#filter0_d_28_36)">
<rect x="8" y="6" width="427" height="340" rx="8" fill="white"/>
<path d="M99.418 203.258V206H90.3359V203.258H99.418ZM91.4844 188.938V206H87.9688V188.938H91.4844ZM98.2344 195.887V198.559H90.3359V195.887H98.2344ZM99.4062 188.938V191.691H90.3359V188.938H99.4062ZM104.562 196.027V206H101.188V193.32H104.352L104.562 196.027ZM104.07 199.215H103.156C103.156 198.277 103.277 197.434 103.52 196.684C103.762 195.926 104.102 195.281 104.539 194.75C104.977 194.211 105.496 193.801 106.098 193.52C106.707 193.23 107.387 193.086 108.137 193.086C108.73 193.086 109.273 193.172 109.766 193.344C110.258 193.516 110.68 193.789 111.031 194.164C111.391 194.539 111.664 195.035 111.852 195.652C112.047 196.27 112.145 197.023 112.145 197.914V206H108.746V197.902C108.746 197.34 108.668 196.902 108.512 196.59C108.355 196.277 108.125 196.059 107.82 195.934C107.523 195.801 107.156 195.734 106.719 195.734C106.266 195.734 105.871 195.824 105.535 196.004C105.207 196.184 104.934 196.434 104.715 196.754C104.504 197.066 104.344 197.434 104.234 197.855C104.125 198.277 104.07 198.73 104.07 199.215ZM122.738 193.32H125.797V205.578C125.797 206.734 125.539 207.715 125.023 208.52C124.516 209.332 123.805 209.945 122.891 210.359C121.977 210.781 120.914 210.992 119.703 210.992C119.172 210.992 118.609 210.922 118.016 210.781C117.43 210.641 116.867 210.422 116.328 210.125C115.797 209.828 115.352 209.453 114.992 209L116.48 207.008C116.871 207.461 117.324 207.812 117.84 208.062C118.355 208.32 118.926 208.449 119.551 208.449C120.16 208.449 120.676 208.336 121.098 208.109C121.52 207.891 121.844 207.566 122.07 207.137C122.297 206.715 122.41 206.203 122.41 205.602V196.25L122.738 193.32ZM114.207 199.812V199.566C114.207 198.598 114.324 197.719 114.559 196.93C114.801 196.133 115.141 195.449 115.578 194.879C116.023 194.309 116.562 193.867 117.195 193.555C117.828 193.242 118.543 193.086 119.34 193.086C120.184 193.086 120.891 193.242 121.461 193.555C122.031 193.867 122.5 194.312 122.867 194.891C123.234 195.461 123.52 196.137 123.723 196.918C123.934 197.691 124.098 198.539 124.215 199.461V200C124.098 200.883 123.922 201.703 123.688 202.461C123.453 203.219 123.145 203.883 122.762 204.453C122.379 205.016 121.902 205.453 121.332 205.766C120.77 206.078 120.098 206.234 119.316 206.234C118.535 206.234 117.828 206.074 117.195 205.754C116.57 205.434 116.035 204.984 115.59 204.406C115.145 203.828 114.801 203.148 114.559 202.367C114.324 201.586 114.207 200.734 114.207 199.812ZM117.582 199.566V199.812C117.582 200.336 117.633 200.824 117.734 201.277C117.836 201.73 117.992 202.133 118.203 202.484C118.422 202.828 118.691 203.098 119.012 203.293C119.34 203.48 119.727 203.574 120.172 203.574C120.789 203.574 121.293 203.445 121.684 203.188C122.074 202.922 122.367 202.559 122.562 202.098C122.758 201.637 122.871 201.105 122.902 200.504V198.969C122.887 198.477 122.82 198.035 122.703 197.645C122.586 197.246 122.422 196.906 122.211 196.625C122 196.344 121.727 196.125 121.391 195.969C121.055 195.812 120.656 195.734 120.195 195.734C119.75 195.734 119.363 195.836 119.035 196.039C118.715 196.234 118.445 196.504 118.227 196.848C118.016 197.191 117.855 197.598 117.746 198.066C117.637 198.527 117.582 199.027 117.582 199.566ZM131.984 193.32V206H128.598V193.32H131.984ZM128.387 190.016C128.387 189.523 128.559 189.117 128.902 188.797C129.246 188.477 129.707 188.316 130.285 188.316C130.855 188.316 131.312 188.477 131.656 188.797C132.008 189.117 132.184 189.523 132.184 190.016C132.184 190.508 132.008 190.914 131.656 191.234C131.312 191.555 130.855 191.715 130.285 191.715C129.707 191.715 129.246 191.555 128.902 191.234C128.559 190.914 128.387 190.508 128.387 190.016ZM138.078 196.027V206H134.703V193.32H137.867L138.078 196.027ZM137.586 199.215H136.672C136.672 198.277 136.793 197.434 137.035 196.684C137.277 195.926 137.617 195.281 138.055 194.75C138.492 194.211 139.012 193.801 139.613 193.52C140.223 193.23 140.902 193.086 141.652 193.086C142.246 193.086 142.789 193.172 143.281 193.344C143.773 193.516 144.195 193.789 144.547 194.164C144.906 194.539 145.18 195.035 145.367 195.652C145.562 196.27 145.66 197.023 145.66 197.914V206H142.262V197.902C142.262 197.34 142.184 196.902 142.027 196.59C141.871 196.277 141.641 196.059 141.336 195.934C141.039 195.801 140.672 195.734 140.234 195.734C139.781 195.734 139.387 195.824 139.051 196.004C138.723 196.184 138.449 196.434 138.23 196.754C138.02 197.066 137.859 197.434 137.75 197.855C137.641 198.277 137.586 198.73 137.586 199.215ZM154.062 206.234C153.078 206.234 152.195 206.078 151.414 205.766C150.633 205.445 149.969 205.004 149.422 204.441C148.883 203.879 148.469 203.227 148.18 202.484C147.891 201.734 147.746 200.938 147.746 200.094V199.625C147.746 198.664 147.883 197.785 148.156 196.988C148.43 196.191 148.82 195.5 149.328 194.914C149.844 194.328 150.469 193.879 151.203 193.566C151.938 193.246 152.766 193.086 153.688 193.086C154.586 193.086 155.383 193.234 156.078 193.531C156.773 193.828 157.355 194.25 157.824 194.797C158.301 195.344 158.66 196 158.902 196.766C159.145 197.523 159.266 198.367 159.266 199.297V200.703H149.188V198.453H155.949V198.195C155.949 197.727 155.863 197.309 155.691 196.941C155.527 196.566 155.277 196.27 154.941 196.051C154.605 195.832 154.176 195.723 153.652 195.723C153.207 195.723 152.824 195.82 152.504 196.016C152.184 196.211 151.922 196.484 151.719 196.836C151.523 197.188 151.375 197.602 151.273 198.078C151.18 198.547 151.133 199.062 151.133 199.625V200.094C151.133 200.602 151.203 201.07 151.344 201.5C151.492 201.93 151.699 202.301 151.965 202.613C152.238 202.926 152.566 203.168 152.949 203.34C153.34 203.512 153.781 203.598 154.273 203.598C154.883 203.598 155.449 203.48 155.973 203.246C156.504 203.004 156.961 202.641 157.344 202.156L158.984 203.938C158.719 204.32 158.355 204.688 157.895 205.039C157.441 205.391 156.895 205.68 156.254 205.906C155.613 206.125 154.883 206.234 154.062 206.234ZM167.023 206.234C166.039 206.234 165.156 206.078 164.375 205.766C163.594 205.445 162.93 205.004 162.383 204.441C161.844 203.879 161.43 203.227 161.141 202.484C160.852 201.734 160.707 200.938 160.707 200.094V199.625C160.707 198.664 160.844 197.785 161.117 196.988C161.391 196.191 161.781 195.5 162.289 194.914C162.805 194.328 163.43 193.879 164.164 193.566C164.898 193.246 165.727 193.086 166.648 193.086C167.547 193.086 168.344 193.234 169.039 193.531C169.734 193.828 170.316 194.25 170.785 194.797C171.262 195.344 171.621 196 171.863 196.766C172.105 197.523 172.227 198.367 172.227 199.297V200.703H162.148V198.453H168.91V198.195C168.91 197.727 168.824 197.309 168.652 196.941C168.488 196.566 168.238 196.27 167.902 196.051C167.566 195.832 167.137 195.723 166.613 195.723C166.168 195.723 165.785 195.82 165.465 196.016C165.145 196.211 164.883 196.484 164.68 196.836C164.484 197.188 164.336 197.602 164.234 198.078C164.141 198.547 164.094 199.062 164.094 199.625V200.094C164.094 200.602 164.164 201.07 164.305 201.5C164.453 201.93 164.66 202.301 164.926 202.613C165.199 202.926 165.527 203.168 165.91 203.34C166.301 203.512 166.742 203.598 167.234 203.598C167.844 203.598 168.41 203.48 168.934 203.246C169.465 203.004 169.922 202.641 170.305 202.156L171.945 203.938C171.68 204.32 171.316 204.688 170.855 205.039C170.402 205.391 169.855 205.68 169.215 205.906C168.574 206.125 167.844 206.234 167.023 206.234ZM177.523 196.086V206H174.148V193.32H177.324L177.523 196.086ZM181.344 193.238L181.285 196.367C181.121 196.344 180.922 196.324 180.688 196.309C180.461 196.285 180.254 196.273 180.066 196.273C179.59 196.273 179.176 196.336 178.824 196.461C178.48 196.578 178.191 196.754 177.957 196.988C177.73 197.223 177.559 197.508 177.441 197.844C177.332 198.18 177.27 198.562 177.254 198.992L176.574 198.781C176.574 197.961 176.656 197.207 176.82 196.52C176.984 195.824 177.223 195.219 177.535 194.703C177.855 194.188 178.246 193.789 178.707 193.508C179.168 193.227 179.695 193.086 180.289 193.086C180.477 193.086 180.668 193.102 180.863 193.133C181.059 193.156 181.219 193.191 181.344 193.238ZM188.539 206.234C187.555 206.234 186.672 206.078 185.891 205.766C185.109 205.445 184.445 205.004 183.898 204.441C183.359 203.879 182.945 203.227 182.656 202.484C182.367 201.734 182.223 200.938 182.223 200.094V199.625C182.223 198.664 182.359 197.785 182.633 196.988C182.906 196.191 183.297 195.5 183.805 194.914C184.32 194.328 184.945 193.879 185.68 193.566C186.414 193.246 187.242 193.086 188.164 193.086C189.062 193.086 189.859 193.234 190.555 193.531C191.25 193.828 191.832 194.25 192.301 194.797C192.777 195.344 193.137 196 193.379 196.766C193.621 197.523 193.742 198.367 193.742 199.297V200.703H183.664V198.453H190.426V198.195C190.426 197.727 190.34 197.309 190.168 196.941C190.004 196.566 189.754 196.27 189.418 196.051C189.082 195.832 188.652 195.723 188.129 195.723C187.684 195.723 187.301 195.82 186.98 196.016C186.66 196.211 186.398 196.484 186.195 196.836C186 197.188 185.852 197.602 185.75 198.078C185.656 198.547 185.609 199.062 185.609 199.625V200.094C185.609 200.602 185.68 201.07 185.82 201.5C185.969 201.93 186.176 202.301 186.441 202.613C186.715 202.926 187.043 203.168 187.426 203.34C187.816 203.512 188.258 203.598 188.75 203.598C189.359 203.598 189.926 203.48 190.449 203.246C190.98 203.004 191.438 202.641 191.82 202.156L193.461 203.938C193.195 204.32 192.832 204.688 192.371 205.039C191.918 205.391 191.371 205.68 190.73 205.906C190.09 206.125 189.359 206.234 188.539 206.234ZM203.152 203.234V188H206.551V206H203.492L203.152 203.234ZM195.137 199.812V199.566C195.137 198.598 195.246 197.719 195.465 196.93C195.684 196.133 196.004 195.449 196.426 194.879C196.848 194.309 197.367 193.867 197.984 193.555C198.602 193.242 199.305 193.086 200.094 193.086C200.836 193.086 201.484 193.242 202.039 193.555C202.602 193.867 203.078 194.312 203.469 194.891C203.867 195.461 204.188 196.137 204.43 196.918C204.672 197.691 204.848 198.539 204.957 199.461V200C204.848 200.883 204.672 201.703 204.43 202.461C204.188 203.219 203.867 203.883 203.469 204.453C203.078 205.016 202.602 205.453 202.039 205.766C201.477 206.078 200.82 206.234 200.07 206.234C199.281 206.234 198.578 206.074 197.961 205.754C197.352 205.434 196.836 204.984 196.414 204.406C196 203.828 195.684 203.148 195.465 202.367C195.246 201.586 195.137 200.734 195.137 199.812ZM198.512 199.566V199.812C198.512 200.336 198.551 200.824 198.629 201.277C198.715 201.73 198.852 202.133 199.039 202.484C199.234 202.828 199.484 203.098 199.789 203.293C200.102 203.48 200.48 203.574 200.926 203.574C201.504 203.574 201.98 203.445 202.355 203.188C202.73 202.922 203.016 202.559 203.211 202.098C203.414 201.637 203.531 201.105 203.562 200.504V198.969C203.539 198.477 203.469 198.035 203.352 197.645C203.242 197.246 203.078 196.906 202.859 196.625C202.648 196.344 202.383 196.125 202.062 195.969C201.75 195.812 201.379 195.734 200.949 195.734C200.512 195.734 200.137 195.836 199.824 196.039C199.512 196.234 199.258 196.504 199.062 196.848C198.875 197.191 198.734 197.598 198.641 198.066C198.555 198.527 198.512 199.027 198.512 199.566ZM219.465 206H216.066V192.195C216.066 191.234 216.254 190.426 216.629 189.77C217.012 189.105 217.547 188.605 218.234 188.27C218.93 187.926 219.754 187.754 220.707 187.754C221.02 187.754 221.32 187.777 221.609 187.824C221.898 187.863 222.18 187.914 222.453 187.977L222.418 190.52C222.27 190.48 222.113 190.453 221.949 190.438C221.785 190.422 221.594 190.414 221.375 190.414C220.969 190.414 220.621 190.484 220.332 190.625C220.051 190.758 219.836 190.957 219.688 191.223C219.539 191.488 219.465 191.812 219.465 192.195V206ZM221.996 193.32V195.711H214.18V193.32H221.996ZM223.227 199.789V199.543C223.227 198.613 223.359 197.758 223.625 196.977C223.891 196.188 224.277 195.504 224.785 194.926C225.293 194.348 225.918 193.898 226.66 193.578C227.402 193.25 228.254 193.086 229.215 193.086C230.176 193.086 231.031 193.25 231.781 193.578C232.531 193.898 233.16 194.348 233.668 194.926C234.184 195.504 234.574 196.188 234.84 196.977C235.105 197.758 235.238 198.613 235.238 199.543V199.789C235.238 200.711 235.105 201.566 234.84 202.355C234.574 203.137 234.184 203.82 233.668 204.406C233.16 204.984 232.535 205.434 231.793 205.754C231.051 206.074 230.199 206.234 229.238 206.234C228.277 206.234 227.422 206.074 226.672 205.754C225.93 205.434 225.301 204.984 224.785 204.406C224.277 203.82 223.891 203.137 223.625 202.355C223.359 201.566 223.227 200.711 223.227 199.789ZM226.602 199.543V199.789C226.602 200.32 226.648 200.816 226.742 201.277C226.836 201.738 226.984 202.145 227.188 202.496C227.398 202.84 227.672 203.109 228.008 203.305C228.344 203.5 228.754 203.598 229.238 203.598C229.707 203.598 230.109 203.5 230.445 203.305C230.781 203.109 231.051 202.84 231.254 202.496C231.457 202.145 231.605 201.738 231.699 201.277C231.801 200.816 231.852 200.32 231.852 199.789V199.543C231.852 199.027 231.801 198.543 231.699 198.09C231.605 197.629 231.453 197.223 231.242 196.871C231.039 196.512 230.77 196.23 230.434 196.027C230.098 195.824 229.691 195.723 229.215 195.723C228.738 195.723 228.332 195.824 227.996 196.027C227.668 196.23 227.398 196.512 227.188 196.871C226.984 197.223 226.836 197.629 226.742 198.09C226.648 198.543 226.602 199.027 226.602 199.543ZM240.688 196.086V206H237.312V193.32H240.488L240.688 196.086ZM244.508 193.238L244.449 196.367C244.285 196.344 244.086 196.324 243.852 196.309C243.625 196.285 243.418 196.273 243.23 196.273C242.754 196.273 242.34 196.336 241.988 196.461C241.645 196.578 241.355 196.754 241.121 196.988C240.895 197.223 240.723 197.508 240.605 197.844C240.496 198.18 240.434 198.562 240.418 198.992L239.738 198.781C239.738 197.961 239.82 197.207 239.984 196.52C240.148 195.824 240.387 195.219 240.699 194.703C241.02 194.188 241.41 193.789 241.871 193.508C242.332 193.227 242.859 193.086 243.453 193.086C243.641 193.086 243.832 193.102 244.027 193.133C244.223 193.156 244.383 193.191 244.508 193.238ZM255.453 196.086V206H252.078V193.32H255.254L255.453 196.086ZM259.273 193.238L259.215 196.367C259.051 196.344 258.852 196.324 258.617 196.309C258.391 196.285 258.184 196.273 257.996 196.273C257.52 196.273 257.105 196.336 256.754 196.461C256.41 196.578 256.121 196.754 255.887 196.988C255.66 197.223 255.488 197.508 255.371 197.844C255.262 198.18 255.199 198.562 255.184 198.992L254.504 198.781C254.504 197.961 254.586 197.207 254.75 196.52C254.914 195.824 255.152 195.219 255.465 194.703C255.785 194.188 256.176 193.789 256.637 193.508C257.098 193.227 257.625 193.086 258.219 193.086C258.406 193.086 258.598 193.102 258.793 193.133C258.988 193.156 259.148 193.191 259.273 193.238ZM266.469 206.234C265.484 206.234 264.602 206.078 263.82 205.766C263.039 205.445 262.375 205.004 261.828 204.441C261.289 203.879 260.875 203.227 260.586 202.484C260.297 201.734 260.152 200.938 260.152 200.094V199.625C260.152 198.664 260.289 197.785 260.562 196.988C260.836 196.191 261.227 195.5 261.734 194.914C262.25 194.328 262.875 193.879 263.609 193.566C264.344 193.246 265.172 193.086 266.094 193.086C266.992 193.086 267.789 193.234 268.484 193.531C269.18 193.828 269.762 194.25 270.23 194.797C270.707 195.344 271.066 196 271.309 196.766C271.551 197.523 271.672 198.367 271.672 199.297V200.703H261.594V198.453H268.355V198.195C268.355 197.727 268.27 197.309 268.098 196.941C267.934 196.566 267.684 196.27 267.348 196.051C267.012 195.832 266.582 195.723 266.059 195.723C265.613 195.723 265.23 195.82 264.91 196.016C264.59 196.211 264.328 196.484 264.125 196.836C263.93 197.188 263.781 197.602 263.68 198.078C263.586 198.547 263.539 199.062 263.539 199.625V200.094C263.539 200.602 263.609 201.07 263.75 201.5C263.898 201.93 264.105 202.301 264.371 202.613C264.645 202.926 264.973 203.168 265.355 203.34C265.746 203.512 266.188 203.598 266.68 203.598C267.289 203.598 267.855 203.48 268.379 203.246C268.91 203.004 269.367 202.641 269.75 202.156L271.391 203.938C271.125 204.32 270.762 204.688 270.301 205.039C269.848 205.391 269.301 205.68 268.66 205.906C268.02 206.125 267.289 206.234 266.469 206.234ZM280.449 202.496C280.449 202.254 280.379 202.035 280.238 201.84C280.098 201.645 279.836 201.465 279.453 201.301C279.078 201.129 278.535 200.973 277.824 200.832C277.184 200.691 276.586 200.516 276.031 200.305C275.484 200.086 275.008 199.824 274.602 199.52C274.203 199.215 273.891 198.855 273.664 198.441C273.438 198.02 273.324 197.539 273.324 197C273.324 196.469 273.438 195.969 273.664 195.5C273.898 195.031 274.23 194.617 274.66 194.258C275.098 193.891 275.629 193.605 276.254 193.402C276.887 193.191 277.598 193.086 278.387 193.086C279.488 193.086 280.434 193.262 281.223 193.613C282.02 193.965 282.629 194.449 283.051 195.066C283.48 195.676 283.695 196.371 283.695 197.152H280.32C280.32 196.824 280.25 196.531 280.109 196.273C279.977 196.008 279.766 195.801 279.477 195.652C279.195 195.496 278.828 195.418 278.375 195.418C278 195.418 277.676 195.484 277.402 195.617C277.129 195.742 276.918 195.914 276.77 196.133C276.629 196.344 276.559 196.578 276.559 196.836C276.559 197.031 276.598 197.207 276.676 197.363C276.762 197.512 276.898 197.648 277.086 197.773C277.273 197.898 277.516 198.016 277.812 198.125C278.117 198.227 278.492 198.32 278.938 198.406C279.852 198.594 280.668 198.84 281.387 199.145C282.105 199.441 282.676 199.848 283.098 200.363C283.52 200.871 283.73 201.539 283.73 202.367C283.73 202.93 283.605 203.445 283.355 203.914C283.105 204.383 282.746 204.793 282.277 205.145C281.809 205.488 281.246 205.758 280.59 205.953C279.941 206.141 279.211 206.234 278.398 206.234C277.219 206.234 276.219 206.023 275.398 205.602C274.586 205.18 273.969 204.645 273.547 203.996C273.133 203.34 272.926 202.668 272.926 201.98H276.125C276.141 202.441 276.258 202.812 276.477 203.094C276.703 203.375 276.988 203.578 277.332 203.703C277.684 203.828 278.062 203.891 278.469 203.891C278.906 203.891 279.27 203.832 279.559 203.715C279.848 203.59 280.066 203.426 280.215 203.223C280.371 203.012 280.449 202.77 280.449 202.496ZM289.484 193.32V206H286.098V193.32H289.484ZM285.887 190.016C285.887 189.523 286.059 189.117 286.402 188.797C286.746 188.477 287.207 188.316 287.785 188.316C288.355 188.316 288.812 188.477 289.156 188.797C289.508 189.117 289.684 189.523 289.684 190.016C289.684 190.508 289.508 190.914 289.156 191.234C288.812 191.555 288.355 191.715 287.785 191.715C287.207 191.715 286.746 191.555 286.402 191.234C286.059 190.914 285.887 190.508 285.887 190.016ZM295.836 188V206H292.449V188H295.836ZM302.188 193.32V206H298.801V193.32H302.188ZM298.59 190.016C298.59 189.523 298.762 189.117 299.105 188.797C299.449 188.477 299.91 188.316 300.488 188.316C301.059 188.316 301.516 188.477 301.859 188.797C302.211 189.117 302.387 189.523 302.387 190.016C302.387 190.508 302.211 190.914 301.859 191.234C301.516 191.555 301.059 191.715 300.488 191.715C299.91 191.715 299.449 191.555 299.105 191.234C298.762 190.914 298.59 190.508 298.59 190.016ZM310.812 206.234C309.828 206.234 308.945 206.078 308.164 205.766C307.383 205.445 306.719 205.004 306.172 204.441C305.633 203.879 305.219 203.227 304.93 202.484C304.641 201.734 304.496 200.938 304.496 200.094V199.625C304.496 198.664 304.633 197.785 304.906 196.988C305.18 196.191 305.57 195.5 306.078 194.914C306.594 194.328 307.219 193.879 307.953 193.566C308.688 193.246 309.516 193.086 310.438 193.086C311.336 193.086 312.133 193.234 312.828 193.531C313.523 193.828 314.105 194.25 314.574 194.797C315.051 195.344 315.41 196 315.652 196.766C315.895 197.523 316.016 198.367 316.016 199.297V200.703H305.938V198.453H312.699V198.195C312.699 197.727 312.613 197.309 312.441 196.941C312.277 196.566 312.027 196.27 311.691 196.051C311.355 195.832 310.926 195.723 310.402 195.723C309.957 195.723 309.574 195.82 309.254 196.016C308.934 196.211 308.672 196.484 308.469 196.836C308.273 197.188 308.125 197.602 308.023 198.078C307.93 198.547 307.883 199.062 307.883 199.625V200.094C307.883 200.602 307.953 201.07 308.094 201.5C308.242 201.93 308.449 202.301 308.715 202.613C308.988 202.926 309.316 203.168 309.699 203.34C310.09 203.512 310.531 203.598 311.023 203.598C311.633 203.598 312.199 203.48 312.723 203.246C313.254 203.004 313.711 202.641 314.094 202.156L315.734 203.938C315.469 204.32 315.105 204.688 314.645 205.039C314.191 205.391 313.645 205.68 313.004 205.906C312.363 206.125 311.633 206.234 310.812 206.234ZM321.242 196.027V206H317.867V193.32H321.031L321.242 196.027ZM320.75 199.215H319.836C319.836 198.277 319.957 197.434 320.199 196.684C320.441 195.926 320.781 195.281 321.219 194.75C321.656 194.211 322.176 193.801 322.777 193.52C323.387 193.23 324.066 193.086 324.816 193.086C325.41 193.086 325.953 193.172 326.445 193.344C326.938 193.516 327.359 193.789 327.711 194.164C328.07 194.539 328.344 195.035 328.531 195.652C328.727 196.27 328.824 197.023 328.824 197.914V206H325.426V197.902C325.426 197.34 325.348 196.902 325.191 196.59C325.035 196.277 324.805 196.059 324.5 195.934C324.203 195.801 323.836 195.734 323.398 195.734C322.945 195.734 322.551 195.824 322.215 196.004C321.887 196.184 321.613 196.434 321.395 196.754C321.184 197.066 321.023 197.434 320.914 197.855C320.805 198.277 320.75 198.73 320.75 199.215ZM336.629 203.598C337.043 203.598 337.41 203.52 337.73 203.363C338.051 203.199 338.301 202.973 338.48 202.684C338.668 202.387 338.766 202.039 338.773 201.641H341.949C341.941 202.531 341.703 203.324 341.234 204.02C340.766 204.707 340.137 205.25 339.348 205.648C338.559 206.039 337.676 206.234 336.699 206.234C335.715 206.234 334.855 206.07 334.121 205.742C333.395 205.414 332.789 204.961 332.305 204.383C331.82 203.797 331.457 203.117 331.215 202.344C330.973 201.562 330.852 200.727 330.852 199.836V199.496C330.852 198.598 330.973 197.762 331.215 196.988C331.457 196.207 331.82 195.527 332.305 194.949C332.789 194.363 333.395 193.906 334.121 193.578C334.848 193.25 335.699 193.086 336.676 193.086C337.715 193.086 338.625 193.285 339.406 193.684C340.195 194.082 340.812 194.652 341.258 195.395C341.711 196.129 341.941 197 341.949 198.008H338.773C338.766 197.586 338.676 197.203 338.504 196.859C338.34 196.516 338.098 196.242 337.777 196.039C337.465 195.828 337.078 195.723 336.617 195.723C336.125 195.723 335.723 195.828 335.41 196.039C335.098 196.242 334.855 196.523 334.684 196.883C334.512 197.234 334.391 197.637 334.32 198.09C334.258 198.535 334.227 199.004 334.227 199.496V199.836C334.227 200.328 334.258 200.801 334.32 201.254C334.383 201.707 334.5 202.109 334.672 202.461C334.852 202.812 335.098 203.09 335.41 203.293C335.723 203.496 336.129 203.598 336.629 203.598ZM349.742 206.234C348.758 206.234 347.875 206.078 347.094 205.766C346.312 205.445 345.648 205.004 345.102 204.441C344.562 203.879 344.148 203.227 343.859 202.484C343.57 201.734 343.426 200.938 343.426 200.094V199.625C343.426 198.664 343.562 197.785 343.836 196.988C344.109 196.191 344.5 195.5 345.008 194.914C345.523 194.328 346.148 193.879 346.883 193.566C347.617 193.246 348.445 193.086 349.367 193.086C350.266 193.086 351.062 193.234 351.758 193.531C352.453 193.828 353.035 194.25 353.504 194.797C353.98 195.344 354.34 196 354.582 196.766C354.824 197.523 354.945 198.367 354.945 199.297V200.703H344.867V198.453H351.629V198.195C351.629 197.727 351.543 197.309 351.371 196.941C351.207 196.566 350.957 196.27 350.621 196.051C350.285 195.832 349.855 195.723 349.332 195.723C348.887 195.723 348.504 195.82 348.184 196.016C347.863 196.211 347.602 196.484 347.398 196.836C347.203 197.188 347.055 197.602 346.953 198.078C346.859 198.547 346.812 199.062 346.812 199.625V200.094C346.812 200.602 346.883 201.07 347.023 201.5C347.172 201.93 347.379 202.301 347.645 202.613C347.918 202.926 348.246 203.168 348.629 203.34C349.02 203.512 349.461 203.598 349.953 203.598C350.562 203.598 351.129 203.48 351.652 203.246C352.184 203.004 352.641 202.641 353.023 202.156L354.664 203.938C354.398 204.32 354.035 204.688 353.574 205.039C353.121 205.391 352.574 205.68 351.934 205.906C351.293 206.125 350.562 206.234 349.742 206.234Z" fill="#303031"/>
<path d="M63.0068 242.197V243.006C63.0068 243.967 62.8867 244.828 62.6465 245.59C62.4062 246.352 62.0605 246.999 61.6094 247.532C61.1582 248.065 60.6162 248.473 59.9834 248.754C59.3564 249.035 58.6533 249.176 57.874 249.176C57.1182 249.176 56.4238 249.035 55.791 248.754C55.1641 248.473 54.6191 248.065 54.1562 247.532C53.6992 246.999 53.3447 246.352 53.0928 245.59C52.8408 244.828 52.7148 243.967 52.7148 243.006V242.197C52.7148 241.236 52.8379 240.378 53.084 239.622C53.3359 238.86 53.6904 238.213 54.1475 237.68C54.6045 237.141 55.1465 236.73 55.7734 236.449C56.4062 236.168 57.1006 236.027 57.8564 236.027C58.6357 236.027 59.3389 236.168 59.9658 236.449C60.5986 236.73 61.1406 237.141 61.5918 237.68C62.0488 238.213 62.3975 238.86 62.6377 239.622C62.8838 240.378 63.0068 241.236 63.0068 242.197ZM61.3281 243.006V242.18C61.3281 241.418 61.249 240.744 61.0908 240.158C60.9385 239.572 60.7129 239.08 60.4141 238.682C60.1152 238.283 59.749 237.981 59.3154 237.776C58.8877 237.571 58.4014 237.469 57.8564 237.469C57.3291 237.469 56.8516 237.571 56.4238 237.776C56.002 237.981 55.6387 238.283 55.334 238.682C55.0352 239.08 54.8037 239.572 54.6396 240.158C54.4756 240.744 54.3936 241.418 54.3936 242.18V243.006C54.3936 243.773 54.4756 244.453 54.6396 245.045C54.8037 245.631 55.0381 246.126 55.3428 246.53C55.6533 246.929 56.0195 247.23 56.4414 247.436C56.8691 247.641 57.3467 247.743 57.874 247.743C58.4248 247.743 58.9141 247.641 59.3418 247.436C59.7695 247.23 60.1299 246.929 60.4229 246.53C60.7217 246.126 60.9473 245.631 61.0996 245.045C61.252 244.453 61.3281 243.773 61.3281 243.006ZM66.9268 241.318V252.656H65.292V239.49H66.7861L66.9268 241.318ZM73.334 244.166V244.351C73.334 245.042 73.252 245.684 73.0879 246.275C72.9238 246.861 72.6836 247.371 72.3672 247.805C72.0566 248.238 71.6729 248.575 71.2158 248.815C70.7588 249.056 70.2344 249.176 69.6426 249.176C69.0391 249.176 68.5059 249.076 68.043 248.877C67.5801 248.678 67.1875 248.388 66.8652 248.007C66.543 247.626 66.2852 247.169 66.0918 246.636C65.9043 246.103 65.7754 245.502 65.7051 244.834V243.85C65.7754 243.146 65.9072 242.517 66.1006 241.96C66.2939 241.403 66.5488 240.929 66.8652 240.536C67.1875 240.138 67.5771 239.836 68.0342 239.631C68.4912 239.42 69.0186 239.314 69.6162 239.314C70.2139 239.314 70.7441 239.432 71.207 239.666C71.6699 239.895 72.0596 240.223 72.376 240.65C72.6924 241.078 72.9297 241.591 73.0879 242.188C73.252 242.78 73.334 243.439 73.334 244.166ZM71.6992 244.351V244.166C71.6992 243.691 71.6494 243.246 71.5498 242.83C71.4502 242.408 71.2949 242.039 71.084 241.723C70.8789 241.4 70.6152 241.148 70.293 240.967C69.9707 240.779 69.5869 240.686 69.1416 240.686C68.7314 240.686 68.374 240.756 68.0693 240.896C67.7705 241.037 67.5156 241.228 67.3047 241.468C67.0938 241.702 66.9209 241.972 66.7861 242.276C66.6572 242.575 66.5605 242.886 66.4961 243.208V245.484C66.6133 245.895 66.7773 246.281 66.9883 246.645C67.1992 247.002 67.4805 247.292 67.832 247.515C68.1836 247.731 68.626 247.84 69.1592 247.84C69.5986 247.84 69.9766 247.749 70.293 247.567C70.6152 247.38 70.8789 247.125 71.084 246.803C71.2949 246.48 71.4502 246.111 71.5498 245.695C71.6494 245.273 71.6992 244.825 71.6992 244.351ZM79.3545 249.176C78.6924 249.176 78.0918 249.064 77.5527 248.842C77.0195 248.613 76.5596 248.294 76.1729 247.884C75.792 247.474 75.499 246.987 75.2939 246.425C75.0889 245.862 74.9863 245.247 74.9863 244.579V244.21C74.9863 243.437 75.1006 242.748 75.3291 242.145C75.5576 241.535 75.8682 241.02 76.2607 240.598C76.6533 240.176 77.0986 239.856 77.5967 239.64C78.0947 239.423 78.6104 239.314 79.1436 239.314C79.8232 239.314 80.4092 239.432 80.9014 239.666C81.3994 239.9 81.8066 240.229 82.123 240.65C82.4395 241.066 82.6738 241.559 82.8262 242.127C82.9785 242.689 83.0547 243.305 83.0547 243.973V244.702H75.9531V243.375H81.4287V243.252C81.4053 242.83 81.3174 242.42 81.165 242.021C81.0186 241.623 80.7842 241.295 80.4619 241.037C80.1396 240.779 79.7002 240.65 79.1436 240.65C78.7744 240.65 78.4346 240.729 78.124 240.888C77.8135 241.04 77.5469 241.269 77.3242 241.573C77.1016 241.878 76.9287 242.25 76.8057 242.689C76.6826 243.129 76.6211 243.636 76.6211 244.21V244.579C76.6211 245.03 76.6826 245.455 76.8057 245.854C76.9346 246.246 77.1191 246.592 77.3594 246.891C77.6055 247.189 77.9014 247.424 78.2471 247.594C78.5986 247.764 78.9971 247.849 79.4424 247.849C80.0166 247.849 80.5029 247.731 80.9014 247.497C81.2998 247.263 81.6484 246.949 81.9473 246.557L82.9316 247.339C82.7266 247.649 82.4658 247.945 82.1494 248.227C81.833 248.508 81.4434 248.736 80.9805 248.912C80.5234 249.088 79.9814 249.176 79.3545 249.176ZM86.5791 241.521V249H84.9531V239.49H86.4912L86.5791 241.521ZM86.1924 243.885L85.5156 243.858C85.5215 243.208 85.6182 242.607 85.8057 242.057C85.9932 241.5 86.2568 241.017 86.5967 240.606C86.9365 240.196 87.3408 239.88 87.8096 239.657C88.2842 239.429 88.8086 239.314 89.3828 239.314C89.8516 239.314 90.2734 239.379 90.6484 239.508C91.0234 239.631 91.3428 239.83 91.6064 240.105C91.876 240.381 92.0811 240.738 92.2217 241.178C92.3623 241.611 92.4326 242.142 92.4326 242.769V249H90.7979V242.751C90.7979 242.253 90.7246 241.854 90.5781 241.556C90.4316 241.251 90.2178 241.031 89.9365 240.896C89.6553 240.756 89.3096 240.686 88.8994 240.686C88.4951 240.686 88.126 240.771 87.792 240.94C87.4639 241.11 87.1797 241.345 86.9395 241.644C86.7051 241.942 86.5205 242.285 86.3857 242.672C86.2568 243.053 86.1924 243.457 86.1924 243.885ZM107.743 247.62V249H100.967V247.62H107.743ZM101.31 236.203V249H99.6133V236.203H101.31ZM106.847 241.705V243.085H100.967V241.705H106.847ZM107.655 236.203V237.592H100.967V236.203H107.655ZM111.224 241.521V249H109.598V239.49H111.136L111.224 241.521ZM110.837 243.885L110.16 243.858C110.166 243.208 110.263 242.607 110.45 242.057C110.638 241.5 110.901 241.017 111.241 240.606C111.581 240.196 111.985 239.88 112.454 239.657C112.929 239.429 113.453 239.314 114.027 239.314C114.496 239.314 114.918 239.379 115.293 239.508C115.668 239.631 115.987 239.83 116.251 240.105C116.521 240.381 116.726 240.738 116.866 241.178C117.007 241.611 117.077 242.142 117.077 242.769V249H115.442V242.751C115.442 242.253 115.369 241.854 115.223 241.556C115.076 241.251 114.862 241.031 114.581 240.896C114.3 240.756 113.954 240.686 113.544 240.686C113.14 240.686 112.771 240.771 112.437 240.94C112.108 241.11 111.824 241.345 111.584 241.644C111.35 241.942 111.165 242.285 111.03 242.672C110.901 243.053 110.837 243.457 110.837 243.885ZM123.528 239.49V240.738H118.387V239.49H123.528ZM120.127 237.179H121.753V246.645C121.753 246.967 121.803 247.21 121.902 247.374C122.002 247.538 122.131 247.646 122.289 247.699C122.447 247.752 122.617 247.778 122.799 247.778C122.934 247.778 123.074 247.767 123.221 247.743C123.373 247.714 123.487 247.69 123.563 247.673L123.572 249C123.443 249.041 123.273 249.079 123.062 249.114C122.857 249.155 122.608 249.176 122.315 249.176C121.917 249.176 121.551 249.097 121.217 248.938C120.883 248.78 120.616 248.517 120.417 248.147C120.224 247.772 120.127 247.269 120.127 246.636V237.179ZM129.382 249.176C128.72 249.176 128.119 249.064 127.58 248.842C127.047 248.613 126.587 248.294 126.2 247.884C125.819 247.474 125.526 246.987 125.321 246.425C125.116 245.862 125.014 245.247 125.014 244.579V244.21C125.014 243.437 125.128 242.748 125.356 242.145C125.585 241.535 125.896 241.02 126.288 240.598C126.681 240.176 127.126 239.856 127.624 239.64C128.122 239.423 128.638 239.314 129.171 239.314C129.851 239.314 130.437 239.432 130.929 239.666C131.427 239.9 131.834 240.229 132.15 240.65C132.467 241.066 132.701 241.559 132.854 242.127C133.006 242.689 133.082 243.305 133.082 243.973V244.702H125.98V243.375H131.456V243.252C131.433 242.83 131.345 242.42 131.192 242.021C131.046 241.623 130.812 241.295 130.489 241.037C130.167 240.779 129.728 240.65 129.171 240.65C128.802 240.65 128.462 240.729 128.151 240.888C127.841 241.04 127.574 241.269 127.352 241.573C127.129 241.878 126.956 242.25 126.833 242.689C126.71 243.129 126.648 243.636 126.648 244.21V244.579C126.648 245.03 126.71 245.455 126.833 245.854C126.962 246.246 127.146 246.592 127.387 246.891C127.633 247.189 127.929 247.424 128.274 247.594C128.626 247.764 129.024 247.849 129.47 247.849C130.044 247.849 130.53 247.731 130.929 247.497C131.327 247.263 131.676 246.949 131.975 246.557L132.959 247.339C132.754 247.649 132.493 247.945 132.177 248.227C131.86 248.508 131.471 248.736 131.008 248.912C130.551 249.088 130.009 249.176 129.382 249.176ZM136.606 240.984V249H134.98V239.49H136.562L136.606 240.984ZM139.577 239.438L139.568 240.949C139.434 240.92 139.305 240.902 139.182 240.896C139.064 240.885 138.93 240.879 138.777 240.879C138.402 240.879 138.071 240.938 137.784 241.055C137.497 241.172 137.254 241.336 137.055 241.547C136.855 241.758 136.697 242.01 136.58 242.303C136.469 242.59 136.396 242.906 136.36 243.252L135.903 243.516C135.903 242.941 135.959 242.402 136.07 241.898C136.188 241.395 136.366 240.949 136.606 240.562C136.847 240.17 137.151 239.865 137.521 239.648C137.896 239.426 138.341 239.314 138.856 239.314C138.974 239.314 139.108 239.329 139.261 239.358C139.413 239.382 139.519 239.408 139.577 239.438ZM142.706 241.318V252.656H141.071V239.49H142.565L142.706 241.318ZM149.113 244.166V244.351C149.113 245.042 149.031 245.684 148.867 246.275C148.703 246.861 148.463 247.371 148.146 247.805C147.836 248.238 147.452 248.575 146.995 248.815C146.538 249.056 146.014 249.176 145.422 249.176C144.818 249.176 144.285 249.076 143.822 248.877C143.359 248.678 142.967 248.388 142.645 248.007C142.322 247.626 142.064 247.169 141.871 246.636C141.684 246.103 141.555 245.502 141.484 244.834V243.85C141.555 243.146 141.687 242.517 141.88 241.96C142.073 241.403 142.328 240.929 142.645 240.536C142.967 240.138 143.356 239.836 143.813 239.631C144.271 239.42 144.798 239.314 145.396 239.314C145.993 239.314 146.523 239.432 146.986 239.666C147.449 239.895 147.839 240.223 148.155 240.65C148.472 241.078 148.709 241.591 148.867 242.188C149.031 242.78 149.113 243.439 149.113 244.166ZM147.479 244.351V244.166C147.479 243.691 147.429 243.246 147.329 242.83C147.229 242.408 147.074 242.039 146.863 241.723C146.658 241.4 146.395 241.148 146.072 240.967C145.75 240.779 145.366 240.686 144.921 240.686C144.511 240.686 144.153 240.756 143.849 240.896C143.55 241.037 143.295 241.228 143.084 241.468C142.873 241.702 142.7 241.972 142.565 242.276C142.437 242.575 142.34 242.886 142.275 243.208V245.484C142.393 245.895 142.557 246.281 142.768 246.645C142.979 247.002 143.26 247.292 143.611 247.515C143.963 247.731 144.405 247.84 144.938 247.84C145.378 247.84 145.756 247.749 146.072 247.567C146.395 247.38 146.658 247.125 146.863 246.803C147.074 246.48 147.229 246.111 147.329 245.695C147.429 245.273 147.479 244.825 147.479 244.351ZM152.813 240.984V249H151.188V239.49H152.77L152.813 240.984ZM155.784 239.438L155.775 240.949C155.641 240.92 155.512 240.902 155.389 240.896C155.271 240.885 155.137 240.879 154.984 240.879C154.609 240.879 154.278 240.938 153.991 241.055C153.704 241.172 153.461 241.336 153.262 241.547C153.062 241.758 152.904 242.01 152.787 242.303C152.676 242.59 152.603 242.906 152.567 243.252L152.11 243.516C152.11 242.941 152.166 242.402 152.277 241.898C152.395 241.395 152.573 240.949 152.813 240.562C153.054 240.17 153.358 239.865 153.728 239.648C154.103 239.426 154.548 239.314 155.063 239.314C155.181 239.314 155.315 239.329 155.468 239.358C155.62 239.382 155.726 239.408 155.784 239.438ZM159.054 239.49V249H157.419V239.49H159.054ZM157.296 236.968C157.296 236.704 157.375 236.481 157.533 236.3C157.697 236.118 157.938 236.027 158.254 236.027C158.564 236.027 158.802 236.118 158.966 236.3C159.136 236.481 159.221 236.704 159.221 236.968C159.221 237.22 159.136 237.437 158.966 237.618C158.802 237.794 158.564 237.882 158.254 237.882C157.938 237.882 157.697 237.794 157.533 237.618C157.375 237.437 157.296 237.22 157.296 236.968ZM167.201 246.478C167.201 246.243 167.148 246.026 167.043 245.827C166.943 245.622 166.735 245.438 166.419 245.273C166.108 245.104 165.64 244.957 165.013 244.834C164.485 244.723 164.008 244.591 163.58 244.438C163.158 244.286 162.798 244.102 162.499 243.885C162.206 243.668 161.98 243.413 161.822 243.12C161.664 242.827 161.585 242.484 161.585 242.092C161.585 241.717 161.667 241.362 161.831 241.028C162.001 240.694 162.238 240.398 162.543 240.141C162.854 239.883 163.226 239.681 163.659 239.534C164.093 239.388 164.576 239.314 165.109 239.314C165.871 239.314 166.521 239.449 167.061 239.719C167.6 239.988 168.013 240.349 168.3 240.8C168.587 241.245 168.73 241.74 168.73 242.285H167.104C167.104 242.021 167.025 241.767 166.867 241.521C166.715 241.269 166.489 241.061 166.19 240.896C165.897 240.732 165.537 240.65 165.109 240.65C164.658 240.65 164.292 240.721 164.011 240.861C163.735 240.996 163.533 241.169 163.404 241.38C163.281 241.591 163.22 241.813 163.22 242.048C163.22 242.224 163.249 242.382 163.308 242.522C163.372 242.657 163.483 242.783 163.642 242.9C163.8 243.012 164.022 243.117 164.31 243.217C164.597 243.316 164.963 243.416 165.408 243.516C166.188 243.691 166.829 243.902 167.333 244.148C167.837 244.395 168.212 244.696 168.458 245.054C168.704 245.411 168.827 245.845 168.827 246.354C168.827 246.771 168.739 247.151 168.563 247.497C168.394 247.843 168.145 248.142 167.816 248.394C167.494 248.64 167.107 248.833 166.656 248.974C166.211 249.108 165.71 249.176 165.153 249.176C164.315 249.176 163.606 249.026 163.026 248.728C162.446 248.429 162.007 248.042 161.708 247.567C161.409 247.093 161.26 246.592 161.26 246.064H162.895C162.918 246.51 163.047 246.864 163.281 247.128C163.516 247.386 163.803 247.57 164.143 247.682C164.482 247.787 164.819 247.84 165.153 247.84C165.599 247.84 165.971 247.781 166.27 247.664C166.574 247.547 166.806 247.386 166.964 247.181C167.122 246.976 167.201 246.741 167.201 246.478ZM174.909 249.176C174.247 249.176 173.646 249.064 173.107 248.842C172.574 248.613 172.114 248.294 171.728 247.884C171.347 247.474 171.054 246.987 170.849 246.425C170.644 245.862 170.541 245.247 170.541 244.579V244.21C170.541 243.437 170.655 242.748 170.884 242.145C171.112 241.535 171.423 241.02 171.815 240.598C172.208 240.176 172.653 239.856 173.151 239.64C173.649 239.423 174.165 239.314 174.698 239.314C175.378 239.314 175.964 239.432 176.456 239.666C176.954 239.9 177.361 240.229 177.678 240.65C177.994 241.066 178.229 241.559 178.381 242.127C178.533 242.689 178.609 243.305 178.609 243.973V244.702H171.508V243.375H176.983V243.252C176.96 242.83 176.872 242.42 176.72 242.021C176.573 241.623 176.339 241.295 176.017 241.037C175.694 240.779 175.255 240.65 174.698 240.65C174.329 240.65 173.989 240.729 173.679 240.888C173.368 241.04 173.102 241.269 172.879 241.573C172.656 241.878 172.483 242.25 172.36 242.689C172.237 243.129 172.176 243.636 172.176 244.21V244.579C172.176 245.03 172.237 245.455 172.36 245.854C172.489 246.246 172.674 246.592 172.914 246.891C173.16 247.189 173.456 247.424 173.802 247.594C174.153 247.764 174.552 247.849 174.997 247.849C175.571 247.849 176.058 247.731 176.456 247.497C176.854 247.263 177.203 246.949 177.502 246.557L178.486 247.339C178.281 247.649 178.021 247.945 177.704 248.227C177.388 248.508 176.998 248.736 176.535 248.912C176.078 249.088 175.536 249.176 174.909 249.176ZM190.51 246.478C190.51 246.243 190.457 246.026 190.352 245.827C190.252 245.622 190.044 245.438 189.728 245.273C189.417 245.104 188.948 244.957 188.321 244.834C187.794 244.723 187.316 244.591 186.889 244.438C186.467 244.286 186.106 244.102 185.808 243.885C185.515 243.668 185.289 243.413 185.131 243.12C184.973 242.827 184.894 242.484 184.894 242.092C184.894 241.717 184.976 241.362 185.14 241.028C185.31 240.694 185.547 240.398 185.852 240.141C186.162 239.883 186.534 239.681 186.968 239.534C187.401 239.388 187.885 239.314 188.418 239.314C189.18 239.314 189.83 239.449 190.369 239.719C190.908 239.988 191.321 240.349 191.608 240.8C191.896 241.245 192.039 241.74 192.039 242.285H190.413C190.413 242.021 190.334 241.767 190.176 241.521C190.023 241.269 189.798 241.061 189.499 240.896C189.206 240.732 188.846 240.65 188.418 240.65C187.967 240.65 187.601 240.721 187.319 240.861C187.044 240.996 186.842 241.169 186.713 241.38C186.59 241.591 186.528 241.813 186.528 242.048C186.528 242.224 186.558 242.382 186.616 242.522C186.681 242.657 186.792 242.783 186.95 242.9C187.108 243.012 187.331 243.117 187.618 243.217C187.905 243.316 188.271 243.416 188.717 243.516C189.496 243.691 190.138 243.902 190.642 244.148C191.146 244.395 191.521 244.696 191.767 245.054C192.013 245.411 192.136 245.845 192.136 246.354C192.136 246.771 192.048 247.151 191.872 247.497C191.702 247.843 191.453 248.142 191.125 248.394C190.803 248.64 190.416 248.833 189.965 248.974C189.52 249.108 189.019 249.176 188.462 249.176C187.624 249.176 186.915 249.026 186.335 248.728C185.755 248.429 185.315 248.042 185.017 247.567C184.718 247.093 184.568 246.592 184.568 246.064H186.203C186.227 246.51 186.355 246.864 186.59 247.128C186.824 247.386 187.111 247.57 187.451 247.682C187.791 247.787 188.128 247.84 188.462 247.84C188.907 247.84 189.279 247.781 189.578 247.664C189.883 247.547 190.114 247.386 190.272 247.181C190.431 246.976 190.51 246.741 190.51 246.478ZM200.09 246.803V239.49H201.725V249H200.169L200.09 246.803ZM200.397 244.799L201.074 244.781C201.074 245.414 201.007 246 200.872 246.539C200.743 247.072 200.532 247.535 200.239 247.928C199.946 248.32 199.562 248.628 199.088 248.851C198.613 249.067 198.036 249.176 197.356 249.176C196.894 249.176 196.469 249.108 196.082 248.974C195.701 248.839 195.373 248.631 195.098 248.35C194.822 248.068 194.608 247.702 194.456 247.251C194.31 246.8 194.236 246.258 194.236 245.625V239.49H195.862V245.643C195.862 246.07 195.909 246.425 196.003 246.706C196.103 246.981 196.234 247.201 196.398 247.365C196.568 247.523 196.756 247.635 196.961 247.699C197.172 247.764 197.389 247.796 197.611 247.796C198.303 247.796 198.851 247.664 199.255 247.4C199.659 247.131 199.949 246.771 200.125 246.319C200.307 245.862 200.397 245.355 200.397 244.799ZM205.829 241.318V252.656H204.194V239.49H205.688L205.829 241.318ZM212.236 244.166V244.351C212.236 245.042 212.154 245.684 211.99 246.275C211.826 246.861 211.586 247.371 211.27 247.805C210.959 248.238 210.575 248.575 210.118 248.815C209.661 249.056 209.137 249.176 208.545 249.176C207.941 249.176 207.408 249.076 206.945 248.877C206.482 248.678 206.09 248.388 205.768 248.007C205.445 247.626 205.188 247.169 204.994 246.636C204.807 246.103 204.678 245.502 204.607 244.834V243.85C204.678 243.146 204.81 242.517 205.003 241.96C205.196 241.403 205.451 240.929 205.768 240.536C206.09 240.138 206.479 239.836 206.937 239.631C207.394 239.42 207.921 239.314 208.519 239.314C209.116 239.314 209.646 239.432 210.109 239.666C210.572 239.895 210.962 240.223 211.278 240.65C211.595 241.078 211.832 241.591 211.99 242.188C212.154 242.78 212.236 243.439 212.236 244.166ZM210.602 244.351V244.166C210.602 243.691 210.552 243.246 210.452 242.83C210.353 242.408 210.197 242.039 209.986 241.723C209.781 241.4 209.518 241.148 209.195 240.967C208.873 240.779 208.489 240.686 208.044 240.686C207.634 240.686 207.276 240.756 206.972 240.896C206.673 241.037 206.418 241.228 206.207 241.468C205.996 241.702 205.823 241.972 205.688 242.276C205.56 242.575 205.463 242.886 205.398 243.208V245.484C205.516 245.895 205.68 246.281 205.891 246.645C206.102 247.002 206.383 247.292 206.734 247.515C207.086 247.731 207.528 247.84 208.062 247.84C208.501 247.84 208.879 247.749 209.195 247.567C209.518 247.38 209.781 247.125 209.986 246.803C210.197 246.48 210.353 246.111 210.452 245.695C210.552 245.273 210.602 244.825 210.602 244.351ZM215.937 241.318V252.656H214.302V239.49H215.796L215.937 241.318ZM222.344 244.166V244.351C222.344 245.042 222.262 245.684 222.098 246.275C221.934 246.861 221.693 247.371 221.377 247.805C221.066 248.238 220.683 248.575 220.226 248.815C219.769 249.056 219.244 249.176 218.652 249.176C218.049 249.176 217.516 249.076 217.053 248.877C216.59 248.678 216.197 248.388 215.875 248.007C215.553 247.626 215.295 247.169 215.102 246.636C214.914 246.103 214.785 245.502 214.715 244.834V243.85C214.785 243.146 214.917 242.517 215.11 241.96C215.304 241.403 215.559 240.929 215.875 240.536C216.197 240.138 216.587 239.836 217.044 239.631C217.501 239.42 218.028 239.314 218.626 239.314C219.224 239.314 219.754 239.432 220.217 239.666C220.68 239.895 221.069 240.223 221.386 240.65C221.702 241.078 221.939 241.591 222.098 242.188C222.262 242.78 222.344 243.439 222.344 244.166ZM220.709 244.351V244.166C220.709 243.691 220.659 243.246 220.56 242.83C220.46 242.408 220.305 242.039 220.094 241.723C219.889 241.4 219.625 241.148 219.303 240.967C218.98 240.779 218.597 240.686 218.151 240.686C217.741 240.686 217.384 240.756 217.079 240.896C216.78 241.037 216.525 241.228 216.314 241.468C216.104 241.702 215.931 241.972 215.796 242.276C215.667 242.575 215.57 242.886 215.506 243.208V245.484C215.623 245.895 215.787 246.281 215.998 246.645C216.209 247.002 216.49 247.292 216.842 247.515C217.193 247.731 217.636 247.84 218.169 247.84C218.608 247.84 218.986 247.749 219.303 247.567C219.625 247.38 219.889 247.125 220.094 246.803C220.305 246.48 220.46 246.111 220.56 245.695C220.659 245.273 220.709 244.825 220.709 244.351ZM223.987 244.351V244.148C223.987 243.463 224.087 242.827 224.286 242.241C224.485 241.649 224.772 241.137 225.147 240.703C225.522 240.264 225.977 239.924 226.51 239.684C227.043 239.438 227.641 239.314 228.303 239.314C228.971 239.314 229.571 239.438 230.104 239.684C230.644 239.924 231.101 240.264 231.476 240.703C231.856 241.137 232.146 241.649 232.346 242.241C232.545 242.827 232.645 243.463 232.645 244.148V244.351C232.645 245.036 232.545 245.672 232.346 246.258C232.146 246.844 231.856 247.356 231.476 247.796C231.101 248.229 230.646 248.569 230.113 248.815C229.586 249.056 228.988 249.176 228.32 249.176C227.652 249.176 227.052 249.056 226.519 248.815C225.985 248.569 225.528 248.229 225.147 247.796C224.772 247.356 224.485 246.844 224.286 246.258C224.087 245.672 223.987 245.036 223.987 244.351ZM225.613 244.148V244.351C225.613 244.825 225.669 245.273 225.78 245.695C225.892 246.111 226.059 246.48 226.281 246.803C226.51 247.125 226.794 247.38 227.134 247.567C227.474 247.749 227.869 247.84 228.32 247.84C228.766 247.84 229.155 247.749 229.489 247.567C229.829 247.38 230.11 247.125 230.333 246.803C230.556 246.48 230.723 246.111 230.834 245.695C230.951 245.273 231.01 244.825 231.01 244.351V244.148C231.01 243.68 230.951 243.237 230.834 242.821C230.723 242.399 230.553 242.027 230.324 241.705C230.102 241.377 229.82 241.119 229.48 240.932C229.146 240.744 228.754 240.65 228.303 240.65C227.857 240.65 227.465 240.744 227.125 240.932C226.791 241.119 226.51 241.377 226.281 241.705C226.059 242.027 225.892 242.399 225.78 242.821C225.669 243.237 225.613 243.68 225.613 244.148ZM236.31 240.984V249H234.684V239.49H236.266L236.31 240.984ZM239.28 239.438L239.271 240.949C239.137 240.92 239.008 240.902 238.885 240.896C238.768 240.885 238.633 240.879 238.48 240.879C238.105 240.879 237.774 240.938 237.487 241.055C237.2 241.172 236.957 241.336 236.758 241.547C236.559 241.758 236.4 242.01 236.283 242.303C236.172 242.59 236.099 242.906 236.063 243.252L235.606 243.516C235.606 242.941 235.662 242.402 235.773 241.898C235.891 241.395 236.069 240.949 236.31 240.562C236.55 240.17 236.854 239.865 237.224 239.648C237.599 239.426 238.044 239.314 238.56 239.314C238.677 239.314 238.812 239.329 238.964 239.358C239.116 239.382 239.222 239.408 239.28 239.438ZM245.204 239.49V240.738H240.062V239.49H245.204ZM241.803 237.179H243.429V246.645C243.429 246.967 243.479 247.21 243.578 247.374C243.678 247.538 243.807 247.646 243.965 247.699C244.123 247.752 244.293 247.778 244.475 247.778C244.609 247.778 244.75 247.767 244.896 247.743C245.049 247.714 245.163 247.69 245.239 247.673L245.248 249C245.119 249.041 244.949 249.079 244.738 249.114C244.533 249.155 244.284 249.176 243.991 249.176C243.593 249.176 243.227 249.097 242.893 248.938C242.559 248.78 242.292 248.517 242.093 248.147C241.899 247.772 241.803 247.269 241.803 246.636V237.179ZM252.648 246.478C252.648 246.243 252.596 246.026 252.49 245.827C252.391 245.622 252.183 245.438 251.866 245.273C251.556 245.104 251.087 244.957 250.46 244.834C249.933 244.723 249.455 244.591 249.027 244.438C248.605 244.286 248.245 244.102 247.946 243.885C247.653 243.668 247.428 243.413 247.27 243.12C247.111 242.827 247.032 242.484 247.032 242.092C247.032 241.717 247.114 241.362 247.278 241.028C247.448 240.694 247.686 240.398 247.99 240.141C248.301 239.883 248.673 239.681 249.106 239.534C249.54 239.388 250.023 239.314 250.557 239.314C251.318 239.314 251.969 239.449 252.508 239.719C253.047 239.988 253.46 240.349 253.747 240.8C254.034 241.245 254.178 241.74 254.178 242.285H252.552C252.552 242.021 252.473 241.767 252.314 241.521C252.162 241.269 251.937 241.061 251.638 240.896C251.345 240.732 250.984 240.65 250.557 240.65C250.105 240.65 249.739 240.721 249.458 240.861C249.183 240.996 248.98 241.169 248.852 241.38C248.729 241.591 248.667 241.813 248.667 242.048C248.667 242.224 248.696 242.382 248.755 242.522C248.819 242.657 248.931 242.783 249.089 242.9C249.247 243.012 249.47 243.117 249.757 243.217C250.044 243.316 250.41 243.416 250.855 243.516C251.635 243.691 252.276 243.902 252.78 244.148C253.284 244.395 253.659 244.696 253.905 245.054C254.151 245.411 254.274 245.845 254.274 246.354C254.274 246.771 254.187 247.151 254.011 247.497C253.841 247.843 253.592 248.142 253.264 248.394C252.941 248.64 252.555 248.833 252.104 248.974C251.658 249.108 251.157 249.176 250.601 249.176C249.763 249.176 249.054 249.026 248.474 248.728C247.894 248.429 247.454 248.042 247.155 247.567C246.856 247.093 246.707 246.592 246.707 246.064H248.342C248.365 246.51 248.494 246.864 248.729 247.128C248.963 247.386 249.25 247.57 249.59 247.682C249.93 247.787 250.267 247.84 250.601 247.84C251.046 247.84 251.418 247.781 251.717 247.664C252.021 247.547 252.253 247.386 252.411 247.181C252.569 246.976 252.648 246.741 252.648 246.478ZM260.866 235.5H262.501V247.154L262.36 249H260.866V235.5ZM268.926 244.166V244.351C268.926 245.042 268.844 245.684 268.68 246.275C268.516 246.861 268.275 247.371 267.959 247.805C267.643 248.238 267.256 248.575 266.799 248.815C266.342 249.056 265.817 249.176 265.226 249.176C264.622 249.176 264.092 249.073 263.635 248.868C263.184 248.657 262.803 248.355 262.492 247.963C262.182 247.57 261.933 247.096 261.745 246.539C261.563 245.982 261.438 245.355 261.367 244.658V243.85C261.438 243.146 261.563 242.517 261.745 241.96C261.933 241.403 262.182 240.929 262.492 240.536C262.803 240.138 263.184 239.836 263.635 239.631C264.086 239.42 264.61 239.314 265.208 239.314C265.806 239.314 266.336 239.432 266.799 239.666C267.262 239.895 267.648 240.223 267.959 240.65C268.275 241.078 268.516 241.591 268.68 242.188C268.844 242.78 268.926 243.439 268.926 244.166ZM267.291 244.351V244.166C267.291 243.691 267.247 243.246 267.159 242.83C267.071 242.408 266.931 242.039 266.737 241.723C266.544 241.4 266.289 241.148 265.973 240.967C265.656 240.779 265.267 240.686 264.804 240.686C264.394 240.686 264.036 240.756 263.731 240.896C263.433 241.037 263.178 241.228 262.967 241.468C262.756 241.702 262.583 241.972 262.448 242.276C262.319 242.575 262.223 242.886 262.158 243.208V245.326C262.252 245.736 262.404 246.132 262.615 246.513C262.832 246.888 263.119 247.195 263.477 247.436C263.84 247.676 264.288 247.796 264.821 247.796C265.261 247.796 265.636 247.708 265.946 247.532C266.263 247.351 266.518 247.102 266.711 246.785C266.91 246.469 267.057 246.103 267.15 245.687C267.244 245.271 267.291 244.825 267.291 244.351ZM274.929 249.176C274.267 249.176 273.666 249.064 273.127 248.842C272.594 248.613 272.134 248.294 271.747 247.884C271.366 247.474 271.073 246.987 270.868 246.425C270.663 245.862 270.561 245.247 270.561 244.579V244.21C270.561 243.437 270.675 242.748 270.903 242.145C271.132 241.535 271.442 241.02 271.835 240.598C272.228 240.176 272.673 239.856 273.171 239.64C273.669 239.423 274.185 239.314 274.718 239.314C275.397 239.314 275.983 239.432 276.476 239.666C276.974 239.9 277.381 240.229 277.697 240.65C278.014 241.066 278.248 241.559 278.4 242.127C278.553 242.689 278.629 243.305 278.629 243.973V244.702H271.527V243.375H277.003V243.252C276.979 242.83 276.892 242.42 276.739 242.021C276.593 241.623 276.358 241.295 276.036 241.037C275.714 240.779 275.274 240.65 274.718 240.65C274.349 240.65 274.009 240.729 273.698 240.888C273.388 241.04 273.121 241.269 272.898 241.573C272.676 241.878 272.503 242.25 272.38 242.689C272.257 243.129 272.195 243.636 272.195 244.21V244.579C272.195 245.03 272.257 245.455 272.38 245.854C272.509 246.246 272.693 246.592 272.934 246.891C273.18 247.189 273.476 247.424 273.821 247.594C274.173 247.764 274.571 247.849 275.017 247.849C275.591 247.849 276.077 247.731 276.476 247.497C276.874 247.263 277.223 246.949 277.521 246.557L278.506 247.339C278.301 247.649 278.04 247.945 277.724 248.227C277.407 248.508 277.018 248.736 276.555 248.912C276.098 249.088 275.556 249.176 274.929 249.176ZM286.064 246.478C286.064 246.243 286.012 246.026 285.906 245.827C285.807 245.622 285.599 245.438 285.282 245.273C284.972 245.104 284.503 244.957 283.876 244.834C283.349 244.723 282.871 244.591 282.443 244.438C282.021 244.286 281.661 244.102 281.362 243.885C281.069 243.668 280.844 243.413 280.686 243.12C280.527 242.827 280.448 242.484 280.448 242.092C280.448 241.717 280.53 241.362 280.694 241.028C280.864 240.694 281.102 240.398 281.406 240.141C281.717 239.883 282.089 239.681 282.522 239.534C282.956 239.388 283.439 239.314 283.973 239.314C284.734 239.314 285.385 239.449 285.924 239.719C286.463 239.988 286.876 240.349 287.163 240.8C287.45 241.245 287.594 241.74 287.594 242.285H285.968C285.968 242.021 285.889 241.767 285.73 241.521C285.578 241.269 285.353 241.061 285.054 240.896C284.761 240.732 284.4 240.65 283.973 240.65C283.521 240.65 283.155 240.721 282.874 240.861C282.599 240.996 282.396 241.169 282.268 241.38C282.145 241.591 282.083 241.813 282.083 242.048C282.083 242.224 282.112 242.382 282.171 242.522C282.235 242.657 282.347 242.783 282.505 242.9C282.663 243.012 282.886 243.117 283.173 243.217C283.46 243.316 283.826 243.416 284.271 243.516C285.051 243.691 285.692 243.902 286.196 244.148C286.7 244.395 287.075 244.696 287.321 245.054C287.567 245.411 287.69 245.845 287.69 246.354C287.69 246.771 287.603 247.151 287.427 247.497C287.257 247.843 287.008 248.142 286.68 248.394C286.357 248.64 285.971 248.833 285.52 248.974C285.074 249.108 284.573 249.176 284.017 249.176C283.179 249.176 282.47 249.026 281.89 248.728C281.31 248.429 280.87 248.042 280.571 247.567C280.272 247.093 280.123 246.592 280.123 246.064H281.758C281.781 246.51 281.91 246.864 282.145 247.128C282.379 247.386 282.666 247.57 283.006 247.682C283.346 247.787 283.683 247.84 284.017 247.84C284.462 247.84 284.834 247.781 285.133 247.664C285.438 247.547 285.669 247.386 285.827 247.181C285.985 246.976 286.064 246.741 286.064 246.478ZM293.808 239.49V240.738H288.666V239.49H293.808ZM290.406 237.179H292.032V246.645C292.032 246.967 292.082 247.21 292.182 247.374C292.281 247.538 292.41 247.646 292.568 247.699C292.727 247.752 292.896 247.778 293.078 247.778C293.213 247.778 293.354 247.767 293.5 247.743C293.652 247.714 293.767 247.69 293.843 247.673L293.852 249C293.723 249.041 293.553 249.079 293.342 249.114C293.137 249.155 292.888 249.176 292.595 249.176C292.196 249.176 291.83 249.097 291.496 248.938C291.162 248.78 290.896 248.517 290.696 248.147C290.503 247.772 290.406 247.269 290.406 246.636V237.179ZM301.806 241.318V252.656H300.171V239.49H301.665L301.806 241.318ZM308.213 244.166V244.351C308.213 245.042 308.131 245.684 307.967 246.275C307.803 246.861 307.562 247.371 307.246 247.805C306.936 248.238 306.552 248.575 306.095 248.815C305.638 249.056 305.113 249.176 304.521 249.176C303.918 249.176 303.385 249.076 302.922 248.877C302.459 248.678 302.066 248.388 301.744 248.007C301.422 247.626 301.164 247.169 300.971 246.636C300.783 246.103 300.654 245.502 300.584 244.834V243.85C300.654 243.146 300.786 242.517 300.979 241.96C301.173 241.403 301.428 240.929 301.744 240.536C302.066 240.138 302.456 239.836 302.913 239.631C303.37 239.42 303.897 239.314 304.495 239.314C305.093 239.314 305.623 239.432 306.086 239.666C306.549 239.895 306.938 240.223 307.255 240.65C307.571 241.078 307.809 241.591 307.967 242.188C308.131 242.78 308.213 243.439 308.213 244.166ZM306.578 244.351V244.166C306.578 243.691 306.528 243.246 306.429 242.83C306.329 242.408 306.174 242.039 305.963 241.723C305.758 241.4 305.494 241.148 305.172 240.967C304.85 240.779 304.466 240.686 304.021 240.686C303.61 240.686 303.253 240.756 302.948 240.896C302.649 241.037 302.395 241.228 302.184 241.468C301.973 241.702 301.8 241.972 301.665 242.276C301.536 242.575 301.439 242.886 301.375 243.208V245.484C301.492 245.895 301.656 246.281 301.867 246.645C302.078 247.002 302.359 247.292 302.711 247.515C303.062 247.731 303.505 247.84 304.038 247.84C304.478 247.84 304.855 247.749 305.172 247.567C305.494 247.38 305.758 247.125 305.963 246.803C306.174 246.48 306.329 246.111 306.429 245.695C306.528 245.273 306.578 244.825 306.578 244.351ZM311.913 240.984V249H310.287V239.49H311.869L311.913 240.984ZM314.884 239.438L314.875 240.949C314.74 240.92 314.611 240.902 314.488 240.896C314.371 240.885 314.236 240.879 314.084 240.879C313.709 240.879 313.378 240.938 313.091 241.055C312.804 241.172 312.561 241.336 312.361 241.547C312.162 241.758 312.004 242.01 311.887 242.303C311.775 242.59 311.702 242.906 311.667 243.252L311.21 243.516C311.21 242.941 311.266 242.402 311.377 241.898C311.494 241.395 311.673 240.949 311.913 240.562C312.153 240.17 312.458 239.865 312.827 239.648C313.202 239.426 313.647 239.314 314.163 239.314C314.28 239.314 314.415 239.329 314.567 239.358C314.72 239.382 314.825 239.408 314.884 239.438ZM321.643 247.374V242.479C321.643 242.104 321.566 241.778 321.414 241.503C321.268 241.222 321.045 241.005 320.746 240.853C320.447 240.7 320.078 240.624 319.639 240.624C319.229 240.624 318.868 240.694 318.558 240.835C318.253 240.976 318.013 241.16 317.837 241.389C317.667 241.617 317.582 241.863 317.582 242.127H315.956C315.956 241.787 316.044 241.45 316.22 241.116C316.396 240.782 316.647 240.48 316.976 240.211C317.31 239.936 317.708 239.719 318.171 239.561C318.64 239.396 319.161 239.314 319.735 239.314C320.427 239.314 321.036 239.432 321.563 239.666C322.097 239.9 322.513 240.255 322.812 240.729C323.116 241.198 323.269 241.787 323.269 242.496V246.926C323.269 247.242 323.295 247.579 323.348 247.937C323.406 248.294 323.491 248.602 323.603 248.859V249H321.906C321.824 248.812 321.76 248.563 321.713 248.253C321.666 247.937 321.643 247.644 321.643 247.374ZM321.924 243.234L321.941 244.377H320.298C319.835 244.377 319.422 244.415 319.059 244.491C318.695 244.562 318.391 244.67 318.145 244.816C317.898 244.963 317.711 245.147 317.582 245.37C317.453 245.587 317.389 245.842 317.389 246.135C317.389 246.434 317.456 246.706 317.591 246.952C317.726 247.198 317.928 247.395 318.197 247.541C318.473 247.682 318.81 247.752 319.208 247.752C319.706 247.752 320.146 247.646 320.526 247.436C320.907 247.225 321.209 246.967 321.432 246.662C321.66 246.357 321.783 246.062 321.801 245.774L322.495 246.557C322.454 246.803 322.343 247.075 322.161 247.374C321.979 247.673 321.736 247.96 321.432 248.235C321.133 248.505 320.775 248.73 320.359 248.912C319.949 249.088 319.486 249.176 318.971 249.176C318.326 249.176 317.761 249.05 317.274 248.798C316.794 248.546 316.419 248.209 316.149 247.787C315.886 247.359 315.754 246.882 315.754 246.354C315.754 245.845 315.854 245.396 316.053 245.01C316.252 244.617 316.539 244.292 316.914 244.034C317.289 243.771 317.74 243.571 318.268 243.437C318.795 243.302 319.384 243.234 320.034 243.234H321.924ZM329.632 247.84C330.019 247.84 330.376 247.761 330.704 247.603C331.032 247.444 331.302 247.228 331.513 246.952C331.724 246.671 331.844 246.352 331.873 245.994H333.42C333.391 246.557 333.2 247.081 332.849 247.567C332.503 248.048 332.049 248.438 331.486 248.736C330.924 249.029 330.306 249.176 329.632 249.176C328.917 249.176 328.293 249.05 327.76 248.798C327.232 248.546 326.793 248.2 326.441 247.761C326.096 247.321 325.835 246.817 325.659 246.249C325.489 245.675 325.404 245.068 325.404 244.43V244.061C325.404 243.422 325.489 242.818 325.659 242.25C325.835 241.676 326.096 241.169 326.441 240.729C326.793 240.29 327.232 239.944 327.76 239.692C328.293 239.44 328.917 239.314 329.632 239.314C330.376 239.314 331.026 239.467 331.583 239.771C332.14 240.07 332.576 240.48 332.893 241.002C333.215 241.518 333.391 242.104 333.42 242.76H331.873C331.844 242.367 331.732 242.013 331.539 241.696C331.352 241.38 331.094 241.128 330.766 240.94C330.443 240.747 330.065 240.65 329.632 240.65C329.134 240.65 328.715 240.75 328.375 240.949C328.041 241.143 327.774 241.406 327.575 241.74C327.382 242.068 327.241 242.435 327.153 242.839C327.071 243.237 327.03 243.645 327.03 244.061V244.43C327.03 244.846 327.071 245.256 327.153 245.66C327.235 246.064 327.373 246.431 327.566 246.759C327.766 247.087 328.032 247.351 328.366 247.55C328.706 247.743 329.128 247.84 329.632 247.84ZM339.229 239.49V240.738H334.088V239.49H339.229ZM335.828 237.179H337.454V246.645C337.454 246.967 337.504 247.21 337.604 247.374C337.703 247.538 337.832 247.646 337.99 247.699C338.148 247.752 338.318 247.778 338.5 247.778C338.635 247.778 338.775 247.767 338.922 247.743C339.074 247.714 339.188 247.69 339.265 247.673L339.273 249C339.145 249.041 338.975 249.079 338.764 249.114C338.559 249.155 338.31 249.176 338.017 249.176C337.618 249.176 337.252 249.097 336.918 248.938C336.584 248.78 336.317 248.517 336.118 248.147C335.925 247.772 335.828 247.269 335.828 246.636V237.179ZM342.903 239.49V249H341.269V239.49H342.903ZM341.146 236.968C341.146 236.704 341.225 236.481 341.383 236.3C341.547 236.118 341.787 236.027 342.104 236.027C342.414 236.027 342.651 236.118 342.815 236.3C342.985 236.481 343.07 236.704 343.07 236.968C343.07 237.22 342.985 237.437 342.815 237.618C342.651 237.794 342.414 237.882 342.104 237.882C341.787 237.882 341.547 237.794 341.383 237.618C341.225 237.437 341.146 237.22 341.146 236.968ZM349.319 247.84C349.706 247.84 350.063 247.761 350.392 247.603C350.72 247.444 350.989 247.228 351.2 246.952C351.411 246.671 351.531 246.352 351.561 245.994H353.107C353.078 246.557 352.888 247.081 352.536 247.567C352.19 248.048 351.736 248.438 351.174 248.736C350.611 249.029 349.993 249.176 349.319 249.176C348.604 249.176 347.98 249.05 347.447 248.798C346.92 248.546 346.48 248.2 346.129 247.761C345.783 247.321 345.522 246.817 345.347 246.249C345.177 245.675 345.092 245.068 345.092 244.43V244.061C345.092 243.422 345.177 242.818 345.347 242.25C345.522 241.676 345.783 241.169 346.129 240.729C346.48 240.29 346.92 239.944 347.447 239.692C347.98 239.44 348.604 239.314 349.319 239.314C350.063 239.314 350.714 239.467 351.271 239.771C351.827 240.07 352.264 240.48 352.58 241.002C352.902 241.518 353.078 242.104 353.107 242.76H351.561C351.531 242.367 351.42 242.013 351.227 241.696C351.039 241.38 350.781 241.128 350.453 240.94C350.131 240.747 349.753 240.65 349.319 240.65C348.821 240.65 348.402 240.75 348.062 240.949C347.729 241.143 347.462 241.406 347.263 241.74C347.069 242.068 346.929 242.435 346.841 242.839C346.759 243.237 346.718 243.645 346.718 244.061V244.43C346.718 244.846 346.759 245.256 346.841 245.66C346.923 246.064 347.061 246.431 347.254 246.759C347.453 247.087 347.72 247.351 348.054 247.55C348.394 247.743 348.815 247.84 349.319 247.84ZM358.882 249.176C358.22 249.176 357.619 249.064 357.08 248.842C356.547 248.613 356.087 248.294 355.7 247.884C355.319 247.474 355.026 246.987 354.821 246.425C354.616 245.862 354.514 245.247 354.514 244.579V244.21C354.514 243.437 354.628 242.748 354.856 242.145C355.085 241.535 355.396 241.02 355.788 240.598C356.181 240.176 356.626 239.856 357.124 239.64C357.622 239.423 358.138 239.314 358.671 239.314C359.351 239.314 359.937 239.432 360.429 239.666C360.927 239.9 361.334 240.229 361.65 240.65C361.967 241.066 362.201 241.559 362.354 242.127C362.506 242.689 362.582 243.305 362.582 243.973V244.702H355.48V243.375H360.956V243.252C360.933 242.83 360.845 242.42 360.692 242.021C360.546 241.623 360.312 241.295 359.989 241.037C359.667 240.779 359.228 240.65 358.671 240.65C358.302 240.65 357.962 240.729 357.651 240.888C357.341 241.04 357.074 241.269 356.852 241.573C356.629 241.878 356.456 242.25 356.333 242.689C356.21 243.129 356.148 243.636 356.148 244.21V244.579C356.148 245.03 356.21 245.455 356.333 245.854C356.462 246.246 356.646 246.592 356.887 246.891C357.133 247.189 357.429 247.424 357.774 247.594C358.126 247.764 358.524 247.849 358.97 247.849C359.544 247.849 360.03 247.731 360.429 247.497C360.827 247.263 361.176 246.949 361.475 246.557L362.459 247.339C362.254 247.649 361.993 247.945 361.677 248.227C361.36 248.508 360.971 248.736 360.508 248.912C360.051 249.088 359.509 249.176 358.882 249.176ZM370.018 246.478C370.018 246.243 369.965 246.026 369.859 245.827C369.76 245.622 369.552 245.438 369.235 245.273C368.925 245.104 368.456 244.957 367.829 244.834C367.302 244.723 366.824 244.591 366.396 244.438C365.975 244.286 365.614 244.102 365.315 243.885C365.022 243.668 364.797 243.413 364.639 243.12C364.48 242.827 364.401 242.484 364.401 242.092C364.401 241.717 364.483 241.362 364.647 241.028C364.817 240.694 365.055 240.398 365.359 240.141C365.67 239.883 366.042 239.681 366.476 239.534C366.909 239.388 367.393 239.314 367.926 239.314C368.688 239.314 369.338 239.449 369.877 239.719C370.416 239.988 370.829 240.349 371.116 240.8C371.403 241.245 371.547 241.74 371.547 242.285H369.921C369.921 242.021 369.842 241.767 369.684 241.521C369.531 241.269 369.306 241.061 369.007 240.896C368.714 240.732 368.354 240.65 367.926 240.65C367.475 240.65 367.108 240.721 366.827 240.861C366.552 240.996 366.35 241.169 366.221 241.38C366.098 241.591 366.036 241.813 366.036 242.048C366.036 242.224 366.065 242.382 366.124 242.522C366.188 242.657 366.3 242.783 366.458 242.9C366.616 243.012 366.839 243.117 367.126 243.217C367.413 243.316 367.779 243.416 368.225 243.516C369.004 243.691 369.646 243.902 370.149 244.148C370.653 244.395 371.028 244.696 371.274 245.054C371.521 245.411 371.644 245.845 371.644 246.354C371.644 246.771 371.556 247.151 371.38 247.497C371.21 247.843 370.961 248.142 370.633 248.394C370.311 248.64 369.924 248.833 369.473 248.974C369.027 249.108 368.526 249.176 367.97 249.176C367.132 249.176 366.423 249.026 365.843 248.728C365.263 248.429 364.823 248.042 364.524 247.567C364.226 247.093 364.076 246.592 364.076 246.064H365.711C365.734 246.51 365.863 246.864 366.098 247.128C366.332 247.386 366.619 247.57 366.959 247.682C367.299 247.787 367.636 247.84 367.97 247.84C368.415 247.84 368.787 247.781 369.086 247.664C369.391 247.547 369.622 247.386 369.78 247.181C369.938 246.976 370.018 246.741 370.018 246.478ZM380.011 239.49V249H378.376V239.49H380.011ZM378.253 236.968C378.253 236.704 378.332 236.481 378.49 236.3C378.654 236.118 378.895 236.027 379.211 236.027C379.521 236.027 379.759 236.118 379.923 236.3C380.093 236.481 380.178 236.704 380.178 236.968C380.178 237.22 380.093 237.437 379.923 237.618C379.759 237.794 379.521 237.882 379.211 237.882C378.895 237.882 378.654 237.794 378.49 237.618C378.332 237.437 378.253 237.22 378.253 236.968ZM384.247 241.521V249H382.621V239.49H384.159L384.247 241.521ZM383.86 243.885L383.184 243.858C383.189 243.208 383.286 242.607 383.474 242.057C383.661 241.5 383.925 241.017 384.265 240.606C384.604 240.196 385.009 239.88 385.478 239.657C385.952 239.429 386.477 239.314 387.051 239.314C387.52 239.314 387.941 239.379 388.316 239.508C388.691 239.631 389.011 239.83 389.274 240.105C389.544 240.381 389.749 240.738 389.89 241.178C390.03 241.611 390.101 242.142 390.101 242.769V249H388.466V242.751C388.466 242.253 388.393 241.854 388.246 241.556C388.1 241.251 387.886 241.031 387.604 240.896C387.323 240.756 386.978 240.686 386.567 240.686C386.163 240.686 385.794 240.771 385.46 240.94C385.132 241.11 384.848 241.345 384.607 241.644C384.373 241.942 384.188 242.285 384.054 242.672C383.925 243.053 383.86 243.457 383.86 243.885ZM126.464 272.478C126.464 272.243 126.411 272.026 126.306 271.827C126.206 271.622 125.998 271.438 125.682 271.273C125.371 271.104 124.902 270.957 124.275 270.834C123.748 270.723 123.271 270.591 122.843 270.438C122.421 270.286 122.061 270.102 121.762 269.885C121.469 269.668 121.243 269.413 121.085 269.12C120.927 268.827 120.848 268.484 120.848 268.092C120.848 267.717 120.93 267.362 121.094 267.028C121.264 266.694 121.501 266.398 121.806 266.141C122.116 265.883 122.488 265.681 122.922 265.534C123.355 265.388 123.839 265.314 124.372 265.314C125.134 265.314 125.784 265.449 126.323 265.719C126.862 265.988 127.275 266.349 127.562 266.8C127.85 267.245 127.993 267.74 127.993 268.285H126.367C126.367 268.021 126.288 267.767 126.13 267.521C125.978 267.269 125.752 267.061 125.453 266.896C125.16 266.732 124.8 266.65 124.372 266.65C123.921 266.65 123.555 266.721 123.273 266.861C122.998 266.996 122.796 267.169 122.667 267.38C122.544 267.591 122.482 267.813 122.482 268.048C122.482 268.224 122.512 268.382 122.57 268.522C122.635 268.657 122.746 268.783 122.904 268.9C123.062 269.012 123.285 269.117 123.572 269.217C123.859 269.316 124.226 269.416 124.671 269.516C125.45 269.691 126.092 269.902 126.596 270.148C127.1 270.395 127.475 270.696 127.721 271.054C127.967 271.411 128.09 271.845 128.09 272.354C128.09 272.771 128.002 273.151 127.826 273.497C127.656 273.843 127.407 274.142 127.079 274.394C126.757 274.64 126.37 274.833 125.919 274.974C125.474 275.108 124.973 275.176 124.416 275.176C123.578 275.176 122.869 275.026 122.289 274.728C121.709 274.429 121.27 274.042 120.971 273.567C120.672 273.093 120.522 272.592 120.522 272.064H122.157C122.181 272.51 122.31 272.864 122.544 273.128C122.778 273.386 123.065 273.57 123.405 273.682C123.745 273.787 124.082 273.84 124.416 273.84C124.861 273.84 125.233 273.781 125.532 273.664C125.837 273.547 126.068 273.386 126.227 273.181C126.385 272.976 126.464 272.741 126.464 272.478ZM129.795 270.351V270.148C129.795 269.463 129.895 268.827 130.094 268.241C130.293 267.649 130.58 267.137 130.955 266.703C131.33 266.264 131.784 265.924 132.317 265.684C132.851 265.438 133.448 265.314 134.11 265.314C134.778 265.314 135.379 265.438 135.912 265.684C136.451 265.924 136.908 266.264 137.283 266.703C137.664 267.137 137.954 267.649 138.153 268.241C138.353 268.827 138.452 269.463 138.452 270.148V270.351C138.452 271.036 138.353 271.672 138.153 272.258C137.954 272.844 137.664 273.356 137.283 273.796C136.908 274.229 136.454 274.569 135.921 274.815C135.394 275.056 134.796 275.176 134.128 275.176C133.46 275.176 132.859 275.056 132.326 274.815C131.793 274.569 131.336 274.229 130.955 273.796C130.58 273.356 130.293 272.844 130.094 272.258C129.895 271.672 129.795 271.036 129.795 270.351ZM131.421 270.148V270.351C131.421 270.825 131.477 271.273 131.588 271.695C131.699 272.111 131.866 272.48 132.089 272.803C132.317 273.125 132.602 273.38 132.941 273.567C133.281 273.749 133.677 273.84 134.128 273.84C134.573 273.84 134.963 273.749 135.297 273.567C135.637 273.38 135.918 273.125 136.141 272.803C136.363 272.48 136.53 272.111 136.642 271.695C136.759 271.273 136.817 270.825 136.817 270.351V270.148C136.817 269.68 136.759 269.237 136.642 268.821C136.53 268.399 136.36 268.027 136.132 267.705C135.909 267.377 135.628 267.119 135.288 266.932C134.954 266.744 134.562 266.65 134.11 266.65C133.665 266.65 133.272 266.744 132.933 266.932C132.599 267.119 132.317 267.377 132.089 267.705C131.866 268.027 131.699 268.399 131.588 268.821C131.477 269.237 131.421 269.68 131.421 270.148ZM144.297 273.84C144.684 273.84 145.041 273.761 145.369 273.603C145.697 273.444 145.967 273.228 146.178 272.952C146.389 272.671 146.509 272.352 146.538 271.994H148.085C148.056 272.557 147.865 273.081 147.514 273.567C147.168 274.048 146.714 274.438 146.151 274.736C145.589 275.029 144.971 275.176 144.297 275.176C143.582 275.176 142.958 275.05 142.425 274.798C141.897 274.546 141.458 274.2 141.106 273.761C140.761 273.321 140.5 272.817 140.324 272.249C140.154 271.675 140.069 271.068 140.069 270.43V270.061C140.069 269.422 140.154 268.818 140.324 268.25C140.5 267.676 140.761 267.169 141.106 266.729C141.458 266.29 141.897 265.944 142.425 265.692C142.958 265.44 143.582 265.314 144.297 265.314C145.041 265.314 145.691 265.467 146.248 265.771C146.805 266.07 147.241 266.48 147.558 267.002C147.88 267.518 148.056 268.104 148.085 268.76H146.538C146.509 268.367 146.397 268.013 146.204 267.696C146.017 267.38 145.759 267.128 145.431 266.94C145.108 266.747 144.73 266.65 144.297 266.65C143.799 266.65 143.38 266.75 143.04 266.949C142.706 267.143 142.439 267.406 142.24 267.74C142.047 268.068 141.906 268.435 141.818 268.839C141.736 269.237 141.695 269.645 141.695 270.061V270.43C141.695 270.846 141.736 271.256 141.818 271.66C141.9 272.064 142.038 272.431 142.231 272.759C142.431 273.087 142.697 273.351 143.031 273.55C143.371 273.743 143.793 273.84 144.297 273.84ZM151.68 265.49V275H150.045V265.49H151.68ZM149.922 262.968C149.922 262.704 150.001 262.481 150.159 262.3C150.323 262.118 150.563 262.027 150.88 262.027C151.19 262.027 151.428 262.118 151.592 262.3C151.762 262.481 151.847 262.704 151.847 262.968C151.847 263.22 151.762 263.437 151.592 263.618C151.428 263.794 151.19 263.882 150.88 263.882C150.563 263.882 150.323 263.794 150.159 263.618C150.001 263.437 149.922 263.22 149.922 262.968ZM153.859 270.351V270.148C153.859 269.463 153.959 268.827 154.158 268.241C154.357 267.649 154.645 267.137 155.02 266.703C155.395 266.264 155.849 265.924 156.382 265.684C156.915 265.438 157.513 265.314 158.175 265.314C158.843 265.314 159.443 265.438 159.977 265.684C160.516 265.924 160.973 266.264 161.348 266.703C161.729 267.137 162.019 267.649 162.218 268.241C162.417 268.827 162.517 269.463 162.517 270.148V270.351C162.517 271.036 162.417 271.672 162.218 272.258C162.019 272.844 161.729 273.356 161.348 273.796C160.973 274.229 160.519 274.569 159.985 274.815C159.458 275.056 158.86 275.176 158.192 275.176C157.524 275.176 156.924 275.056 156.391 274.815C155.857 274.569 155.4 274.229 155.02 273.796C154.645 273.356 154.357 272.844 154.158 272.258C153.959 271.672 153.859 271.036 153.859 270.351ZM155.485 270.148V270.351C155.485 270.825 155.541 271.273 155.652 271.695C155.764 272.111 155.931 272.48 156.153 272.803C156.382 273.125 156.666 273.38 157.006 273.567C157.346 273.749 157.741 273.84 158.192 273.84C158.638 273.84 159.027 273.749 159.361 273.567C159.701 273.38 159.982 273.125 160.205 272.803C160.428 272.48 160.595 272.111 160.706 271.695C160.823 271.273 160.882 270.825 160.882 270.351V270.148C160.882 269.68 160.823 269.237 160.706 268.821C160.595 268.399 160.425 268.027 160.196 267.705C159.974 267.377 159.692 267.119 159.353 266.932C159.019 266.744 158.626 266.65 158.175 266.65C157.729 266.65 157.337 266.744 156.997 266.932C156.663 267.119 156.382 267.377 156.153 267.705C155.931 268.027 155.764 268.399 155.652 268.821C155.541 269.237 155.485 269.68 155.485 270.148ZM168.361 273.84C168.748 273.84 169.105 273.761 169.434 273.603C169.762 273.444 170.031 273.228 170.242 272.952C170.453 272.671 170.573 272.352 170.603 271.994H172.149C172.12 272.557 171.93 273.081 171.578 273.567C171.232 274.048 170.778 274.438 170.216 274.736C169.653 275.029 169.035 275.176 168.361 275.176C167.646 275.176 167.022 275.05 166.489 274.798C165.962 274.546 165.522 274.2 165.171 273.761C164.825 273.321 164.564 272.817 164.389 272.249C164.219 271.675 164.134 271.068 164.134 270.43V270.061C164.134 269.422 164.219 268.818 164.389 268.25C164.564 267.676 164.825 267.169 165.171 266.729C165.522 266.29 165.962 265.944 166.489 265.692C167.022 265.44 167.646 265.314 168.361 265.314C169.105 265.314 169.756 265.467 170.312 265.771C170.869 266.07 171.306 266.48 171.622 267.002C171.944 267.518 172.12 268.104 172.149 268.76H170.603C170.573 268.367 170.462 268.013 170.269 267.696C170.081 267.38 169.823 267.128 169.495 266.94C169.173 266.747 168.795 266.65 168.361 266.65C167.863 266.65 167.444 266.75 167.104 266.949C166.771 267.143 166.504 267.406 166.305 267.74C166.111 268.068 165.971 268.435 165.883 268.839C165.801 269.237 165.76 269.645 165.76 270.061V270.43C165.76 270.846 165.801 271.256 165.883 271.66C165.965 272.064 166.103 272.431 166.296 272.759C166.495 273.087 166.762 273.351 167.096 273.55C167.436 273.743 167.857 273.84 168.361 273.84ZM175.604 266.984V275H173.978V265.49H175.56L175.604 266.984ZM178.574 265.438L178.565 266.949C178.431 266.92 178.302 266.902 178.179 266.896C178.062 266.885 177.927 266.879 177.774 266.879C177.399 266.879 177.068 266.938 176.781 267.055C176.494 267.172 176.251 267.336 176.052 267.547C175.853 267.758 175.694 268.01 175.577 268.303C175.466 268.59 175.393 268.906 175.357 269.252L174.9 269.516C174.9 268.941 174.956 268.402 175.067 267.898C175.185 267.395 175.363 266.949 175.604 266.562C175.844 266.17 176.148 265.865 176.518 265.648C176.893 265.426 177.338 265.314 177.854 265.314C177.971 265.314 178.105 265.329 178.258 265.358C178.41 265.382 178.516 265.408 178.574 265.438ZM185.333 273.374V268.479C185.333 268.104 185.257 267.778 185.104 267.503C184.958 267.222 184.735 267.005 184.437 266.853C184.138 266.7 183.769 266.624 183.329 266.624C182.919 266.624 182.559 266.694 182.248 266.835C181.943 266.976 181.703 267.16 181.527 267.389C181.357 267.617 181.272 267.863 181.272 268.127H179.646C179.646 267.787 179.734 267.45 179.91 267.116C180.086 266.782 180.338 266.48 180.666 266.211C181 265.936 181.398 265.719 181.861 265.561C182.33 265.396 182.852 265.314 183.426 265.314C184.117 265.314 184.727 265.432 185.254 265.666C185.787 265.9 186.203 266.255 186.502 266.729C186.807 267.198 186.959 267.787 186.959 268.496V272.926C186.959 273.242 186.985 273.579 187.038 273.937C187.097 274.294 187.182 274.602 187.293 274.859V275H185.597C185.515 274.812 185.45 274.563 185.403 274.253C185.356 273.937 185.333 273.644 185.333 273.374ZM185.614 269.234L185.632 270.377H183.988C183.525 270.377 183.112 270.415 182.749 270.491C182.386 270.562 182.081 270.67 181.835 270.816C181.589 270.963 181.401 271.147 181.272 271.37C181.144 271.587 181.079 271.842 181.079 272.135C181.079 272.434 181.146 272.706 181.281 272.952C181.416 273.198 181.618 273.395 181.888 273.541C182.163 273.682 182.5 273.752 182.898 273.752C183.396 273.752 183.836 273.646 184.217 273.436C184.598 273.225 184.899 272.967 185.122 272.662C185.351 272.357 185.474 272.062 185.491 271.774L186.186 272.557C186.145 272.803 186.033 273.075 185.852 273.374C185.67 273.673 185.427 273.96 185.122 274.235C184.823 274.505 184.466 274.73 184.05 274.912C183.64 275.088 183.177 275.176 182.661 275.176C182.017 275.176 181.451 275.05 180.965 274.798C180.484 274.546 180.109 274.209 179.84 273.787C179.576 273.359 179.444 272.882 179.444 272.354C179.444 271.845 179.544 271.396 179.743 271.01C179.942 270.617 180.229 270.292 180.604 270.034C180.979 269.771 181.431 269.571 181.958 269.437C182.485 269.302 183.074 269.234 183.725 269.234H185.614ZM193.498 265.49V266.738H188.356V265.49H193.498ZM190.097 263.179H191.723V272.645C191.723 272.967 191.772 273.21 191.872 273.374C191.972 273.538 192.101 273.646 192.259 273.699C192.417 273.752 192.587 273.778 192.769 273.778C192.903 273.778 193.044 273.767 193.19 273.743C193.343 273.714 193.457 273.69 193.533 273.673L193.542 275C193.413 275.041 193.243 275.079 193.032 275.114C192.827 275.155 192.578 275.176 192.285 275.176C191.887 275.176 191.521 275.097 191.187 274.938C190.853 274.78 190.586 274.517 190.387 274.147C190.193 273.772 190.097 273.269 190.097 272.636V263.179ZM197.172 265.49V275H195.537V265.49H197.172ZM195.414 262.968C195.414 262.704 195.493 262.481 195.651 262.3C195.815 262.118 196.056 262.027 196.372 262.027C196.683 262.027 196.92 262.118 197.084 262.3C197.254 262.481 197.339 262.704 197.339 262.968C197.339 263.22 197.254 263.437 197.084 263.618C196.92 263.794 196.683 263.882 196.372 263.882C196.056 263.882 195.815 263.794 195.651 263.618C195.493 263.437 195.414 263.22 195.414 262.968ZM203.588 273.84C203.975 273.84 204.332 273.761 204.66 273.603C204.988 273.444 205.258 273.228 205.469 272.952C205.68 272.671 205.8 272.352 205.829 271.994H207.376C207.347 272.557 207.156 273.081 206.805 273.567C206.459 274.048 206.005 274.438 205.442 274.736C204.88 275.029 204.262 275.176 203.588 275.176C202.873 275.176 202.249 275.05 201.716 274.798C201.188 274.546 200.749 274.2 200.397 273.761C200.052 273.321 199.791 272.817 199.615 272.249C199.445 271.675 199.36 271.068 199.36 270.43V270.061C199.36 269.422 199.445 268.818 199.615 268.25C199.791 267.676 200.052 267.169 200.397 266.729C200.749 266.29 201.188 265.944 201.716 265.692C202.249 265.44 202.873 265.314 203.588 265.314C204.332 265.314 204.982 265.467 205.539 265.771C206.096 266.07 206.532 266.48 206.849 267.002C207.171 267.518 207.347 268.104 207.376 268.76H205.829C205.8 268.367 205.688 268.013 205.495 267.696C205.308 267.38 205.05 267.128 204.722 266.94C204.399 266.747 204.021 266.65 203.588 266.65C203.09 266.65 202.671 266.75 202.331 266.949C201.997 267.143 201.73 267.406 201.531 267.74C201.338 268.068 201.197 268.435 201.109 268.839C201.027 269.237 200.986 269.645 200.986 270.061V270.43C200.986 270.846 201.027 271.256 201.109 271.66C201.191 272.064 201.329 272.431 201.522 272.759C201.722 273.087 201.988 273.351 202.322 273.55C202.662 273.743 203.084 273.84 203.588 273.84ZM215.286 267.38V275H213.651V265.49H215.198L215.286 267.38ZM214.952 269.885L214.196 269.858C214.202 269.208 214.287 268.607 214.451 268.057C214.615 267.5 214.858 267.017 215.181 266.606C215.503 266.196 215.904 265.88 216.385 265.657C216.865 265.429 217.422 265.314 218.055 265.314C218.5 265.314 218.91 265.379 219.285 265.508C219.66 265.631 219.985 265.827 220.261 266.097C220.536 266.366 220.75 266.712 220.902 267.134C221.055 267.556 221.131 268.065 221.131 268.663V275H219.505V268.742C219.505 268.244 219.42 267.846 219.25 267.547C219.086 267.248 218.852 267.031 218.547 266.896C218.242 266.756 217.885 266.686 217.475 266.686C216.994 266.686 216.593 266.771 216.271 266.94C215.948 267.11 215.69 267.345 215.497 267.644C215.304 267.942 215.163 268.285 215.075 268.672C214.993 269.053 214.952 269.457 214.952 269.885ZM221.113 268.988L220.023 269.322C220.029 268.801 220.114 268.3 220.278 267.819C220.448 267.339 220.691 266.911 221.008 266.536C221.33 266.161 221.726 265.865 222.194 265.648C222.663 265.426 223.199 265.314 223.803 265.314C224.312 265.314 224.764 265.382 225.156 265.517C225.555 265.651 225.889 265.859 226.158 266.141C226.434 266.416 226.642 266.771 226.782 267.204C226.923 267.638 226.993 268.153 226.993 268.751V275H225.358V268.733C225.358 268.2 225.273 267.787 225.104 267.494C224.939 267.195 224.705 266.987 224.4 266.87C224.102 266.747 223.744 266.686 223.328 266.686C222.971 266.686 222.654 266.747 222.379 266.87C222.104 266.993 221.872 267.163 221.685 267.38C221.497 267.591 221.354 267.834 221.254 268.109C221.16 268.385 221.113 268.678 221.113 268.988ZM235.062 273.374V268.479C235.062 268.104 234.985 267.778 234.833 267.503C234.687 267.222 234.464 267.005 234.165 266.853C233.866 266.7 233.497 266.624 233.058 266.624C232.647 266.624 232.287 266.694 231.977 266.835C231.672 266.976 231.432 267.16 231.256 267.389C231.086 267.617 231.001 267.863 231.001 268.127H229.375C229.375 267.787 229.463 267.45 229.639 267.116C229.814 266.782 230.066 266.48 230.395 266.211C230.729 265.936 231.127 265.719 231.59 265.561C232.059 265.396 232.58 265.314 233.154 265.314C233.846 265.314 234.455 265.432 234.982 265.666C235.516 265.9 235.932 266.255 236.23 266.729C236.535 267.198 236.688 267.787 236.688 268.496V272.926C236.688 273.242 236.714 273.579 236.767 273.937C236.825 274.294 236.91 274.602 237.021 274.859V275H235.325C235.243 274.812 235.179 274.563 235.132 274.253C235.085 273.937 235.062 273.644 235.062 273.374ZM235.343 269.234L235.36 270.377H233.717C233.254 270.377 232.841 270.415 232.478 270.491C232.114 270.562 231.81 270.67 231.563 270.816C231.317 270.963 231.13 271.147 231.001 271.37C230.872 271.587 230.808 271.842 230.808 272.135C230.808 272.434 230.875 272.706 231.01 272.952C231.145 273.198 231.347 273.395 231.616 273.541C231.892 273.682 232.229 273.752 232.627 273.752C233.125 273.752 233.564 273.646 233.945 273.436C234.326 273.225 234.628 272.967 234.851 272.662C235.079 272.357 235.202 272.062 235.22 271.774L235.914 272.557C235.873 272.803 235.762 273.075 235.58 273.374C235.398 273.673 235.155 273.96 234.851 274.235C234.552 274.505 234.194 274.73 233.778 274.912C233.368 275.088 232.905 275.176 232.39 275.176C231.745 275.176 231.18 275.05 230.693 274.798C230.213 274.546 229.838 274.209 229.568 273.787C229.305 273.359 229.173 272.882 229.173 272.354C229.173 271.845 229.272 271.396 229.472 271.01C229.671 270.617 229.958 270.292 230.333 270.034C230.708 269.771 231.159 269.571 231.687 269.437C232.214 269.302 232.803 269.234 233.453 269.234H235.343ZM240.871 267.521V275H239.245V265.49H240.783L240.871 267.521ZM240.484 269.885L239.808 269.858C239.813 269.208 239.91 268.607 240.098 268.057C240.285 267.5 240.549 267.017 240.889 266.606C241.229 266.196 241.633 265.88 242.102 265.657C242.576 265.429 243.101 265.314 243.675 265.314C244.144 265.314 244.565 265.379 244.94 265.508C245.315 265.631 245.635 265.83 245.898 266.105C246.168 266.381 246.373 266.738 246.514 267.178C246.654 267.611 246.725 268.142 246.725 268.769V275H245.09V268.751C245.09 268.253 245.017 267.854 244.87 267.556C244.724 267.251 244.51 267.031 244.229 266.896C243.947 266.756 243.602 266.686 243.191 266.686C242.787 266.686 242.418 266.771 242.084 266.94C241.756 267.11 241.472 267.345 241.231 267.644C240.997 267.942 240.812 268.285 240.678 268.672C240.549 269.053 240.484 269.457 240.484 269.885ZM254.802 273.374V268.479C254.802 268.104 254.726 267.778 254.573 267.503C254.427 267.222 254.204 267.005 253.905 266.853C253.606 266.7 253.237 266.624 252.798 266.624C252.388 266.624 252.027 266.694 251.717 266.835C251.412 266.976 251.172 267.16 250.996 267.389C250.826 267.617 250.741 267.863 250.741 268.127H249.115C249.115 267.787 249.203 267.45 249.379 267.116C249.555 266.782 249.807 266.48 250.135 266.211C250.469 265.936 250.867 265.719 251.33 265.561C251.799 265.396 252.32 265.314 252.895 265.314C253.586 265.314 254.195 265.432 254.723 265.666C255.256 265.9 255.672 266.255 255.971 266.729C256.275 267.198 256.428 267.787 256.428 268.496V272.926C256.428 273.242 256.454 273.579 256.507 273.937C256.565 274.294 256.65 274.602 256.762 274.859V275H255.065C254.983 274.812 254.919 274.563 254.872 274.253C254.825 273.937 254.802 273.644 254.802 273.374ZM255.083 269.234L255.101 270.377H253.457C252.994 270.377 252.581 270.415 252.218 270.491C251.854 270.562 251.55 270.67 251.304 270.816C251.058 270.963 250.87 271.147 250.741 271.37C250.612 271.587 250.548 271.842 250.548 272.135C250.548 272.434 250.615 272.706 250.75 272.952C250.885 273.198 251.087 273.395 251.356 273.541C251.632 273.682 251.969 273.752 252.367 273.752C252.865 273.752 253.305 273.646 253.686 273.436C254.066 273.225 254.368 272.967 254.591 272.662C254.819 272.357 254.942 272.062 254.96 271.774L255.654 272.557C255.613 272.803 255.502 273.075 255.32 273.374C255.139 273.673 254.896 273.96 254.591 274.235C254.292 274.505 253.935 274.73 253.519 274.912C253.108 275.088 252.646 275.176 252.13 275.176C251.485 275.176 250.92 275.05 250.434 274.798C249.953 274.546 249.578 274.209 249.309 273.787C249.045 273.359 248.913 272.882 248.913 272.354C248.913 271.845 249.013 271.396 249.212 271.01C249.411 270.617 249.698 270.292 250.073 270.034C250.448 269.771 250.899 269.571 251.427 269.437C251.954 269.302 252.543 269.234 253.193 269.234H255.083ZM265.146 265.49H266.623V274.798C266.623 275.636 266.453 276.351 266.113 276.942C265.773 277.534 265.299 277.982 264.689 278.287C264.086 278.598 263.389 278.753 262.598 278.753C262.27 278.753 261.883 278.7 261.438 278.595C260.998 278.495 260.564 278.322 260.137 278.076C259.715 277.836 259.36 277.511 259.073 277.101L259.926 276.134C260.324 276.614 260.74 276.948 261.174 277.136C261.613 277.323 262.047 277.417 262.475 277.417C262.99 277.417 263.436 277.32 263.811 277.127C264.186 276.934 264.476 276.646 264.681 276.266C264.892 275.891 264.997 275.428 264.997 274.877V267.582L265.146 265.49ZM258.599 270.351V270.166C258.599 269.439 258.684 268.78 258.854 268.188C259.029 267.591 259.278 267.078 259.601 266.65C259.929 266.223 260.324 265.895 260.787 265.666C261.25 265.432 261.771 265.314 262.352 265.314C262.949 265.314 263.471 265.42 263.916 265.631C264.367 265.836 264.748 266.138 265.059 266.536C265.375 266.929 265.624 267.403 265.806 267.96C265.987 268.517 266.113 269.146 266.184 269.85V270.658C266.119 271.355 265.993 271.982 265.806 272.539C265.624 273.096 265.375 273.57 265.059 273.963C264.748 274.355 264.367 274.657 263.916 274.868C263.465 275.073 262.938 275.176 262.334 275.176C261.766 275.176 261.25 275.056 260.787 274.815C260.33 274.575 259.938 274.238 259.609 273.805C259.281 273.371 259.029 272.861 258.854 272.275C258.684 271.684 258.599 271.042 258.599 270.351ZM260.225 270.166V270.351C260.225 270.825 260.271 271.271 260.365 271.687C260.465 272.103 260.614 272.469 260.813 272.785C261.019 273.102 261.279 273.351 261.596 273.532C261.912 273.708 262.29 273.796 262.729 273.796C263.269 273.796 263.714 273.682 264.065 273.453C264.417 273.225 264.695 272.923 264.9 272.548C265.111 272.173 265.275 271.766 265.393 271.326V269.208C265.328 268.886 265.229 268.575 265.094 268.276C264.965 267.972 264.795 267.702 264.584 267.468C264.379 267.228 264.124 267.037 263.819 266.896C263.515 266.756 263.157 266.686 262.747 266.686C262.302 266.686 261.918 266.779 261.596 266.967C261.279 267.148 261.019 267.4 260.813 267.723C260.614 268.039 260.465 268.408 260.365 268.83C260.271 269.246 260.225 269.691 260.225 270.166ZM273.039 275.176C272.377 275.176 271.776 275.064 271.237 274.842C270.704 274.613 270.244 274.294 269.857 273.884C269.477 273.474 269.184 272.987 268.979 272.425C268.773 271.862 268.671 271.247 268.671 270.579V270.21C268.671 269.437 268.785 268.748 269.014 268.145C269.242 267.535 269.553 267.02 269.945 266.598C270.338 266.176 270.783 265.856 271.281 265.64C271.779 265.423 272.295 265.314 272.828 265.314C273.508 265.314 274.094 265.432 274.586 265.666C275.084 265.9 275.491 266.229 275.808 266.65C276.124 267.066 276.358 267.559 276.511 268.127C276.663 268.689 276.739 269.305 276.739 269.973V270.702H269.638V269.375H275.113V269.252C275.09 268.83 275.002 268.42 274.85 268.021C274.703 267.623 274.469 267.295 274.146 267.037C273.824 266.779 273.385 266.65 272.828 266.65C272.459 266.65 272.119 266.729 271.809 266.888C271.498 267.04 271.231 267.269 271.009 267.573C270.786 267.878 270.613 268.25 270.49 268.689C270.367 269.129 270.306 269.636 270.306 270.21V270.579C270.306 271.03 270.367 271.455 270.49 271.854C270.619 272.246 270.804 272.592 271.044 272.891C271.29 273.189 271.586 273.424 271.932 273.594C272.283 273.764 272.682 273.849 273.127 273.849C273.701 273.849 274.188 273.731 274.586 273.497C274.984 273.263 275.333 272.949 275.632 272.557L276.616 273.339C276.411 273.649 276.15 273.945 275.834 274.227C275.518 274.508 275.128 274.736 274.665 274.912C274.208 275.088 273.666 275.176 273.039 275.176ZM280.255 267.38V275H278.62V265.49H280.167L280.255 267.38ZM279.921 269.885L279.165 269.858C279.171 269.208 279.256 268.607 279.42 268.057C279.584 267.5 279.827 267.017 280.149 266.606C280.472 266.196 280.873 265.88 281.354 265.657C281.834 265.429 282.391 265.314 283.023 265.314C283.469 265.314 283.879 265.379 284.254 265.508C284.629 265.631 284.954 265.827 285.229 266.097C285.505 266.366 285.719 266.712 285.871 267.134C286.023 267.556 286.1 268.065 286.1 268.663V275H284.474V268.742C284.474 268.244 284.389 267.846 284.219 267.547C284.055 267.248 283.82 267.031 283.516 266.896C283.211 266.756 282.854 266.686 282.443 266.686C281.963 266.686 281.562 266.771 281.239 266.94C280.917 267.11 280.659 267.345 280.466 267.644C280.272 267.942 280.132 268.285 280.044 268.672C279.962 269.053 279.921 269.457 279.921 269.885ZM286.082 268.988L284.992 269.322C284.998 268.801 285.083 268.3 285.247 267.819C285.417 267.339 285.66 266.911 285.977 266.536C286.299 266.161 286.694 265.865 287.163 265.648C287.632 265.426 288.168 265.314 288.771 265.314C289.281 265.314 289.732 265.382 290.125 265.517C290.523 265.651 290.857 265.859 291.127 266.141C291.402 266.416 291.61 266.771 291.751 267.204C291.892 267.638 291.962 268.153 291.962 268.751V275H290.327V268.733C290.327 268.2 290.242 267.787 290.072 267.494C289.908 267.195 289.674 266.987 289.369 266.87C289.07 266.747 288.713 266.686 288.297 266.686C287.939 266.686 287.623 266.747 287.348 266.87C287.072 266.993 286.841 267.163 286.653 267.38C286.466 267.591 286.322 267.834 286.223 268.109C286.129 268.385 286.082 268.678 286.082 268.988ZM298.369 275.176C297.707 275.176 297.106 275.064 296.567 274.842C296.034 274.613 295.574 274.294 295.188 273.884C294.807 273.474 294.514 272.987 294.309 272.425C294.104 271.862 294.001 271.247 294.001 270.579V270.21C294.001 269.437 294.115 268.748 294.344 268.145C294.572 267.535 294.883 267.02 295.275 266.598C295.668 266.176 296.113 265.856 296.611 265.64C297.109 265.423 297.625 265.314 298.158 265.314C298.838 265.314 299.424 265.432 299.916 265.666C300.414 265.9 300.821 266.229 301.138 266.65C301.454 267.066 301.688 267.559 301.841 268.127C301.993 268.689 302.069 269.305 302.069 269.973V270.702H294.968V269.375H300.443V269.252C300.42 268.83 300.332 268.42 300.18 268.021C300.033 267.623 299.799 267.295 299.477 267.037C299.154 266.779 298.715 266.65 298.158 266.65C297.789 266.65 297.449 266.729 297.139 266.888C296.828 267.04 296.562 267.269 296.339 267.573C296.116 267.878 295.943 268.25 295.82 268.689C295.697 269.129 295.636 269.636 295.636 270.21V270.579C295.636 271.03 295.697 271.455 295.82 271.854C295.949 272.246 296.134 272.592 296.374 272.891C296.62 273.189 296.916 273.424 297.262 273.594C297.613 273.764 298.012 273.849 298.457 273.849C299.031 273.849 299.518 273.731 299.916 273.497C300.314 273.263 300.663 272.949 300.962 272.557L301.946 273.339C301.741 273.649 301.48 273.945 301.164 274.227C300.848 274.508 300.458 274.736 299.995 274.912C299.538 275.088 298.996 275.176 298.369 275.176ZM305.594 267.521V275H303.968V265.49H305.506L305.594 267.521ZM305.207 269.885L304.53 269.858C304.536 269.208 304.633 268.607 304.82 268.057C305.008 267.5 305.271 267.017 305.611 266.606C305.951 266.196 306.355 265.88 306.824 265.657C307.299 265.429 307.823 265.314 308.397 265.314C308.866 265.314 309.288 265.379 309.663 265.508C310.038 265.631 310.357 265.83 310.621 266.105C310.891 266.381 311.096 266.738 311.236 267.178C311.377 267.611 311.447 268.142 311.447 268.769V275H309.812V268.751C309.812 268.253 309.739 267.854 309.593 267.556C309.446 267.251 309.232 267.031 308.951 266.896C308.67 266.756 308.324 266.686 307.914 266.686C307.51 266.686 307.141 266.771 306.807 266.94C306.479 267.11 306.194 267.345 305.954 267.644C305.72 267.942 305.535 268.285 305.4 268.672C305.271 269.053 305.207 269.457 305.207 269.885ZM317.898 265.49V266.738H312.757V265.49H317.898ZM314.497 263.179H316.123V272.645C316.123 272.967 316.173 273.21 316.272 273.374C316.372 273.538 316.501 273.646 316.659 273.699C316.817 273.752 316.987 273.778 317.169 273.778C317.304 273.778 317.444 273.767 317.591 273.743C317.743 273.714 317.857 273.69 317.934 273.673L317.942 275C317.813 275.041 317.644 275.079 317.433 275.114C317.228 275.155 316.979 275.176 316.686 275.176C316.287 275.176 315.921 275.097 315.587 274.938C315.253 274.78 314.986 274.517 314.787 274.147C314.594 273.772 314.497 273.269 314.497 272.636V263.179ZM319.832 274.139C319.832 273.863 319.917 273.632 320.087 273.444C320.263 273.251 320.515 273.154 320.843 273.154C321.171 273.154 321.42 273.251 321.59 273.444C321.766 273.632 321.854 273.863 321.854 274.139C321.854 274.408 321.766 274.637 321.59 274.824C321.42 275.012 321.171 275.105 320.843 275.105C320.515 275.105 320.263 275.012 320.087 274.824C319.917 274.637 319.832 274.408 319.832 274.139Z" fill="#303031"/>
<mask id="mask0_28_36" style="mask-type:alpha" maskUnits="userSpaceOnUse" x="178" y="70" width="88" height="88">
<circle cx="222" cy="114" r="44" fill="#F3F0EA"/>
</mask>
<g mask="url(#mask0_28_36)">
<circle cx="222" cy="114" r="44" fill="#F3F0EA"/>
<circle cx="222" cy="114" r="28" fill="#71A894"/>
<circle opacity="0.8" cx="222" cy="114" r="16" fill="#303031"/>
<path d="M222 106L223.796 111.528H229.608L224.906 114.944L226.702 120.472L222 117.056L217.298 120.472L219.094 114.944L214.392 111.528H220.204L222 106Z" fill="#F3F0EA"/>
</g>
</g>
<defs>
<filter id="filter0_d_28_36" x="0" y="0" width="443" height="356" filterUnits="userSpaceOnUse" color-interpolation-filters="sRGB">
<feFlood flood-opacity="0" result="BackgroundImageFix"/>
<feColorMatrix in="SourceAlpha" type="matrix" values="0 0 0 0 0 0 0 0 0 0 0 0 0 0 0 0 0 0 127 0" result="hardAlpha"/>
<feOffset dy="2"/>
<feGaussianBlur stdDeviation="4"/>
<feColorMatrix type="matrix" values="0 0 0 0 0 0 0 0 0 0 0 0 0 0 0 0 0 0 0.1 0"/>
<feBlend mode="normal" in2="BackgroundImageFix" result="effect1_dropShadow_28_36"/>
<feBlend mode="normal" in="SourceGraphic" in2="effect1_dropShadow_28_36" result="shape"/>
</filter>
</defs>
</svg>
